<svg width="102" height="125" viewBox="0 0 102 125" fill="none" xmlns="http://www.w3.org/2000/svg">
<path d="M84.4838 66.002C84.6578 84.802 100.978 91.059 101.158 91.139C101.02 91.579 98.5508 100.055 92.5608 108.808C87.3828 116.376 82.0078 123.916 73.5428 124.074C65.2248 124.226 62.5498 119.14 53.0388 119.14C43.5308 119.14 40.5598 123.916 32.6848 124.226C24.5128 124.536 18.2898 116.041 13.0688 108.502C2.40077 93.078 -5.75223 64.917 5.19477 45.908C10.6328 36.468 20.3528 30.491 30.9018 30.337C38.9258 30.184 46.4998 35.735 51.4048 35.735C56.3068 35.735 65.5108 29.059 75.1868 30.039C79.2378 30.208 90.6078 31.675 97.9088 42.363C97.3218 42.728 84.3428 50.284 84.4838 66.002ZM68.8508 19.836C73.1888 14.585 76.1088 7.273 75.3128 0C69.0588 0.251 61.4968 4.167 57.0118 9.416C52.9918 14.063 49.4718 21.503 50.4208 28.632C57.3918 29.172 64.5118 25.09 68.8508 19.836Z" fill="black"/>
</svg>
