<svg width="27" height="27" viewBox="0 0 27 27" fill="none" xmlns="http://www.w3.org/2000/svg">
<rect width="27" height="27" rx="4" fill="url(#paint0_linear_3346_18425)"/>
<g clip-path="url(#clip0_3346_18425)">
<path d="M15.9753 9.94191L15.9753 16.4883C15.9753 17.7815 15.0286 18.9323 13.7416 19.0561C12.269 19.1984 11.0253 18.0413 11.0253 16.5935L11.0253 8.94572C11.0253 8.13516 11.6069 7.39884 12.4113 7.31841C13.3394 7.22559 14.119 7.94953 14.119 8.85909L14.119 15.356C14.119 15.6963 13.8406 15.9747 13.5003 15.9747C13.16 15.9747 12.8815 15.6963 12.8815 15.356L12.8815 9.94191C12.8815 9.68822 12.6712 9.47784 12.4175 9.47784C12.1638 9.47784 11.9534 9.68822 11.9534 9.94191L11.9534 15.2693C11.9534 16.0799 12.535 16.8162 13.3394 16.8967C14.2675 16.9895 15.0472 16.2655 15.0472 15.356L15.0472 8.96428C15.0472 7.67109 14.1005 6.52022 12.8135 6.39647C11.3347 6.25416 10.0972 7.41122 10.0972 8.85909L10.0972 16.4512C10.0972 18.227 11.3965 19.8172 13.1662 19.9842C15.2019 20.1698 16.9034 18.5858 16.9034 16.5935L16.9034 9.94191C16.9034 9.68822 16.693 9.47784 16.4394 9.47784C16.1857 9.47784 15.9753 9.68822 15.9753 9.94191Z" fill="white"/>
</g>
<defs>
<linearGradient id="paint0_linear_3346_18425" x1="-1.69764e-07" y1="27" x2="25.9088" y2="28.0094" gradientUnits="userSpaceOnUse">
<stop stop-color="#1C2F40"/>
<stop offset="1" stop-color="#20415E"/>
</linearGradient>
<clipPath id="clip0_3346_18425">
<rect width="14.85" height="14.85" fill="white" transform="translate(6.0752 20.9248) rotate(-90)"/>
</clipPath>
</defs>
</svg>
