
<svg width="151" height="511" viewBox="0 0 151 511" fill="none" xmlns="http://www.w3.org/2000/svg">
<g opacity="0.3">
<path d="M98.8059 276.448L63.4336 311.83L82.5199 330.911L117.892 295.529L98.8059 276.448Z" fill="#9E7C4F"/>
<path d="M152.269 400.602L187.639 435.972V435.995L168.565 455.069L133.172 419.699L152.269 400.602Z" fill="#1C374D"/>
<path d="M223.033 400.601L146.386 477.248C143.375 476.501 140.106 475.497 136.628 474.283C133.149 473.069 129.74 471.645 126.449 470.034C123.133 468.446 119.982 466.695 116.97 464.804C113.958 462.913 111.367 460.882 109.196 458.711C105.904 455.419 103.826 452.197 102.985 449.092C102.145 445.987 102.052 443.022 102.705 440.174C103.359 437.349 104.643 434.641 106.534 432.096C108.425 429.551 110.48 427.146 112.744 424.882L180.052 357.574L160.955 338.477L90.6584 408.773C88.5806 410.851 86.6896 413.022 85.0086 415.263C81.9969 414.516 78.7284 413.512 75.1797 412.228C71.6544 410.967 68.1758 409.52 64.7906 407.909C61.382 406.298 58.1369 404.57 55.0318 402.679C51.9267 400.788 49.2885 398.757 47.1173 396.586C43.8255 393.294 41.7476 390.072 40.9071 386.967C40.0667 383.862 39.9733 380.874 40.627 378.049C41.2807 375.224 42.5647 372.516 44.4558 369.994C46.3468 367.449 48.4013 365.045 50.6659 362.78L63.5065 349.94L44.4091 330.842L28.6036 346.671C23.7942 351.481 20.2922 356.313 18.0743 361.169C15.8564 366.025 14.7357 370.835 14.6891 375.597C14.6424 380.36 15.6463 384.936 17.7241 389.372C19.802 393.808 22.767 397.963 26.6191 401.815C30.0044 405.224 33.9032 408.166 38.2924 410.664C42.6815 413.162 47.094 415.286 51.5765 417.037C56.059 418.765 60.4248 420.212 64.6505 421.356C68.8996 422.477 72.6116 423.434 75.8334 424.181L79.5222 425.022C76.6039 432.096 75.9969 438.936 77.7478 445.59C79.4988 452.244 83.1409 458.337 88.6973 463.894C92.1059 467.302 95.9814 470.244 100.371 472.742C104.76 475.24 109.172 477.341 113.655 479.092C118.137 480.843 122.503 482.291 126.752 483.411C131.001 484.532 134.713 485.466 137.912 486.236L265.94 357.928L112.744 510.843L150.601 511.158H150.612L242.154 419.629L223.033 400.601Z" fill="#9E7C4F"/>
<path d="M276.445 276.423L257.371 295.52L334.018 372.167C333.271 375.178 332.267 378.447 331.053 381.926C329.839 385.404 328.414 388.789 326.804 392.105C325.216 395.396 323.465 398.548 321.574 401.583C319.683 404.595 317.652 407.186 315.481 409.358C312.189 412.65 308.99 414.727 305.862 415.568C302.757 416.408 299.768 416.502 296.944 415.848C294.119 415.194 291.434 413.91 288.866 412.043C286.321 410.151 283.916 408.097 281.652 405.832L109.728 233.909C107.65 231.831 105.479 229.94 103.215 228.259C103.962 225.248 104.966 221.979 106.25 218.43C107.51 214.905 108.958 211.426 110.569 208.041C112.18 204.656 113.907 201.387 115.798 198.282C117.689 195.154 119.721 192.539 121.892 190.368C125.184 187.053 128.405 184.998 131.511 184.134C134.616 183.294 137.604 183.201 140.429 183.854C143.254 184.508 145.939 185.769 148.483 187.66C151.028 189.551 153.433 191.629 155.697 193.87L168.538 206.71L187.635 187.636L171.807 171.807C166.997 166.998 162.164 163.496 157.308 161.278C152.452 159.06 147.643 157.916 142.88 157.87C138.118 157.823 133.518 158.827 129.106 160.905C124.67 162.983 120.538 165.948 116.662 169.823C113.277 173.232 110.312 177.107 107.814 181.496C105.316 185.885 103.215 190.298 101.464 194.78C99.7127 199.263 98.2652 203.629 97.1445 207.878C96.0239 212.103 95.0667 215.839 94.3196 219.037L93.4791 222.703C86.4052 219.784 79.5414 219.201 72.8876 220.928C66.2339 222.679 60.1405 226.321 54.584 231.878C51.1754 235.263 48.2338 239.162 45.7357 243.551C43.2376 247.94 41.1364 252.353 39.3855 256.835C37.6345 261.318 36.2103 265.684 35.0663 269.909C33.9224 274.158 32.9885 277.87 32.2414 281.092L15.969 270.47L0 286.462L98.8722 385.334L117.97 366.237L41.3232 289.59C42.0703 286.579 43.0742 283.31 44.2882 279.832C45.5022 276.353 46.9263 272.968 48.5372 269.653C50.1481 266.361 51.8758 263.209 53.7669 260.174C55.6579 257.162 57.6657 254.571 59.8603 252.399C63.1521 249.108 66.3739 247.03 69.479 246.189C72.5841 245.349 75.5724 245.255 78.3973 245.909C81.2223 246.563 83.9071 247.847 86.4519 249.715C88.9967 251.606 91.4013 253.66 93.6659 255.925L265.589 427.848C267.667 429.926 269.838 431.817 272.103 433.498C271.356 436.51 270.352 439.778 269.068 443.327C267.807 446.852 266.36 450.331 264.749 453.716C263.138 457.101 261.41 460.37 259.519 463.475C257.628 466.603 255.597 469.218 253.426 471.389C250.134 474.704 246.912 476.759 243.807 477.623C240.702 478.463 237.714 478.557 234.889 477.903C232.064 477.249 229.356 475.988 226.834 474.097C224.289 472.206 221.885 470.128 219.62 467.887L206.78 455.047L187.682 474.121L203.488 489.95C208.297 494.759 213.13 498.261 217.986 500.479C222.842 502.697 227.651 503.841 232.414 503.887C237.177 503.934 241.776 502.907 246.212 500.852C250.647 498.775 254.78 495.81 258.655 491.934C262.064 488.525 265.006 484.65 267.504 480.261C270.002 475.872 272.126 471.459 273.854 466.977C275.605 462.494 277.052 458.128 278.173 453.879C279.317 449.654 280.251 445.918 280.998 442.72L281.862 439.031C288.936 441.949 295.799 442.533 302.43 440.805C309.084 439.054 315.177 435.412 320.734 429.856C324.142 426.471 327.084 422.572 329.582 418.183C332.08 413.794 334.181 409.381 335.932 404.898C337.683 400.416 339.107 396.05 340.251 391.824C341.372 387.575 342.329 383.863 343.076 380.642L359.349 391.264L375.341 375.272L276.445 276.423Z" fill="#1C374D"/>
<path d="M375.298 0L133.172 242.103L152.269 261.177L228.916 184.53C231.927 185.277 235.196 186.258 238.674 187.495C242.153 188.709 245.562 190.133 248.854 191.744C252.169 193.332 255.321 195.083 258.332 196.974C261.344 198.865 263.935 200.896 266.107 203.067C269.398 206.359 271.476 209.558 272.317 212.686C273.157 215.791 273.251 218.78 272.597 221.604C271.943 224.429 270.659 227.138 268.768 229.682C266.877 232.227 264.823 234.632 262.558 236.896L195.25 304.204L214.348 323.278L284.644 252.982C286.721 250.904 288.613 248.733 290.294 246.492C293.305 247.239 296.574 248.243 300.122 249.527C303.648 250.811 307.126 252.235 310.512 253.846C313.92 255.457 317.165 257.184 320.27 259.076C323.375 260.967 326.014 262.974 328.185 265.169C331.477 268.461 333.554 271.683 334.395 274.788C335.235 277.893 335.329 280.858 334.675 283.706C334.021 286.531 332.737 289.239 330.846 291.761C328.955 294.305 326.901 296.71 324.636 298.975L311.772 311.815L330.87 330.889L346.675 315.06C351.485 310.251 354.986 305.418 357.228 300.562C359.446 295.706 360.566 290.897 360.613 286.134C360.66 281.371 359.656 276.795 357.578 272.36C355.5 267.924 352.535 263.768 348.683 259.916C345.274 256.507 341.399 253.566 337.01 251.068C332.621 248.57 328.185 246.445 323.726 244.694C319.243 242.943 314.877 241.519 310.652 240.375C306.403 239.231 302.667 238.297 299.469 237.55L295.78 236.71C298.698 229.636 299.282 222.795 297.554 216.141C295.803 209.488 292.161 203.371 286.605 197.814C283.196 194.406 279.321 191.464 274.932 188.966C270.542 186.468 266.107 184.367 261.647 182.616C257.165 180.865 252.799 179.441 248.573 178.297C244.324 177.176 240.612 176.242 237.414 175.472L375.298 38.148V0Z" fill="#9E7C4F"/>
</g>
</svg>
