<svg xmlns="http://www.w3.org/2000/svg" width="178" height="242" viewBox="0 0 178 242" fill="none">
    <g opacity="0.3">
      <path d="M138.009 156.122L121.328 172.807L130.329 181.805L147.009 165.12L138.009 156.122Z" fill="#9E7C4F"/>
      <path d="M105.175 123.245L88.4954 106.566V106.555L97.4901 97.5603L114.181 114.24L105.175 123.245Z" fill="#1C374D"/>
      <path d="M46.5912 130.438L29.9106 147.123L38.9112 156.121L55.5917 139.436L46.5912 130.438Z" fill="#9E7C4F"/>
      <path d="M71.8039 188.986L88.4833 205.665V205.676L79.4885 214.671L62.7981 197.992L71.8039 188.986Z" fill="#1C374D"/>
      <path d="M105.175 188.983L69.0305 225.127C67.6102 224.775 66.0689 224.301 64.4285 223.729C62.7881 223.156 61.1807 222.485 59.6284 221.725C58.065 220.976 56.5787 220.151 55.1585 219.259C53.7383 218.367 52.5162 217.409 51.4923 216.385C49.94 214.833 48.9601 213.314 48.5638 211.849C48.1674 210.385 48.1234 208.987 48.4317 207.644C48.7399 206.312 49.3455 205.034 50.2373 203.834C51.129 202.634 52.0978 201.5 53.1658 200.433L84.9062 168.692L75.9004 159.686L42.7508 192.836C41.7709 193.816 40.8792 194.84 40.0865 195.897C38.6662 195.544 37.1249 195.071 35.4514 194.465C33.789 193.871 32.1486 193.188 30.5522 192.429C28.9448 191.669 27.4145 190.854 25.9503 189.962C24.486 189.071 23.2419 188.113 22.218 187.089C20.6657 185.537 19.6858 184.017 19.2895 182.553C18.8931 181.089 18.8491 179.68 19.1574 178.347C19.4656 177.015 20.0711 175.738 20.9629 174.549C21.8547 173.349 22.8235 172.215 23.8915 171.147L29.9467 165.092L20.9409 156.086L13.4875 163.551C11.2195 165.819 9.56808 168.098 8.52218 170.388C7.47627 172.678 6.9478 174.945 6.92578 177.191C6.90376 179.437 7.37719 181.595 8.35704 183.687C9.33689 185.779 10.7351 187.739 12.5517 189.555C14.148 191.162 15.9866 192.55 18.0564 193.728C20.1262 194.906 22.207 195.908 24.3208 196.733C26.4347 197.548 28.4935 198.231 30.4862 198.77C32.4899 199.299 34.2404 199.75 35.7597 200.102L37.4992 200.499C36.123 203.834 35.8368 207.06 36.6625 210.198C37.4882 213.336 39.2057 216.209 41.826 218.829C43.4334 220.437 45.2609 221.824 47.3307 223.002C49.4005 224.18 51.4813 225.171 53.5951 225.997C55.709 226.822 57.7677 227.505 59.7715 228.033C61.7752 228.562 63.5257 229.002 65.034 229.366L125.408 168.859L53.1657 240.97L71.0178 241.118H71.0234L114.192 197.955L105.175 188.983Z" fill="#9E7C4F"/>
      <path d="M130.364 130.425L121.369 139.43L157.513 175.575C157.161 176.995 156.687 178.536 156.115 180.177C155.542 181.817 154.871 183.413 154.111 184.977C153.363 186.529 152.537 188.015 151.645 189.447C150.753 190.867 149.796 192.089 148.772 193.113C147.219 194.665 145.711 195.645 144.236 196.041C142.771 196.438 141.362 196.482 140.03 196.173C138.698 195.865 137.432 195.26 136.221 194.379C135.021 193.487 133.887 192.518 132.819 191.45L51.7447 110.376C50.7649 109.396 49.741 108.505 48.6731 107.712C49.0254 106.292 49.4988 104.75 50.1043 103.077C50.6988 101.415 51.3814 99.7741 52.1411 98.1778C52.9007 96.5814 53.7154 95.0401 54.6072 93.5758C55.499 92.1005 56.4568 90.8674 57.4807 89.8435C59.033 88.2802 60.5523 87.3114 62.0166 86.904C63.4809 86.5077 64.8901 86.4636 66.2222 86.7719C67.5544 87.0802 68.8205 87.6747 70.0205 88.5664C71.2206 89.4582 72.3546 90.4381 73.4225 91.495L79.4777 97.5502L88.4835 88.5554L81.019 81.091C78.7511 78.823 76.4721 77.1716 74.1821 76.1257C71.8922 75.0798 69.6242 74.5403 67.3782 74.5183C65.1323 74.4963 62.9634 74.9697 60.8826 75.9495C58.7908 76.9294 56.8421 78.3276 55.0146 80.1552C53.4182 81.7626 52.02 83.5901 50.8419 85.6599C49.6639 87.7297 48.6731 89.8105 47.8474 91.9244C47.0216 94.0382 46.339 96.0969 45.8106 98.1007C45.2821 100.093 44.8307 101.855 44.4784 103.363L44.0821 105.092C40.7462 103.716 37.5094 103.44 34.3717 104.255C31.234 105.081 28.3605 106.798 25.7403 109.418C24.1329 111.015 22.7457 112.853 21.5676 114.923C20.3896 116.993 19.3988 119.074 18.5731 121.188C17.7473 123.301 17.0758 125.36 16.5363 127.353C15.9968 129.357 15.5564 131.107 15.2041 132.627L7.53051 127.617L0 135.159L46.6253 181.784L55.6311 172.778L19.4868 136.634C19.8391 135.214 20.3126 133.672 20.8851 132.032C21.4576 130.392 22.1291 128.795 22.8888 127.232C23.6484 125.68 24.4631 124.193 25.3549 122.762C26.2467 121.342 27.1935 120.12 28.2284 119.096C29.7807 117.543 31.3 116.564 32.7643 116.167C34.2286 115.771 35.6378 115.727 36.9699 116.035C38.3021 116.343 39.5682 116.949 40.7682 117.83C41.9683 118.722 43.1023 119.69 44.1702 120.758L125.244 201.832C126.224 202.812 127.248 203.704 128.316 204.497C127.964 205.917 127.49 207.458 126.885 209.132C126.29 210.794 125.608 212.435 124.848 214.031C124.088 215.627 123.274 217.169 122.382 218.633C121.49 220.108 120.532 221.341 119.508 222.365C117.956 223.928 116.437 224.897 114.972 225.305C113.508 225.701 112.099 225.745 110.767 225.437C109.435 225.129 108.158 224.534 106.968 223.642C105.768 222.75 104.634 221.771 103.567 220.714L97.5113 214.658L88.5055 223.653L95.959 231.118C98.2269 233.386 100.506 235.037 102.796 236.083C105.086 237.129 107.354 237.668 109.6 237.69C111.846 237.712 114.015 237.228 116.106 236.259C118.198 235.279 120.147 233.881 121.974 232.054C123.582 230.446 124.969 228.619 126.147 226.549C127.325 224.479 128.327 222.398 129.142 220.284C129.967 218.171 130.65 216.112 131.178 214.108C131.718 212.115 132.158 210.354 132.511 208.845L132.918 207.106C136.254 208.482 139.491 208.757 142.617 207.943C145.755 207.117 148.628 205.399 151.249 202.779C152.856 201.183 154.243 199.344 155.421 197.274C156.599 195.205 157.59 193.124 158.416 191.01C159.242 188.896 159.913 186.837 160.453 184.845C160.981 182.841 161.433 181.09 161.785 179.571L169.458 184.58L177 177.039L130.364 130.425Z" fill="#1C374D"/>
      <path d="M177.321 0.5L62.7981 114.241L71.8039 123.236L107.948 87.0914C109.368 87.4437 110.91 87.9061 112.55 88.4896C114.191 89.0621 115.798 89.7337 117.35 90.4933C118.914 91.242 120.4 92.0677 121.82 92.9595C123.24 93.8512 124.462 94.809 125.486 95.8329C127.039 97.3853 128.018 98.8936 128.415 100.369C128.811 101.833 128.855 103.242 128.547 104.574C128.239 105.907 127.633 107.184 126.741 108.384C125.85 109.584 124.881 110.718 123.813 111.786L92.0724 143.526L101.078 152.521L134.228 119.371C135.208 118.391 136.099 117.368 136.892 116.311C138.312 116.663 139.854 117.136 141.527 117.742C143.19 118.347 144.83 119.019 146.426 119.779C148.034 120.538 149.564 121.353 151.028 122.245C152.493 123.137 153.737 124.083 154.761 125.118C156.313 126.671 157.293 128.19 157.689 129.654C158.085 131.118 158.13 132.517 157.821 133.86C157.513 135.192 156.907 136.469 156.016 137.658C155.124 138.858 154.155 139.992 153.087 141.06L147.021 147.115L156.027 156.11L163.48 148.646C165.748 146.378 167.399 144.099 168.456 141.809C169.502 139.519 170.031 137.251 170.053 135.005C170.075 132.759 169.601 130.601 168.622 128.509C167.642 126.417 166.244 124.458 164.427 122.641C162.82 121.034 160.992 119.647 158.922 118.468C156.852 117.29 154.761 116.289 152.658 115.463C150.544 114.637 148.485 113.966 146.492 113.426C144.489 112.887 142.727 112.446 141.219 112.094L139.479 111.698C140.856 108.362 141.131 105.136 140.316 101.998C139.49 98.8605 137.773 95.9761 135.153 93.3558C133.545 91.7484 131.718 90.3612 129.648 89.1832C127.578 88.0052 125.486 87.0143 123.383 86.1886C121.27 85.3629 119.211 84.6913 117.218 84.1518C115.214 83.6234 113.464 83.183 111.956 82.8197L177.321 18.8078V0.5Z" fill="#9E7C4F"/>
    </g>
  </svg>