
<svg width="1440" height="1196" viewBox="0 0 1440 1196" fill="none" xmlns="http://www.w3.org/2000/svg">
<g clip-path="url(#clip0_29_114)">
<rect width="1440" height="1196" fill="white"/>
<g opacity="0.3">
<path d="M87.7759 340.89L45.1377 383.54L68.1446 406.54L110.783 363.89L87.7759 340.89Z" fill="#9E7C4F"/>
<path d="M3.84536 256.85L-38.79 214.215V214.186L-15.7979 191.194L26.8656 233.83L3.84536 256.85Z" fill="#1C374D"/>
<path d="M3.84395 424.889L-88.5469 517.28C-92.1772 516.379 -96.1171 515.169 -100.31 513.706C-104.503 512.243 -108.612 510.526 -112.58 508.584C-116.576 506.67 -120.376 504.56 -124.006 502.28C-127.636 500.001 -130.76 497.552 -133.377 494.935C-137.345 490.967 -139.85 487.083 -140.863 483.34C-141.876 479.598 -141.989 476.023 -141.201 472.59C-140.413 469.185 -138.865 465.92 -136.586 462.853C-134.306 459.785 -131.83 456.887 -129.1 454.157L-47.9658 373.023L-70.9861 350.003L-155.722 434.739C-158.227 437.244 -160.506 439.861 -162.533 442.562C-166.163 441.662 -170.103 440.452 -174.381 438.904C-178.63 437.384 -182.823 435.639 -186.904 433.698C-191.013 431.756 -194.924 429.673 -198.667 427.394C-202.41 425.114 -205.59 422.666 -208.207 420.049C-212.175 416.081 -214.68 412.197 -215.693 408.454C-216.706 404.711 -216.819 401.109 -216.031 397.704C-215.243 394.299 -213.695 391.034 -211.416 387.995C-209.136 384.927 -206.66 382.029 -203.93 379.299L-188.452 363.821L-211.472 340.8L-230.524 359.881C-236.321 365.678 -240.543 371.503 -243.216 377.357C-245.89 383.211 -247.241 389.008 -247.297 394.749C-247.353 400.49 -246.143 406.006 -243.638 411.353C-241.134 416.7 -237.56 421.709 -232.916 426.353C-228.836 430.461 -224.136 434.007 -218.845 437.018C-213.554 440.03 -208.236 442.591 -202.832 444.701C-197.429 446.784 -192.166 448.529 -187.073 449.908C-181.951 451.258 -177.476 452.412 -173.593 453.313L-169.146 454.326C-172.664 462.853 -173.396 471.099 -171.285 479.119C-169.174 487.14 -164.784 494.485 -158.086 501.183C-153.977 505.291 -149.306 508.837 -144.015 511.849C-138.724 514.86 -133.405 517.393 -128.002 519.503C-122.599 521.614 -117.336 523.359 -112.214 524.71C-107.093 526.06 -102.618 527.186 -98.7624 528.115L55.5645 373.45L-129.1 557.777L-83.4669 558.156H-83.4527L26.8924 447.825L3.84395 424.889Z" fill="#9E7C4F"/>
<path d="M68.2317 275.203L45.2394 298.223L137.63 390.614C136.73 394.244 135.52 398.184 134.056 402.377C132.593 406.571 130.876 410.651 128.934 414.647C127.021 418.615 124.91 422.415 122.63 426.073C120.351 429.703 117.903 432.827 115.285 435.445C111.317 439.413 107.462 441.917 103.691 442.93C99.9478 443.943 96.3457 444.056 92.9405 443.268C89.5353 442.48 86.2989 440.932 83.2032 438.681C80.1357 436.401 77.2371 433.925 74.5073 431.195L-132.732 223.956C-135.236 221.451 -137.854 219.172 -140.583 217.146C-139.683 213.515 -138.473 209.575 -136.925 205.298C-135.405 201.048 -133.66 196.855 -131.719 192.774C-129.777 188.694 -127.694 184.754 -125.415 181.011C-123.135 177.24 -120.687 174.088 -118.07 171.471C-114.102 167.475 -110.218 164.998 -106.475 163.957C-102.732 162.944 -99.13 162.831 -95.7248 163.619C-92.3196 164.407 -89.0832 165.927 -86.0157 168.206C-82.9482 170.486 -80.0495 172.99 -77.3197 175.692L-61.8415 191.17L-38.8213 168.178L-57.9017 149.098C-63.6989 143.3 -69.5244 139.079 -75.3779 136.406C-81.2315 133.732 -87.0289 132.353 -92.7699 132.297C-98.5109 132.241 -104.055 133.451 -109.374 135.955C-114.721 138.46 -119.702 142.034 -124.373 146.706C-128.454 150.814 -132.028 155.486 -135.039 160.777C-138.051 166.068 -140.583 171.386 -142.694 176.79C-144.805 182.193 -146.55 187.456 -147.9 192.577C-149.251 197.671 -150.405 202.174 -151.306 206.029L-152.319 210.448C-160.846 206.93 -169.12 206.226 -177.14 208.309C-185.161 210.42 -192.506 214.81 -199.204 221.508C-203.312 225.588 -206.858 230.288 -209.869 235.579C-212.881 240.869 -215.413 246.188 -217.524 251.592C-219.635 256.995 -221.351 262.257 -222.73 267.351C-224.109 272.473 -225.235 276.948 -226.136 280.831L-245.751 268.027L-265 287.304L-145.818 406.486L-122.798 383.466L-215.188 291.075C-214.288 287.445 -213.078 283.505 -211.614 279.312C-210.151 275.118 -208.434 271.038 -206.492 267.042C-204.551 263.074 -202.468 259.274 -200.189 255.616C-197.909 251.986 -195.489 248.862 -192.843 246.245C-188.875 242.277 -184.992 239.772 -181.249 238.759C-177.506 237.746 -173.904 237.633 -170.499 238.421C-167.093 239.209 -163.857 240.757 -160.789 243.008C-157.722 245.288 -154.823 247.764 -152.094 250.494L55.1455 457.733C57.6501 460.238 60.2674 462.517 62.9972 464.544C62.0966 468.174 60.8865 472.114 59.3387 476.391C57.819 480.641 56.0742 484.834 54.1324 488.915C52.1906 492.995 50.1081 496.935 47.8286 500.678C45.5491 504.449 43.1006 507.601 40.4834 510.218C36.5154 514.214 32.6318 516.691 28.8888 517.732C25.1459 518.745 21.5437 518.858 18.1385 518.07C14.7333 517.282 11.4689 515.762 8.4295 513.483C5.36201 511.203 2.46337 508.699 -0.266421 505.997L-15.7446 490.519L-38.765 513.511L-19.7127 532.591C-13.9154 538.389 -8.08998 542.61 -2.23641 545.284C3.61717 547.957 9.41444 549.336 15.1554 549.392C20.8964 549.449 26.4405 548.21 31.7875 545.734C37.1345 543.229 42.1156 539.655 46.7872 534.983C50.896 530.875 54.4419 526.203 57.4531 520.912C60.4644 515.622 63.0253 510.303 65.1078 504.899C67.2185 499.496 68.9633 494.233 70.3141 489.112C71.6931 484.018 72.8188 479.515 73.7193 475.66L74.7606 471.213C83.2877 474.731 91.5615 475.435 99.5538 473.352C107.574 471.241 114.92 466.851 121.617 460.153C125.726 456.073 129.272 451.373 132.283 446.082C135.294 440.792 137.827 435.473 139.938 430.069C142.049 424.666 143.765 419.403 145.144 414.31C146.495 409.188 147.649 404.713 148.549 400.83L168.165 413.634L187.442 394.357L68.2317 275.203Z" fill="#1C374D"/>
<path d="M187.385 -58L-104.478 233.834L-81.4572 256.827L10.9336 164.436C14.5639 165.336 18.5038 166.518 22.697 168.01C26.8902 169.473 30.999 171.19 34.967 173.132C38.9632 175.045 42.7624 177.156 46.3928 179.436C50.0231 181.715 53.1468 184.163 55.7641 186.781C59.7321 190.749 62.2368 194.604 63.2499 198.375C64.263 202.118 64.3756 205.72 63.5876 209.126C62.7996 212.531 61.2518 215.795 58.9723 218.863C56.6928 221.93 54.2163 224.829 51.4865 227.559L-29.6474 308.693L-6.62711 331.685L78.109 246.949C80.6136 244.444 82.8932 241.827 84.9194 239.125C88.5498 240.026 92.4896 241.236 96.7673 242.784C101.017 244.331 105.21 246.048 109.291 247.99C113.399 249.932 117.311 252.014 121.054 254.294C124.797 256.573 127.977 258.994 130.594 261.639C134.562 265.607 137.067 269.491 138.08 273.233C139.093 276.976 139.206 280.55 138.418 283.984C137.63 287.389 136.082 290.653 133.802 293.693C131.523 296.76 129.046 299.659 126.317 302.389L110.81 317.867L133.831 340.859L152.883 321.779C158.68 315.981 162.901 310.156 165.603 304.302C168.277 298.449 169.627 292.652 169.684 286.911C169.74 281.17 168.53 275.654 166.025 270.307C163.521 264.96 159.947 259.95 155.303 255.307C151.194 251.198 146.523 247.652 141.232 244.641C135.941 241.63 130.594 239.069 125.219 236.958C119.816 234.848 114.553 233.131 109.459 231.752C104.338 230.373 99.8348 229.247 95.9793 228.347L91.5328 227.334C95.0506 218.807 95.7541 210.561 93.6716 202.54C91.5609 194.52 87.1707 187.147 80.4729 180.449C76.3641 176.34 71.6925 172.794 66.4018 169.783C61.1111 166.772 55.7641 164.239 50.389 162.128C44.9857 160.017 39.7231 158.301 34.6293 156.922C29.5075 155.571 25.0329 154.445 21.1774 153.517L187.385 -12.0158V-58Z" fill="#9E7C4F"/>
</g>
<g opacity="0.3">
<path d="M1419.3 681.684L1366.93 734.075L1395.19 762.328L1447.57 709.937L1419.3 681.684Z" fill="#9E7C4F"/>
<path d="M1603.25 865.519L1489.75 979.01C1485.29 977.904 1480.46 976.417 1475.3 974.62C1470.15 972.822 1465.11 970.713 1460.23 968.328C1455.32 965.977 1450.66 963.385 1446.2 960.585C1441.74 957.784 1437.9 954.777 1434.69 951.562C1429.81 946.688 1426.73 941.917 1425.49 937.319C1424.25 932.722 1424.11 928.331 1425.07 924.114C1426.04 919.931 1427.94 915.921 1430.74 912.153C1433.54 908.385 1436.59 904.824 1439.94 901.471L1539.6 801.807L1511.33 773.53L1407.24 877.618C1404.16 880.695 1401.36 883.91 1398.87 887.228C1394.41 886.122 1389.57 884.636 1384.32 882.734C1379.1 880.868 1373.95 878.724 1368.93 876.339C1363.89 873.954 1359.08 871.396 1354.48 868.595C1349.89 865.795 1345.98 862.788 1342.77 859.573C1337.89 854.699 1334.81 849.928 1333.57 845.33C1332.33 840.733 1332.19 836.308 1333.16 832.125C1334.12 827.942 1336.02 823.932 1338.82 820.198C1341.62 816.43 1344.67 812.87 1348.02 809.516L1367.03 790.503L1338.76 762.225L1315.35 785.663C1308.23 792.785 1303.05 799.941 1299.76 807.131C1296.48 814.321 1294.82 821.443 1294.75 828.495C1294.68 835.547 1296.17 842.323 1299.24 848.891C1302.32 855.459 1306.71 861.612 1312.41 867.316C1317.43 872.363 1323.2 876.719 1329.7 880.418C1336.2 884.117 1342.73 887.263 1349.37 889.856C1356.01 892.414 1362.47 894.557 1368.73 896.251C1375.02 897.91 1380.52 899.328 1385.29 900.434L1390.75 901.678C1386.43 912.153 1385.53 922.282 1388.12 932.134C1390.71 941.986 1396.11 951.009 1404.33 959.236C1409.38 964.283 1415.12 968.639 1421.62 972.338C1428.12 976.037 1434.65 979.148 1441.29 981.741C1447.93 984.334 1454.39 986.477 1460.68 988.136C1466.97 989.796 1472.47 991.178 1477.21 992.319L1666.78 802.332L1439.94 1028.76L1495.99 1029.22H1496.01L1631.56 893.693L1603.25 865.519Z" fill="#9E7C4F"/>
<path d="M1682.34 681.646L1654.09 709.923L1767.58 823.414C1766.48 827.874 1764.99 832.714 1763.19 837.865C1761.4 843.015 1759.29 848.028 1756.9 852.937C1754.55 857.811 1751.96 862.478 1749.16 866.972C1746.36 871.431 1743.35 875.269 1740.14 878.484C1735.26 883.358 1730.53 886.434 1725.89 887.679C1721.3 888.923 1716.87 889.062 1712.69 888.094C1708.51 887.126 1704.53 885.225 1700.73 882.459C1696.96 879.659 1693.4 876.617 1690.04 873.264L1435.48 618.695C1432.4 615.618 1429.18 612.818 1425.83 610.329C1426.94 605.869 1428.42 601.03 1430.33 595.775C1432.19 590.555 1434.34 585.404 1436.72 580.392C1439.11 575.379 1441.66 570.54 1444.46 565.942C1447.26 561.309 1450.27 557.438 1453.49 554.223C1458.36 549.314 1463.13 546.272 1467.73 544.993C1472.33 543.748 1476.75 543.61 1480.93 544.578C1485.12 545.546 1489.09 547.413 1492.86 550.213C1496.63 553.013 1500.19 556.089 1503.54 559.408L1522.56 578.421L1550.83 550.178L1527.4 526.74C1520.27 519.619 1513.12 514.433 1505.93 511.149C1498.74 507.865 1491.62 506.171 1484.56 506.102C1477.51 506.033 1470.7 507.52 1464.17 510.596C1457.6 513.673 1451.48 518.063 1445.74 523.802C1440.73 528.849 1436.34 534.587 1432.64 541.086C1428.94 547.585 1425.83 554.119 1423.24 560.756C1420.65 567.394 1418.5 573.858 1416.84 580.15C1415.18 586.407 1413.77 591.938 1412.66 596.674L1411.42 602.101C1400.94 597.78 1390.78 596.916 1380.93 599.474C1371.07 602.067 1362.05 607.46 1353.82 615.687C1348.78 620.7 1344.42 626.473 1340.72 632.972C1337.02 639.471 1333.91 646.004 1331.32 652.642C1328.73 659.279 1326.62 665.744 1324.92 672.001C1323.23 678.292 1321.85 683.789 1320.74 688.559L1296.65 672.83L1273 696.51L1419.4 842.912L1447.68 814.634L1334.19 701.143C1335.29 696.683 1336.78 691.843 1338.58 686.693C1340.38 681.542 1342.48 676.529 1344.87 671.62C1347.25 666.746 1349.81 662.079 1352.61 657.585C1355.41 653.126 1358.39 649.289 1361.64 646.074C1366.51 641.199 1371.28 638.123 1375.88 636.878C1380.48 635.634 1384.9 635.495 1389.08 636.463C1393.27 637.431 1397.24 639.333 1401.01 642.098C1404.78 644.898 1408.34 647.94 1411.69 651.294L1666.26 905.862C1669.34 908.939 1672.55 911.739 1675.91 914.228C1674.8 918.688 1673.31 923.527 1671.41 928.782C1669.55 934.002 1667.4 939.153 1665.02 944.165C1662.63 949.178 1660.07 954.018 1657.27 958.615C1654.47 963.248 1651.47 967.119 1648.25 970.334C1643.38 975.243 1638.61 978.285 1634.01 979.564C1629.41 980.809 1624.99 980.947 1620.8 979.979C1616.62 979.011 1612.61 977.144 1608.88 974.344C1605.11 971.544 1601.55 968.468 1598.19 965.149L1579.18 946.136L1550.9 974.379L1574.31 997.817C1581.43 1004.94 1588.58 1010.12 1595.77 1013.41C1602.96 1016.69 1610.09 1018.39 1617.14 1018.45C1624.19 1018.52 1631 1017 1637.57 1013.96C1644.14 1010.88 1650.26 1006.49 1655.99 1000.76C1661.04 995.708 1665.4 989.97 1669.1 983.471C1672.79 976.972 1675.94 970.438 1678.5 963.801C1681.09 957.163 1683.23 950.699 1684.89 944.407C1686.59 938.15 1687.97 932.619 1689.08 927.883L1690.36 922.421C1700.83 926.742 1710.99 927.607 1720.81 925.048C1730.66 922.456 1739.69 917.063 1747.91 908.835C1752.96 903.823 1757.32 898.05 1761.02 891.551C1764.71 885.052 1767.83 878.518 1770.42 871.881C1773.01 865.243 1775.12 858.779 1776.81 852.522C1778.47 846.23 1779.89 840.734 1781 835.963L1805.09 851.692L1828.77 828.012L1682.34 681.646Z" fill="#1C374D"/>
</g>
</g>
<defs>
<clipPath id="clip0_29_114">
<rect width="1440" height="1196" fill="white"/>
</clipPath>
</defs>
</svg>
