<svg xmlns="http://www.w3.org/2000/svg" width="20" height="20" viewBox="0 0 20 20" fill="none">
    <g clip-path="url(#clip0_5_46700)">
      <path fill-rule="evenodd" clip-rule="evenodd" d="M4.30305 9.99933C4.30305 9.36421 4.40853 8.75533 4.5968 8.18421L1.30145 5.66777C0.65921 6.97177 0.297363 8.4411 0.297363 9.99933C0.297363 11.5562 0.658765 13.0247 1.30012 14.3278L4.59368 11.8064C4.40719 11.238 4.30305 10.6313 4.30305 9.99933Z" fill="#FBBC05"/>
      <path fill-rule="evenodd" clip-rule="evenodd" d="M10.0891 4.22154C11.4688 4.22154 12.715 4.71043 13.6942 5.51043L16.5427 2.66599C14.8069 1.15488 12.5815 0.221542 10.0891 0.221542C6.2196 0.221542 2.89399 2.43443 1.30151 5.66776L4.59685 8.18421C5.35615 5.87932 7.52056 4.22154 10.0891 4.22154Z" fill="#EB4335"/>
      <path fill-rule="evenodd" clip-rule="evenodd" d="M10.0891 15.7771C7.52056 15.7771 5.35615 14.1193 4.59685 11.8144L1.30151 14.3304C2.89399 17.5642 6.2196 19.7771 10.0891 19.7771C12.4774 19.7771 14.7575 18.9291 16.4688 17.3402L13.3408 14.922C12.4582 15.478 11.3469 15.7771 10.0891 15.7771Z" fill="#34A853"/>
      <path fill-rule="evenodd" clip-rule="evenodd" d="M19.4357 9.99932C19.4357 9.42154 19.3467 8.79932 19.2132 8.22154H10.0891V11.9993H15.341C15.0784 13.2873 14.3636 14.2775 13.3408 14.922L16.4688 17.3402C18.2665 15.6718 19.4357 13.1864 19.4357 9.99932Z" fill="#4285F4"/>
    </g>
    <defs>
      <clipPath id="clip0_5_46700">
        <rect width="20" height="20" fill="white" transform="translate(0 -0.000671387)"/>
      </clipPath>
    </defs>
  </svg>