<svg width="281" height="142" viewBox="0 0 281 142" fill="none" xmlns="http://www.w3.org/2000/svg">
<mask id="mask0_125_6135" style="mask-type:alpha" maskUnits="userSpaceOnUse" x="0" y="0" width="281" height="142">
<rect width="281" height="141.995" fill="#D9D9D9"/>
</mask>
<g mask="url(#mask0_125_6135)">
<mask id="mask1_125_6135" style="mask-type:luminance" maskUnits="userSpaceOnUse" x="-82" y="-96" width="507" height="507">
<path d="M215.254 -95.3822L-81.2988 201.254L128.446 410.94L424.998 114.303L215.254 -95.3822Z" fill="white"/>
</mask>
<g mask="url(#mask1_125_6135)">
<path d="M262.387 71.3601L254.838 78.9109L258.911 82.9829L266.46 75.432L262.387 71.3601Z" fill="#9E7C4F"/>
</g>
<mask id="mask2_125_6135" style="mask-type:luminance" maskUnits="userSpaceOnUse" x="-69" y="-77" width="420" height="297">
<path d="M350.501 -76.9778H-68.9512V219.607H350.501V-76.9778Z" fill="white"/>
</mask>
<g mask="url(#mask2_125_6135)">
<path d="M247.428 56.4377L239.875 48.8895V48.8846L243.951 44.814L251.499 52.3672L247.428 56.4377Z" fill="#1C374D"/>
</g>
<mask id="mask3_125_6135" style="mask-type:luminance" maskUnits="userSpaceOnUse" x="-86" y="-129" width="508" height="508">
<path d="M211.354 -128.045L-85.1982 168.592L124.546 378.277L421.099 81.6404L211.354 -128.045Z" fill="white"/>
</mask>
<g mask="url(#mask3_125_6135)">
<path d="M221.016 59.7386L213.468 67.2895L217.541 71.3614L225.09 63.8106L221.016 59.7386Z" fill="#9E7C4F"/>
</g>
<mask id="mask4_125_6135" style="mask-type:luminance" maskUnits="userSpaceOnUse" x="-69" y="-77" width="420" height="297">
<path d="M350.501 -76.9778H-68.9512V219.607H350.501V-76.9778Z" fill="white"/>
</mask>
<g mask="url(#mask4_125_6135)">
<path d="M232.326 86.1869L239.874 93.74L235.804 97.8155L228.251 90.2624L232.326 86.1869Z" fill="#1C374D"/>
</g>
<mask id="mask5_125_6135" style="mask-type:luminance" maskUnits="userSpaceOnUse" x="-69" y="-77" width="420" height="297">
<path d="M350.501 -76.9778H-68.9512V219.607H350.501V-76.9778Z" fill="white"/>
</mask>
<g mask="url(#mask5_125_6135)">
<mask id="mask6_125_6135" style="mask-type:luminance" maskUnits="userSpaceOnUse" x="-69" y="-77" width="420" height="297">
<path d="M350.5 -76.9778H-68.9521V219.607H350.5V-76.9778Z" fill="white"/>
</mask>
<g mask="url(#mask6_125_6135)">
<path d="M247.428 86.1868L231.071 102.544C230.428 102.384 229.731 102.17 228.988 101.911C228.246 101.652 227.518 101.348 226.816 101.004C226.108 100.665 225.436 100.292 224.793 99.888C224.151 99.4845 223.597 99.051 223.134 98.5877C222.432 97.8852 221.988 97.1976 221.809 96.535C221.629 95.8723 221.609 95.2346 221.749 94.6318C221.888 94.0289 222.163 93.451 222.566 92.9129C222.97 92.3698 223.408 91.8566 223.891 91.3733L238.255 77.0095L234.18 72.934L219.183 87.9356C218.74 88.379 218.336 88.8424 217.977 89.3207C217.335 89.1612 216.637 88.947 215.88 88.673C215.128 88.4039 214.385 88.095 213.663 87.7512C212.935 87.4075 212.243 87.0388 211.58 86.6352C210.918 86.2317 210.355 85.7982 209.891 85.3348C209.189 84.6323 208.745 83.9448 208.566 83.2821C208.386 82.6195 208.366 81.9818 208.506 81.3789C208.646 80.7761 208.92 80.1981 209.323 79.66C209.727 79.122 210.165 78.6038 210.649 78.1205L213.389 75.3803L209.313 71.3048L205.94 74.6827C204.914 75.7091 204.167 76.7404 203.693 77.7767C203.22 78.813 202.976 79.8394 202.971 80.8558C202.961 81.8722 203.175 82.8487 203.619 83.7953C204.062 84.742 204.695 85.6288 205.517 86.4509C206.244 87.1783 207.071 87.806 208.008 88.3391C208.944 88.8722 209.886 89.3256 210.843 89.6993C211.799 90.068 212.731 90.3769 213.633 90.621C214.54 90.8602 215.332 91.0645 216.014 91.2239L216.802 91.4032C216.179 92.9129 216.054 94.3727 216.423 95.7926C216.797 97.2126 217.574 98.5129 218.76 99.6987C219.487 100.426 220.314 101.054 221.251 101.587C222.187 102.12 223.129 102.569 224.086 102.942C225.042 103.316 225.974 103.625 226.876 103.864C227.777 104.103 228.575 104.302 229.257 104.467L199.832 133.772V141.918L251.503 90.2523L247.428 86.1868Z" fill="#9E7C4F"/>
</g>
<mask id="mask7_125_6135" style="mask-type:luminance" maskUnits="userSpaceOnUse" x="-69" y="-77" width="420" height="297">
<path d="M350.5 -76.9778H-68.9521V219.607H350.5V-76.9778Z" fill="white"/>
</mask>
<g mask="url(#mask7_125_6135)">
<path d="M258.822 59.691L254.752 63.7665L271.108 80.1233C270.949 80.766 270.735 81.4635 270.476 82.2059C270.217 82.9482 269.912 83.6706 269.569 84.3781C269.225 85.0806 268.856 85.7532 268.453 86.4009C268.049 87.0436 267.621 87.5967 267.152 88.06C266.45 88.7625 265.762 89.2059 265.1 89.3853C264.437 89.5647 263.799 89.5846 263.196 89.4451C262.594 89.3056 262.021 89.0316 261.478 88.633C260.935 88.2294 260.421 87.791 259.938 87.3077L223.249 50.6183C222.805 50.1748 222.342 49.7713 221.859 49.4126C222.018 48.7698 222.232 48.0723 222.506 47.315C222.775 46.5627 223.084 45.8203 223.428 45.0979C223.772 44.3755 224.141 43.678 224.544 43.0153C224.948 42.3477 225.381 41.7897 225.839 41.3263C226.542 40.6188 227.229 40.1804 227.892 39.9961C228.555 39.8167 229.192 39.7968 229.795 39.9363C230.398 40.0758 230.976 40.3448 231.519 40.7484C232.062 41.1519 232.575 41.5954 233.059 42.0737L235.799 44.8139L239.874 40.7434L236.496 37.3654C235.47 36.3391 234.439 35.5917 233.403 35.1184C232.366 34.6451 231.34 34.401 230.323 34.391C229.307 34.381 228.326 34.6003 227.384 35.0387C226.437 35.4821 225.55 36.1149 224.728 36.9419C224.001 37.6693 223.373 38.4964 222.84 39.4331C222.307 40.3697 221.854 41.3114 221.485 42.268C221.111 43.2246 220.802 44.1563 220.563 45.063C220.324 45.9648 220.12 46.762 219.96 47.4446L219.776 48.2268C218.266 47.604 216.802 47.4794 215.387 47.8481C213.967 48.2218 212.666 48.999 211.481 50.1848C210.753 50.9072 210.125 51.7393 209.592 52.6759C209.059 53.6126 208.611 54.5543 208.237 55.5109C207.863 56.4675 207.56 57.3991 207.315 58.3009C207.071 59.2077 206.872 59.9999 206.713 60.6874L203.24 58.4205L199.832 61.8333L220.932 82.9333L225.007 78.8578L208.651 62.501C208.815 61.8583 209.024 61.1607 209.283 60.4184C209.542 59.676 209.846 58.9536 210.19 58.2461C210.534 57.5436 210.903 56.871 211.306 56.2233C211.71 55.5806 212.138 55.0276 212.606 54.5642C213.309 53.8617 213.997 53.4183 214.659 53.2389C215.322 53.0596 215.96 53.0396 216.563 53.1791C217.165 53.3186 217.738 53.5927 218.286 53.9913C218.829 54.3948 219.343 54.8333 219.826 55.3165L256.515 92.006C256.959 92.4494 257.422 92.853 257.9 93.2117C257.741 93.8544 257.527 94.5519 257.253 95.3092C256.984 96.0615 256.675 96.8039 256.331 97.5263C255.987 98.2488 255.618 98.9463 255.215 99.6089C254.811 100.277 254.378 100.835 253.92 101.298C253.217 102 252.529 102.444 251.867 102.628C251.204 102.808 250.566 102.827 249.963 102.688C249.361 102.548 248.783 102.279 248.245 101.876C247.702 101.472 247.189 101.029 246.705 100.551L243.965 97.8103L239.889 101.886L243.262 105.264C244.289 106.29 245.32 107.037 246.356 107.511C247.393 107.984 248.419 108.228 249.436 108.238C250.452 108.248 251.433 108.034 252.38 107.591C253.327 107.147 254.208 106.514 255.035 105.687C255.763 104.96 256.391 104.133 256.924 103.196C257.457 102.259 257.91 101.318 258.279 100.361C258.653 99.4047 258.961 98.473 259.201 97.5662C259.445 96.6644 259.644 95.8672 259.803 95.1847L259.988 94.4025C261.497 95.0252 262.962 95.1498 264.377 94.7811C265.797 94.4074 267.097 93.6302 268.283 92.4444C269.011 91.722 269.638 90.8899 270.172 89.9533C270.705 89.0166 271.153 88.075 271.527 87.1184C271.901 86.1618 272.204 85.2301 272.449 84.3283C272.688 83.4215 272.892 82.6293 273.051 81.9418L276.524 84.2087L279.932 80.7959L258.822 59.691Z" fill="#1C374D"/>
</g>
<mask id="mask8_125_6135" style="mask-type:luminance" maskUnits="userSpaceOnUse" x="-69" y="-77" width="420" height="297">
<path d="M350.5 -76.9778H-68.9521V219.607H350.5V-76.9778Z" fill="white"/>
</mask>
<g mask="url(#mask8_125_6135)">
<path d="M279.921 0.700958L228.25 52.3671L232.325 56.4376L248.682 40.0808C249.325 40.2402 250.022 40.4495 250.765 40.7136C251.507 40.9726 252.235 41.2766 252.937 41.6203C253.645 41.9591 254.317 42.3328 254.96 42.7364C255.603 43.1399 256.156 43.5734 256.619 44.0367C257.322 44.7392 257.765 45.4218 257.949 46.0894C258.129 46.7521 258.149 47.3898 258.009 47.9927C257.87 48.5955 257.595 49.1735 257.192 49.7165C256.788 50.2596 256.35 50.7728 255.867 51.2561L241.503 65.6199L245.578 69.6905L260.58 54.6888C261.023 54.2454 261.427 53.7821 261.791 53.3038C262.433 53.4632 263.131 53.6774 263.888 53.9515C264.64 54.2255 265.383 54.5294 266.105 54.8732C266.833 55.217 267.525 55.5856 268.188 55.9892C268.85 56.3928 269.414 56.8212 269.882 57.2896C270.584 57.9921 271.028 58.6796 271.207 59.3423C271.386 60.0049 271.406 60.6377 271.267 61.2455C271.127 61.8484 270.853 62.4263 270.45 62.9644C270.046 63.5075 269.608 64.0206 269.125 64.5039L266.384 67.2442L270.46 71.3147L273.833 67.9367C274.859 66.9103 275.606 65.879 276.085 64.8427C276.558 63.8064 276.797 62.78 276.807 61.7637C276.817 60.7473 276.603 59.7708 276.159 58.8241C275.716 57.8775 275.083 56.9906 274.261 56.1686C273.539 55.4412 272.707 54.8134 271.77 54.2803C270.833 53.7472 269.887 53.2938 268.935 52.9201C267.978 52.5465 267.047 52.2425 266.145 51.9984C265.238 51.7543 264.441 51.555 263.764 51.3956L262.976 51.2162C263.599 49.7066 263.724 48.2468 263.355 46.8268C262.981 45.4069 262.204 44.1015 261.018 42.9157C260.291 42.1883 259.464 41.5606 258.527 41.0275C257.591 40.4944 256.649 40.0459 255.692 39.6723C254.736 39.2986 253.804 38.9947 252.902 38.7506C252 38.5114 251.203 38.3121 250.521 38.1477L279.946 8.84199V0.700958H279.921Z" fill="#9E7C4F"/>
</g>
<mask id="mask9_125_6135" style="mask-type:luminance" maskUnits="userSpaceOnUse" x="-69" y="-77" width="420" height="297">
<path d="M350.5 -76.9778H-68.9521V219.607H350.5V-76.9778Z" fill="white"/>
</mask>
<g mask="url(#mask9_125_6135)">
<path d="M29.5582 95.2296C29.2942 94.4873 28.8606 93.8744 28.2528 93.3862C27.645 92.8979 26.843 92.5392 25.8565 92.31C24.8651 92.0808 23.6394 91.9662 22.1846 91.9662H17.3867C16.9233 91.9662 16.4947 91.9363 16.1061 91.8716C15.4982 91.8118 14.4869 91.742 14.163 90.7207C14.1581 90.7107 14.1531 90.7007 14.1531 90.6908C14.0933 90.4865 14.0485 90.2573 14.0485 89.9634C14.0584 88.942 14.6014 87.8658 15.0697 87.1235C15.0697 87.1185 15.0748 87.1185 15.0748 87.1135C15.4236 86.5605 16.435 85.4444 16.435 85.4444H14.761C14.4123 85.7683 12.7731 87.4971 12.4144 87.9007C12.0557 88.3043 11.7266 88.7178 11.4376 89.1413C11.1437 89.5648 10.9046 90.0082 10.7202 90.4616C10.5359 90.92 10.4412 91.3634 10.4412 91.8018C10.4412 93.3015 11.0241 94.3826 12.185 95.0503C13.3508 95.7129 15.2144 96.0567 17.7803 96.0766L21.3375 96.1065C23.0564 96.1065 24.2722 96.3706 24.9946 96.9037C25.7121 97.4368 26.0706 98.2588 26.0706 99.3699C26.0706 100.307 25.9311 101.159 25.6471 101.931C25.3631 102.703 24.9397 103.306 24.3767 103.739C23.4849 104.372 22.4236 104.825 21.193 105.109C19.9623 105.393 18.5973 105.533 17.0977 105.533C15.5731 105.533 14.3574 105.184 13.4456 104.487C12.5339 103.789 12.0755 102.857 12.0755 101.682C12.0755 101.074 12.1304 100.506 12.24 99.9877C12.3496 99.4646 12.5239 98.9016 12.763 98.2887L11.6571 97.8951C11.3282 98.2638 11.0142 98.6524 10.7102 99.056C10.4063 99.4596 10.1325 99.888 9.89333 100.346C9.65418 100.805 9.45979 101.283 9.30534 101.781C9.15587 102.28 9.07617 102.813 9.07617 103.381C9.07617 104.033 9.20573 104.656 9.46979 105.239C9.72887 105.827 10.1474 106.345 10.7253 106.788C11.2983 107.232 12.0555 107.586 12.9922 107.85C13.9288 108.109 15.0697 108.243 16.4199 108.243C18.3779 108.243 20.1816 107.934 21.8357 107.312C23.4898 106.694 24.9199 105.892 26.1256 104.915C27.3313 103.939 28.2729 102.828 28.9505 101.587C29.6231 100.346 29.9618 99.1058 29.9618 97.8652C29.9469 96.8489 29.8173 95.967 29.5582 95.2296Z" fill="#1C374D"/>
</g>
<mask id="mask10_125_6135" style="mask-type:luminance" maskUnits="userSpaceOnUse" x="-69" y="-77" width="420" height="297">
<path d="M350.5 -76.9778H-68.9521V219.607H350.5V-76.9778Z" fill="white"/>
</mask>
<g mask="url(#mask10_125_6135)">
<path d="M6.02536 108.248V75.8385H1.62598V103.849L6.02536 108.248Z" fill="#1C374D"/>
</g>
<mask id="mask11_125_6135" style="mask-type:luminance" maskUnits="userSpaceOnUse" x="-69" y="-77" width="420" height="297">
<path d="M350.5 -76.9778H-68.9521V219.607H350.5V-76.9778Z" fill="white"/>
</mask>
<g mask="url(#mask11_125_6135)">
<path d="M108.954 85.4493V100.974C108.954 101.497 108.994 102.01 109.069 102.524C109.143 103.032 109.308 103.49 109.557 103.894C109.806 104.297 110.16 104.626 110.618 104.89C111.076 105.149 111.684 105.284 112.442 105.284C112.945 105.284 113.478 105.219 114.041 105.089C114.609 104.96 115.172 104.795 115.735 104.601C116.298 104.407 116.856 104.178 117.399 103.919C117.942 103.66 118.43 103.395 118.869 103.136V85.4593H123.273V108.258H119.586L118.933 105.159C118.475 105.443 117.937 105.762 117.319 106.121C116.701 106.479 116.029 106.818 115.311 107.132C114.594 107.446 113.837 107.715 113.045 107.934C112.252 108.149 111.46 108.258 110.678 108.258C109.398 108.258 108.272 107.974 107.305 107.411C106.338 106.843 105.616 105.986 105.138 104.835L104.614 105.159C104.161 105.443 103.618 105.762 103 106.121C102.382 106.479 101.715 106.818 100.992 107.132C100.275 107.446 99.5175 107.715 98.7254 107.934C97.9332 108.149 97.141 108.258 96.3588 108.258C95.467 108.258 94.6449 108.124 93.8976 107.85C93.1453 107.576 92.5026 107.167 91.9545 106.609C91.4115 106.056 90.9878 105.368 90.6839 104.556C90.38 103.739 90.2256 102.778 90.2256 101.667V85.4543H94.625V100.979C94.625 101.502 94.6648 102.015 94.7396 102.529C94.8143 103.037 94.9787 103.495 95.2278 103.899C95.4769 104.302 95.8306 104.631 96.289 104.895C96.7473 105.154 97.3553 105.289 98.1126 105.289C98.6158 105.289 99.149 105.219 99.7269 105.079C100.305 104.94 100.878 104.766 101.456 104.556C102.034 104.347 102.597 104.118 103.15 103.854C103.708 103.595 104.201 103.331 104.634 103.072C104.57 102.613 104.54 102.145 104.54 101.667V85.4543H108.954V85.4493Z" fill="#1C374D"/>
</g>
<mask id="mask12_125_6135" style="mask-type:luminance" maskUnits="userSpaceOnUse" x="-69" y="-77" width="420" height="297">
<path d="M350.5 -76.9778H-68.9521V219.607H350.5V-76.9778Z" fill="white"/>
</mask>
<g mask="url(#mask12_125_6135)">
<path d="M32.985 87.7913L30.5488 87.572V86.3365L36.2784 81.6531H37.1304L37.225 85.4496H43.1439L42.86 87.3777C42.3319 87.4425 41.7488 87.5023 41.1011 87.5521C40.4584 87.6069 39.8506 87.6518 39.2826 87.6966C38.6051 87.7614 37.9325 87.8012 37.2549 87.8212V102.643C37.2549 103.426 37.3994 104.073 37.6834 104.591C37.9673 105.11 38.5852 105.364 39.5369 105.364C40.0451 105.364 40.6578 105.354 41.3753 105.334C42.0927 105.314 42.7454 105.279 43.3383 105.239V106.729C43.0244 106.878 42.6157 107.033 42.1175 107.202C41.6193 107.372 41.0762 107.536 40.4883 107.69C39.8954 107.85 39.3075 107.979 38.7146 108.089C38.1267 108.194 37.5787 108.248 37.0705 108.248C36.6072 108.248 36.129 108.189 35.6457 108.074C35.1574 107.96 34.7239 107.74 34.3303 107.426C33.9417 107.108 33.6179 106.664 33.3638 106.081C33.1097 105.503 32.985 104.746 32.985 103.819V87.7913Z" fill="#1C374D"/>
</g>
<mask id="mask13_125_6135" style="mask-type:luminance" maskUnits="userSpaceOnUse" x="-69" y="-77" width="420" height="297">
<path d="M350.5 -76.9778H-68.9521V219.607H350.5V-76.9778Z" fill="white"/>
</mask>
<g mask="url(#mask13_125_6135)">
<path d="M56.243 85.4493C57.1946 85.4493 58.1212 85.5888 59.028 85.8579C59.9347 86.1319 60.7619 86.5903 61.5142 87.233C62.2616 87.8757 62.9192 88.7326 63.4772 89.7989C64.0352 90.8651 64.4539 92.1903 64.7279 93.7697V94.0238C64.5386 94.258 64.2795 94.4672 63.9506 94.6566C63.6218 94.8459 63.1932 95.0153 62.67 95.1648C62.1419 95.3142 61.4944 95.4438 60.7221 95.5584C59.9549 95.6729 59.0281 95.7626 57.952 95.8274L50.9269 96.3007V97.6609C50.9269 100.217 51.3803 102.334 52.2871 103.495C53.1938 104.656 54.5638 105.239 56.4023 105.239C57.1646 105.239 57.947 105.164 58.7591 105.015C59.5713 104.865 60.3484 104.686 61.0858 104.477C61.8232 104.267 62.4958 104.048 63.0987 103.829C63.7015 103.605 64.1697 103.415 64.5085 103.241L65.0466 104.477C64.4338 104.875 63.7513 105.299 62.989 105.742C62.2317 106.186 61.4096 106.589 60.5377 106.963C59.6608 107.331 58.744 107.64 57.7824 107.88C56.8208 108.124 55.8344 108.243 54.823 108.243C53.6222 108.243 52.5063 108.054 51.485 107.675C50.4586 107.297 49.5717 106.684 48.8094 105.842C48.0472 105 47.4543 103.894 47.0209 102.534C46.5874 101.173 46.373 99.5242 46.373 97.5812C46.373 95.4089 46.6273 93.2964 47.1355 91.7768C47.6387 90.2572 48.3362 89.0366 49.223 88.1049C50.1099 87.1782 51.1512 86.5006 52.3569 86.0771C53.5526 85.6586 54.8529 85.4493 56.243 85.4493ZM52.6656 88.5832C52.4314 88.7526 52.2173 89.0216 52.018 89.3903C51.8187 89.759 51.6444 90.2024 51.495 90.7206C51.3455 91.2387 51.2259 91.8017 51.1313 92.4145C51.0366 93.0274 50.9868 93.6501 50.9868 94.2829L60.0395 93.9043C59.9349 93.1868 59.7805 92.4644 59.5812 91.737C59.3819 91.0096 59.1079 90.3619 58.7591 89.7889C58.4104 89.2209 57.9719 88.7576 57.4438 88.3939C56.9156 88.0351 56.2729 87.8558 55.5156 87.8558C55.0074 87.8558 54.5091 87.9106 54.0109 88.0152C53.5177 88.1198 53.0692 88.3092 52.6656 88.5832Z" fill="#1C374D"/>
</g>
<mask id="mask14_125_6135" style="mask-type:luminance" maskUnits="userSpaceOnUse" x="-69" y="-77" width="420" height="297">
<path d="M350.5 -76.9778H-68.9521V219.607H350.5V-76.9778Z" fill="white"/>
</mask>
<g mask="url(#mask14_125_6135)">
<path d="M144.763 105.588C145.331 105.588 146.083 105.463 147.01 105.209V106.569C146.332 106.928 145.595 107.277 144.798 107.615C143.996 107.954 143.149 108.124 142.267 108.124C141.759 108.124 141.325 108.044 140.971 107.884C140.613 107.725 140.314 107.516 140.085 107.252C139.85 106.988 139.661 106.699 139.516 106.38C139.367 106.066 139.242 105.747 139.138 105.428C138.59 105.787 138.062 106.136 137.554 106.474C137.045 106.813 136.512 107.112 135.954 107.376C135.396 107.64 134.798 107.85 134.165 108.009C133.533 108.168 132.825 108.248 132.043 108.248C130.269 108.248 128.874 107.76 127.848 106.778C126.822 105.797 126.313 104.312 126.313 102.329C126.313 101.273 126.468 100.351 126.772 99.559C127.076 98.7669 127.569 98.1042 128.242 97.5661C128.919 97.0281 129.791 96.6195 130.867 96.3455C131.944 96.0715 133.264 95.912 134.823 95.8722L138.714 95.7476V91.6522C138.714 90.4515 138.47 89.5696 137.987 89.0116C137.499 88.4536 136.687 88.1746 135.551 88.1746C134.729 88.1746 133.727 88.329 132.541 88.6329C131.361 88.9368 130.2 89.3354 129.059 89.8187L128.301 87.7909C128.974 87.5169 129.691 87.2379 130.439 86.9539C131.186 86.6699 131.953 86.4158 132.731 86.1966C133.508 85.9724 134.305 85.798 135.107 85.6585C135.909 85.524 136.702 85.4542 137.479 85.4542C138.346 85.4542 139.118 85.5489 139.806 85.7382C140.493 85.9276 141.071 86.2514 141.549 86.7048C142.023 87.1582 142.381 87.761 142.625 88.5084C142.869 89.2557 142.989 90.1824 142.989 91.2785V101.886C142.989 104.352 143.582 105.588 144.763 105.588ZM138.844 103.973C138.844 103.869 138.824 103.261 138.779 102.155C138.739 101.049 138.714 99.4793 138.714 97.4565C136.418 97.4565 134.674 97.606 133.493 97.9C132.312 98.1939 131.585 98.4928 131.311 98.7868C131.056 99.0608 130.872 99.4494 130.758 99.9576C130.643 100.466 130.583 101.054 130.583 101.731C130.583 102.937 130.788 103.859 131.201 104.501C131.615 105.144 132.302 105.468 133.274 105.468C134.31 105.468 135.257 105.353 136.124 105.119C136.985 104.88 137.897 104.501 138.844 103.973Z" fill="#1C374D"/>
</g>
<mask id="mask15_125_6135" style="mask-type:luminance" maskUnits="userSpaceOnUse" x="-69" y="-77" width="420" height="297">
<path d="M350.5 -76.9778H-68.9521V219.607H350.5V-76.9778Z" fill="white"/>
</mask>
<g mask="url(#mask15_125_6135)">
<path d="M150.049 87.7913L147.612 87.572V86.3365L153.342 81.6531H154.194L154.288 85.4496H160.207L159.923 87.3777C159.395 87.4425 158.812 87.5023 158.165 87.5521C157.522 87.6069 156.914 87.6518 156.346 87.6966C155.669 87.7614 154.996 87.8012 154.318 87.8212V102.643C154.318 103.426 154.463 104.073 154.747 104.591C155.031 105.11 155.649 105.364 156.6 105.364C157.109 105.364 157.721 105.354 158.439 105.334C159.156 105.314 159.809 105.279 160.402 105.239V106.729C160.088 106.878 159.679 107.033 159.181 107.202C158.683 107.372 158.14 107.536 157.552 107.69C156.959 107.85 156.371 107.979 155.778 108.089C155.19 108.194 154.642 108.248 154.134 108.248C153.671 108.248 153.192 108.189 152.709 108.074C152.221 107.96 151.787 107.74 151.394 107.426C151.005 107.108 150.681 106.664 150.427 106.081C150.173 105.503 150.049 104.746 150.049 103.819V87.7913Z" fill="#1C374D"/>
</g>
<mask id="mask16_125_6135" style="mask-type:luminance" maskUnits="userSpaceOnUse" x="-69" y="-77" width="420" height="297">
<path d="M350.5 -76.9778H-68.9521V219.607H350.5V-76.9778Z" fill="white"/>
</mask>
<g mask="url(#mask16_125_6135)">
<path d="M85.4093 87.0436C84.8513 86.5055 84.1837 86.1069 83.4164 85.8429C82.6491 85.5788 81.7972 85.4493 80.8705 85.4493C80.0484 85.4493 79.2314 85.5539 78.4193 85.7632C77.6072 85.9724 76.8249 86.2315 76.0775 86.5404C75.3302 86.8443 74.6327 87.1731 73.99 87.5219C73.3473 87.8707 72.7793 88.1845 72.2961 88.4586C72.2961 88.1596 72.3557 75.8385 72.3557 75.8385H68.0859V108.248H72.3557V90.4166C72.819 90.1625 73.3423 89.9084 73.9253 89.6593C74.5082 89.4052 75.101 89.186 75.7138 88.9966C76.3266 88.8073 76.9344 88.6479 77.5323 88.5233C78.1352 88.3988 78.6882 88.334 79.1914 88.334C80.0135 88.334 80.6662 88.4635 81.1544 88.7127C81.6377 88.9667 82.0164 89.2906 82.2754 89.6942C82.5395 90.0927 82.714 90.5412 82.7987 91.0394C82.8834 91.5376 82.9233 92.0358 82.9233 92.544V108.253H87.1979V91.8714C87.1979 90.7952 87.0386 89.8586 86.7247 89.0564C86.4058 88.2543 85.9673 87.5867 85.4093 87.0436Z" fill="#1C374D"/>
</g>
<mask id="mask17_125_6135" style="mask-type:luminance" maskUnits="userSpaceOnUse" x="-69" y="-77" width="420" height="297">
<path d="M350.5 -76.9778H-68.9521V219.607H350.5V-76.9778Z" fill="white"/>
</mask>
<g mask="url(#mask17_125_6135)">
<path d="M180.759 87.0436C180.201 86.5055 179.533 86.1069 178.766 85.8429C177.999 85.5788 177.147 85.4493 176.22 85.4493C175.398 85.4493 174.581 85.5539 173.769 85.7632C172.957 85.9724 172.174 86.2315 171.427 86.5404C170.675 86.8443 169.982 87.1731 169.34 87.5219C168.697 87.8707 168.129 88.1845 167.646 88.4586C167.646 88.1596 167.706 75.8385 167.706 75.8385H163.436V108.248H167.706V90.4166C168.169 90.1625 168.692 89.9084 169.275 89.6593C169.858 89.4052 170.451 89.186 171.063 88.9966C171.676 88.8073 172.284 88.6479 172.887 88.5233C173.49 88.3988 174.043 88.334 174.546 88.334C175.368 88.334 176.021 88.4635 176.509 88.7127C176.992 88.9667 177.371 89.2906 177.63 89.6942C177.894 90.0927 178.068 90.5412 178.153 91.0394C178.238 91.5376 178.278 92.0358 178.278 92.544V108.253H182.553V91.8714C182.553 90.7952 182.393 89.8586 182.079 89.0564C181.76 88.2543 181.322 87.5867 180.759 87.0436Z" fill="#1C374D"/>
</g>
<mask id="mask18_125_6135" style="mask-type:luminance" maskUnits="userSpaceOnUse" x="-69" y="-77" width="420" height="297">
<path d="M350.5 -76.9778H-68.9521V219.607H350.5V-76.9778Z" fill="white"/>
</mask>
<g mask="url(#mask18_125_6135)">
<path d="M85.6787 34.3809H81.2793V66.7906H85.6787V34.3809Z" fill="#1C374D"/>
</g>
<mask id="mask19_125_6135" style="mask-type:luminance" maskUnits="userSpaceOnUse" x="-69" y="-77" width="420" height="297">
<path d="M350.5 -76.9778H-68.9521V219.607H350.5V-76.9778Z" fill="white"/>
</mask>
<g mask="url(#mask19_125_6135)">
<path d="M160.796 43.9917V60.204C160.796 60.6823 160.761 61.1507 160.701 61.609C161.134 61.8681 161.628 62.1322 162.186 62.3913C162.739 62.6503 163.307 62.8845 163.88 63.0938C164.458 63.298 165.031 63.4724 165.609 63.6169C166.187 63.7564 166.725 63.8261 167.223 63.8261C167.985 63.8261 168.593 63.6966 169.046 63.4326C169.505 63.1735 169.858 62.8397 170.107 62.4361C170.357 62.0325 170.521 61.5742 170.596 61.066C170.67 60.5528 170.71 60.0396 170.71 59.5165V43.9917H175.115V60.204C175.115 61.3151 174.96 62.2767 174.656 63.0938C174.352 63.9109 173.929 64.5934 173.386 65.1465C172.843 65.6995 172.195 66.113 171.443 66.387C170.695 66.6611 169.873 66.7956 168.982 66.7956C168.199 66.7956 167.407 66.686 166.615 66.4717C165.823 66.2525 165.065 65.9885 164.348 65.6696C163.631 65.3557 162.963 65.0169 162.34 64.6582C161.722 64.2995 161.184 63.9806 160.726 63.6966L160.203 63.3728C159.724 64.5237 159.002 65.3856 158.035 65.9486C157.069 66.5116 155.943 66.7956 154.662 66.7956C153.88 66.7956 153.088 66.686 152.296 66.4717C151.504 66.2525 150.746 65.9885 150.029 65.6696C149.312 65.3557 148.644 65.0169 148.021 64.6582C147.403 64.2995 146.865 63.9806 146.407 63.6966L145.754 66.7956H142.067V43.9917H146.467V61.6688C146.9 61.9279 147.393 62.192 147.936 62.4511C148.479 62.7101 149.032 62.9393 149.6 63.1336C150.168 63.3279 150.732 63.4924 151.295 63.6219C151.858 63.7514 152.391 63.8162 152.894 63.8162C153.656 63.8162 154.264 63.6866 154.717 63.4226C155.176 63.1635 155.529 62.8297 155.779 62.4261C156.028 62.0226 156.192 61.5642 156.267 61.056C156.342 60.5428 156.381 60.0297 156.381 59.5065V43.9917H160.796Z" fill="#1C374D"/>
</g>
<mask id="mask20_125_6135" style="mask-type:luminance" maskUnits="userSpaceOnUse" x="-69" y="-77" width="420" height="297">
<path d="M350.5 -76.9778H-68.9521V219.607H350.5V-76.9778Z" fill="white"/>
</mask>
<g mask="url(#mask20_125_6135)">
<path d="M129.916 43.9917L132.92 46.9662L129.916 49.9356L126.946 46.9662L129.916 43.9917Z" fill="#1C374D"/>
</g>
<mask id="mask21_125_6135" style="mask-type:luminance" maskUnits="userSpaceOnUse" x="-69" y="-77" width="420" height="297">
<path d="M350.5 -76.9778H-68.9521V219.607H350.5V-76.9778Z" fill="white"/>
</mask>
<g mask="url(#mask21_125_6135)">
<path d="M123.941 43.9917L126.946 46.9662L123.941 49.9356L120.972 46.9662L123.941 43.9917Z" fill="#1C374D"/>
</g>
<mask id="mask22_125_6135" style="mask-type:luminance" maskUnits="userSpaceOnUse" x="-69" y="-77" width="420" height="297">
<path d="M350.5 -76.9778H-68.9521V219.607H350.5V-76.9778Z" fill="white"/>
</mask>
<g mask="url(#mask22_125_6135)">
<path d="M91.5965 64.3148C92.4684 65.1867 93.4698 65.8145 94.5958 66.2081C95.7268 66.5967 96.9027 66.796 98.1184 66.796C98.791 66.796 99.4237 66.7312 100.012 66.6017C100.599 66.4722 101.152 66.2978 101.676 66.0786C102.199 65.8593 102.697 65.6102 103.175 65.3262C103.654 65.0422 104.122 64.7383 104.58 64.4145H104.68C104.635 64.7433 104.605 65.2316 104.58 65.8842C104.56 66.5369 104.545 67.1547 104.545 67.7426V81.0503H108.95V44.0071C108.95 44.0071 101.282 43.9971 99.9118 43.9971C98.168 43.9971 96.6086 44.2761 95.2286 44.8292C93.8485 45.3822 92.6727 46.1844 91.7062 47.2306C90.7396 48.2719 89.9972 49.5574 89.489 51.0819C88.9758 52.6065 88.7217 54.3254 88.7217 56.2386C88.7217 58.2415 88.9809 59.5069 89.5041 60.9119C90.0322 62.307 90.7246 63.4429 91.5965 64.3148ZM93.5894 52.7859C93.7189 51.8392 93.8934 51.0122 94.1127 50.3047C94.3269 49.5972 94.5659 49.0143 94.815 48.5609C95.0641 48.1025 95.3082 47.7687 95.5524 47.5495C96.0306 47.1559 96.7084 46.8769 97.5903 46.7025C98.4721 46.5281 99.4336 46.4434 100.48 46.4434H104.56V62.85C103.818 63.154 103.031 63.3931 102.194 63.5675C101.357 63.7419 100.48 63.8266 99.5681 63.8266C98.6563 63.8266 97.8193 63.6771 97.057 63.3682C96.2947 63.0643 95.6422 62.576 95.0991 61.8984C94.5561 61.2258 94.1375 60.3639 93.8436 59.3226C93.5496 58.2763 93.405 57.4493 93.405 55.9695C93.395 54.7937 93.4548 53.7375 93.5894 52.7859Z" fill="#1C374D"/>
</g>
<mask id="mask23_125_6135" style="mask-type:luminance" maskUnits="userSpaceOnUse" x="-69" y="-77" width="420" height="297">
<path d="M350.5 -76.9778H-68.9521V219.607H350.5V-76.9778Z" fill="white"/>
</mask>
<g mask="url(#mask23_125_6135)">
<path d="M178.154 34.3809V66.7906H182.549V38.7753L178.154 34.3809Z" fill="#1C374D"/>
</g>
<mask id="mask24_125_6135" style="mask-type:luminance" maskUnits="userSpaceOnUse" x="-69" y="-77" width="420" height="297">
<path d="M350.5 -76.9778H-68.9521V219.607H350.5V-76.9778Z" fill="white"/>
</mask>
<g mask="url(#mask24_125_6135)">
<path d="M77.8512 53.7718C77.5921 53.0295 77.1536 52.4167 76.5458 51.9284C75.9379 51.4401 75.1358 51.0764 74.1493 50.8522C73.1578 50.623 71.9371 50.5084 70.4773 50.5084H65.6794C65.2161 50.5084 64.7927 50.4785 64.3991 50.4138C63.7912 50.354 62.7799 50.2842 62.456 49.2629C62.451 49.2529 62.446 49.2429 62.446 49.233C62.3863 49.0287 62.3414 48.7995 62.3414 48.5056C62.3514 47.4842 62.8944 46.408 63.3627 45.6657C63.3627 45.6607 63.3678 45.6607 63.3678 45.6557C63.4974 45.4465 63.7215 45.1625 63.9507 44.8884L66.0232 46.9611L69.0225 43.9916L66.0232 41.0222L63.0537 43.9916C62.705 44.3155 61.0658 46.0443 60.7071 46.4479C60.3484 46.8514 60.0196 47.265 59.7306 47.6885C59.4367 48.112 59.1975 48.5554 59.0132 49.0088C58.8288 49.4671 58.7342 49.9106 58.7342 50.349C58.7342 51.8487 59.3171 52.9298 60.478 53.5974C61.6438 54.2601 63.5072 54.6039 66.073 54.6238L69.6304 54.6537C71.3493 54.6537 72.565 54.9177 73.2825 55.4508C73.9999 55.9839 74.3585 56.806 74.3585 57.9171C74.3585 58.8537 74.2192 59.7057 73.9352 60.478C73.6512 61.2502 73.2276 61.8531 72.6646 62.2865C71.7727 62.9193 70.7116 63.3727 69.4859 63.6566C68.2553 63.9406 66.8901 64.0801 65.3904 64.0801C63.8658 64.0801 62.6504 63.7314 61.7386 63.0339C60.8268 62.3363 60.3685 61.4047 60.3685 60.2289C60.3685 59.621 60.4231 59.053 60.5327 58.5349C60.6423 58.0117 60.8168 57.4487 61.056 56.8359L59.9498 56.4423C59.621 56.811 59.3071 57.1996 59.0032 57.5982C58.6993 58.0018 58.4252 58.4303 58.1861 58.8886C57.9469 59.347 57.7528 59.8253 57.5983 60.3235C57.4488 60.8217 57.3691 61.3548 57.3691 61.9228C57.3691 62.5755 57.4987 63.1933 57.7628 63.7812C58.0218 64.3691 58.4401 64.8873 59.0181 65.3307C59.591 65.7741 60.3485 66.1279 61.2851 66.3919C62.2218 66.651 63.3627 66.7855 64.7129 66.7855C66.6709 66.7855 68.4746 66.4766 70.1287 65.8538C71.7828 65.236 73.2126 64.4339 74.4183 63.4574C75.624 62.4808 76.5656 61.3698 77.2432 60.1292C77.9158 58.8886 78.2548 57.648 78.2548 56.4074C78.2448 55.3911 78.1152 54.5092 77.8512 53.7718Z" fill="#1C374D"/>
</g>
<mask id="mask25_125_6135" style="mask-type:luminance" maskUnits="userSpaceOnUse" x="-69" y="-77" width="420" height="297">
<path d="M350.5 -76.9778H-68.9521V219.607H350.5V-76.9778Z" fill="white"/>
</mask>
<g mask="url(#mask25_125_6135)">
<path d="M134.634 43.9917V60.9564C134.634 60.9564 130.498 67.0846 128.261 64.2646L128.256 64.2696C128.216 64.2198 128.196 64.1799 128.147 64.1201C127.614 63.5023 127.051 62.6753 126.453 61.6389C125.855 60.6076 125.232 59.4069 124.579 58.0517C123.927 56.6915 120.3 49.1085 119.856 48.1619C119.418 47.2153 118.984 46.4331 118.561 45.8153C118.137 45.1925 117.684 44.7391 117.201 44.4451C116.712 44.1512 116.115 44.0067 115.397 44.0067H111.994V45.7355H112.517C112.976 45.7355 113.414 45.9348 113.838 46.3384C114.261 46.742 114.695 47.3448 115.143 48.147C115.591 48.9541 116.095 49.9406 116.643 51.1164C117.196 52.3121 120.997 60.2389 121.54 61.3948C122.093 62.5657 122.626 63.5521 123.15 64.3493C123.673 65.1415 124.226 65.7443 124.804 66.1628C125.078 66.3571 125.382 66.5016 125.7 66.6063L125.695 66.6113C125.695 66.6113 130.349 68.375 134.693 62.8197H134.728L135.346 66.7956H139.033V43.9917H134.634Z" fill="#1C374D"/>
</g>
</g>
</g>
</svg>
