<svg width="281" height="142" viewBox="0 0 281 142" fill="none" xmlns="http://www.w3.org/2000/svg">
    <mask id="mask0_71_33723" style="mask-type:alpha" maskUnits="userSpaceOnUse" x="0" y="0"
        width="281" height="142">
        <rect width="281" height="141.995" fill="#D9D9D9" />
    </mask>
    <g mask="url(#mask0_71_33723)">
        <mask id="mask1_71_33723" style="mask-type:luminance" maskUnits="userSpaceOnUse" x="-82"
            y="-96" width="507" height="507">
            <path
                d="M215.253 -95.3821L-81.2996 201.254L128.445 410.94L424.998 114.303L215.253 -95.3821Z"
                fill="white" />
        </mask>
        <g mask="url(#mask1_71_33723)">
            <path
                d="M262.386 71.3601L254.837 78.9109L258.911 82.9829L266.459 75.432L262.386 71.3601Z"
                fill="#9E7C4F" />
        </g>
        <mask id="mask2_71_33723" style="mask-type:luminance" maskUnits="userSpaceOnUse" x="-69"
            y="-77" width="420" height="297">
            <path d="M350.5 -76.9778H-68.9519V219.607H350.5V-76.9778Z" fill="white" />
        </mask>
        <g mask="url(#mask2_71_33723)">
            <path
                d="M247.427 56.4377L239.874 48.8896V48.8846L243.95 44.8141L251.498 52.3672L247.427 56.4377Z"
                fill="#1C374D" />
        </g>
        <mask id="mask3_71_33723" style="mask-type:luminance" maskUnits="userSpaceOnUse" x="-86"
            y="-129" width="508" height="508">
            <path
                d="M211.354 -128.045L-85.1985 168.592L124.546 378.277L421.099 81.6405L211.354 -128.045Z"
                fill="white" />
        </mask>
        <g mask="url(#mask3_71_33723)">
            <path
                d="M221.016 59.7387L213.467 67.2896L217.54 71.3615L225.089 63.8107L221.016 59.7387Z"
                fill="#9E7C4F" />
        </g>
        <mask id="mask4_71_33723" style="mask-type:luminance" maskUnits="userSpaceOnUse" x="-69"
            y="-77" width="420" height="297">
            <path d="M350.5 -76.9778H-68.9519V219.607H350.5V-76.9778Z" fill="white" />
        </mask>
        <g mask="url(#mask4_71_33723)">
            <path d="M232.326 86.1869L239.874 93.74L235.803 97.8155L228.25 90.2624L232.326 86.1869Z"
                fill="#1C374D" />
        </g>
        <mask id="mask5_71_33723" style="mask-type:luminance" maskUnits="userSpaceOnUse" x="-69"
            y="-77" width="420" height="297">
            <path d="M350.5 -76.9778H-68.9519V219.607H350.5V-76.9778Z" fill="white" />
        </mask>
        <g mask="url(#mask5_71_33723)">
            <mask id="mask6_71_33723" style="mask-type:luminance" maskUnits="userSpaceOnUse" x="-69"
                y="-77" width="420" height="297">
                <path d="M350.5 -76.9778H-68.9524V219.607H350.5V-76.9778Z" fill="white" />
            </mask>
            <g mask="url(#mask6_71_33723)">
                <path
                    d="M247.427 86.1868L231.07 102.544C230.428 102.384 229.73 102.17 228.988 101.911C228.245 101.652 227.518 101.348 226.815 101.004C226.108 100.665 225.435 100.292 224.793 99.8881C224.15 99.4845 223.597 99.0511 223.134 98.5877C222.431 97.8852 221.988 97.1977 221.808 96.535C221.629 95.8724 221.609 95.2347 221.748 94.6318C221.888 94.0289 222.162 93.451 222.566 92.9129C222.969 92.3698 223.408 91.8567 223.891 91.3734L238.255 77.0095L234.179 72.934L219.183 87.9356C218.739 88.3791 218.336 88.8424 217.977 89.3207C217.334 89.1613 216.637 88.947 215.879 88.673C215.127 88.404 214.385 88.0951 213.662 87.7513C212.935 87.4075 212.242 87.0388 211.58 86.6353C210.917 86.2317 210.354 85.7982 209.891 85.3349C209.188 84.6324 208.745 83.9448 208.565 83.2822C208.386 82.6195 208.366 81.9818 208.506 81.379C208.645 80.7761 208.919 80.1982 209.323 79.6601C209.726 79.122 210.165 78.6038 210.648 78.1206L213.388 75.3803L209.313 71.3048L205.94 74.6828C204.913 75.7091 204.166 76.7405 203.693 77.7768C203.219 78.8131 202.975 79.8394 202.97 80.8558C202.96 81.8722 203.175 82.8487 203.618 83.7954C204.062 84.742 204.694 85.6288 205.516 86.4509C206.244 87.1783 207.071 87.8061 208.007 88.3392C208.944 88.8723 209.886 89.3257 210.842 89.6994C211.799 90.068 212.73 90.3769 213.632 90.6211C214.539 90.8602 215.331 91.0645 216.014 91.2239L216.801 91.4033C216.178 92.9129 216.054 94.3727 216.422 95.7927C216.796 97.2126 217.573 98.513 218.759 99.6988C219.486 100.426 220.314 101.054 221.25 101.587C222.187 102.12 223.128 102.569 224.085 102.942C225.042 103.316 225.973 103.625 226.875 103.864C227.777 104.103 228.574 104.302 229.257 104.467L199.832 133.773V141.919L251.503 90.2524L247.427 86.1868Z"
                    fill="#9E7C4F" />
            </g>
            <mask id="mask7_71_33723" style="mask-type:luminance" maskUnits="userSpaceOnUse" x="-69"
                y="-77" width="420" height="297">
                <path d="M350.5 -76.9778H-68.9524V219.607H350.5V-76.9778Z" fill="white" />
            </mask>
            <g mask="url(#mask7_71_33723)">
                <path
                    d="M258.822 59.691L254.751 63.7665L271.108 80.1233C270.948 80.766 270.734 81.4636 270.475 82.2059C270.216 82.9483 269.912 83.6707 269.568 84.3782C269.224 85.0807 268.856 85.7533 268.452 86.401C268.049 87.0437 267.62 87.5967 267.152 88.0601C266.449 88.7626 265.762 89.206 265.099 89.3854C264.437 89.5647 263.799 89.5847 263.196 89.4452C262.593 89.3056 262.02 89.0316 261.477 88.633C260.934 88.2295 260.421 87.791 259.937 87.3078L223.248 50.6183C222.805 50.1749 222.341 49.7713 221.858 49.4126C222.018 48.7699 222.232 48.0724 222.506 47.3151C222.775 46.5628 223.084 45.8204 223.428 45.098C223.771 44.3755 224.14 43.678 224.544 43.0154C224.947 42.3478 225.38 41.7897 225.839 41.3264C226.541 40.6189 227.229 40.1805 227.892 39.9961C228.554 39.8168 229.192 39.7968 229.795 39.9363C230.398 40.0758 230.976 40.3449 231.519 40.7484C232.062 41.152 232.575 41.5954 233.058 42.0737L235.799 44.814L239.874 40.7435L236.496 37.3655C235.47 36.3391 234.438 35.5918 233.402 35.1185C232.366 34.6452 231.339 34.401 230.323 34.3911C229.307 34.3811 228.325 34.6003 227.383 35.0388C226.437 35.4822 225.55 36.1149 224.728 36.942C224 37.6694 223.373 38.4965 222.84 39.4331C222.306 40.3698 221.853 41.3114 221.484 42.268C221.111 43.2246 220.802 44.1563 220.563 45.0631C220.324 45.9649 220.119 46.762 219.96 47.4446L219.775 48.2268C218.266 47.6041 216.801 47.4795 215.386 47.8482C213.966 48.2219 212.666 48.9991 211.48 50.1849C210.753 50.9073 210.125 51.7393 209.592 52.676C209.059 53.6127 208.61 54.5543 208.236 55.5109C207.863 56.4675 207.559 57.3992 207.315 58.301C207.071 59.2078 206.872 59.9999 206.712 60.6875L203.239 58.4206L199.832 61.8334L220.932 82.9333L225.007 78.8578L208.65 62.501C208.814 61.8583 209.024 61.1608 209.283 60.4184C209.542 59.6761 209.846 58.9537 210.19 58.2462C210.533 57.5437 210.902 56.8711 211.306 56.2234C211.709 55.5807 212.138 55.0276 212.606 54.5643C213.308 53.8618 213.996 53.4184 214.659 53.239C215.321 53.0596 215.959 53.0397 216.562 53.1792C217.165 53.3187 217.738 53.5927 218.286 53.9913C218.829 54.3949 219.342 54.8333 219.825 55.3166L256.515 92.006C256.958 92.4495 257.421 92.853 257.9 93.2118C257.74 93.8545 257.526 94.552 257.252 95.3093C256.983 96.0616 256.674 96.804 256.33 97.5264C255.987 98.2488 255.618 98.9463 255.214 99.609C254.811 100.277 254.377 100.835 253.919 101.298C253.217 102 252.529 102.444 251.866 102.628C251.204 102.808 250.566 102.828 249.963 102.688C249.36 102.549 248.782 102.279 248.244 101.876C247.701 101.472 247.188 101.029 246.705 100.551L243.965 97.8104L239.889 101.886L243.262 105.264C244.288 106.29 245.32 107.038 246.356 107.511C247.392 107.984 248.419 108.228 249.435 108.238C250.451 108.248 251.433 108.034 252.379 107.591C253.326 107.147 254.208 106.514 255.035 105.687C255.762 104.96 256.39 104.133 256.923 103.196C257.456 102.26 257.91 101.318 258.279 100.361C258.652 99.4047 258.961 98.473 259.2 97.5662C259.444 96.6645 259.644 95.8673 259.803 95.1847L259.987 94.4025C261.497 95.0253 262.962 95.1498 264.377 94.7812C265.797 94.4075 267.097 93.6303 268.283 92.4445C269.01 91.722 269.638 90.89 270.171 89.9533C270.704 89.0167 271.153 88.075 271.526 87.1184C271.9 86.1618 272.204 85.2302 272.448 84.3284C272.687 83.4216 272.892 82.6294 273.051 81.9419L276.523 84.2088L279.931 80.7959L258.822 59.691Z"
                    fill="#1C374D" />
            </g>
            <mask id="mask8_71_33723" style="mask-type:luminance" maskUnits="userSpaceOnUse" x="-69"
                y="-77" width="420" height="297">
                <path d="M350.5 -76.9778H-68.9524V219.607H350.5V-76.9778Z" fill="white" />
            </mask>
            <g mask="url(#mask8_71_33723)">
                <path
                    d="M279.921 0.70105L228.25 52.3672L232.325 56.4377L248.682 40.0809C249.325 40.2403 250.022 40.4496 250.765 40.7137C251.507 40.9727 252.235 41.2767 252.937 41.6204C253.645 41.9592 254.317 42.3329 254.96 42.7365C255.603 43.14 256.156 43.5735 256.619 44.0368C257.322 44.7393 257.765 45.4219 257.949 46.0895C258.129 46.7522 258.149 47.3899 258.009 47.9928C257.87 48.5956 257.595 49.1735 257.192 49.7166C256.788 50.2597 256.35 50.7729 255.867 51.2561L241.503 65.62L245.578 69.6905L260.58 54.6889C261.023 54.2455 261.427 53.7821 261.791 53.3038C262.433 53.4633 263.131 53.6775 263.888 53.9516C264.64 54.2256 265.383 54.5295 266.105 54.8733C266.833 55.2171 267.525 55.5857 268.188 55.9893C268.85 56.3929 269.414 56.8213 269.882 57.2897C270.584 57.9922 271.028 58.6797 271.207 59.3424C271.386 60.005 271.406 60.6378 271.267 61.2456C271.127 61.8484 270.853 62.4264 270.45 62.9645C270.046 63.5075 269.608 64.0207 269.125 64.504L266.384 67.2442L270.46 71.3148L273.833 67.9368C274.859 66.9104 275.606 65.8791 276.085 64.8428C276.558 63.8065 276.797 62.7801 276.807 61.7637C276.817 60.7474 276.603 59.7708 276.159 58.8242C275.716 57.8776 275.083 56.9907 274.261 56.1687C273.539 55.4412 272.707 54.8135 271.77 54.2804C270.833 53.7473 269.887 53.2939 268.935 52.9202C267.978 52.5466 267.047 52.2426 266.145 51.9985C265.238 51.7544 264.441 51.5551 263.764 51.3956L262.976 51.2163C263.599 49.7066 263.724 48.2469 263.355 46.8269C262.981 45.407 262.204 44.1016 261.018 42.9158C260.291 42.1884 259.464 41.5606 258.527 41.0275C257.591 40.4944 256.649 40.046 255.692 39.6724C254.736 39.2987 253.804 38.9948 252.902 38.7506C252 38.5115 251.203 38.3122 250.521 38.1478L279.946 8.84208V0.70105H279.921Z"
                    fill="#9E7C4F" />
            </g>
            <mask id="mask9_71_33723" style="mask-type:luminance" maskUnits="userSpaceOnUse" x="-69"
                y="-77" width="420" height="297">
                <path d="M350.5 -76.9778H-68.9524V219.607H350.5V-76.9778Z" fill="white" />
            </mask>
            <g mask="url(#mask9_71_33723)">
                <path
                    d="M29.5575 95.2296C29.2934 94.4873 28.8599 93.8745 28.2521 93.3862C27.6442 92.8979 26.8423 92.5392 25.8558 92.31C24.8643 92.0808 23.6386 91.9662 22.1838 91.9662H17.386C16.9226 91.9662 16.494 91.9364 16.1054 91.8716C15.4975 91.8118 14.4862 91.742 14.1623 90.7207C14.1573 90.7107 14.1523 90.7008 14.1523 90.6908C14.0926 90.4865 14.0477 90.2573 14.0477 89.9634C14.0577 88.942 14.6007 87.8658 15.069 87.1235C15.069 87.1185 15.0741 87.1185 15.0741 87.1135C15.4229 86.5605 16.4343 85.4445 16.4343 85.4445H14.7603C14.4115 85.7683 12.7724 87.4971 12.4137 87.9007C12.0549 88.3043 11.7259 88.7178 11.4369 89.1413C11.143 89.5648 10.9038 90.0082 10.7195 90.4616C10.5351 90.92 10.4405 91.3634 10.4405 91.8018C10.4405 93.3015 11.0234 94.3826 12.1842 95.0503C13.3501 95.7129 15.2137 96.0567 17.7796 96.0766L21.3367 96.1065C23.0556 96.1065 24.2715 96.3706 24.9939 96.9037C25.7113 97.4368 26.0699 98.2589 26.0699 99.3699C26.0699 100.307 25.9303 101.159 25.6463 101.931C25.3624 102.703 24.939 103.306 24.376 103.739C23.4841 104.372 22.4229 104.825 21.1922 105.109C19.9616 105.393 18.5966 105.533 17.0969 105.533C15.5724 105.533 14.3567 105.184 13.4449 104.487C12.5331 103.789 12.0748 102.857 12.0748 101.682C12.0748 101.074 12.1296 100.506 12.2392 99.9877C12.3488 99.4646 12.5231 98.9016 12.7623 98.2887L11.6563 97.8951C11.3275 98.2638 11.0134 98.6525 10.7095 99.056C10.4056 99.4596 10.1317 99.8881 9.8926 100.346C9.65345 100.805 9.45905 101.283 9.3046 101.781C9.15514 102.28 9.07544 102.813 9.07544 103.381C9.07544 104.033 9.205 104.656 9.46906 105.239C9.72814 105.827 10.1467 106.345 10.7246 106.788C11.2976 107.232 12.0548 107.586 12.9914 107.85C13.9281 108.109 15.069 108.243 16.4192 108.243C18.3772 108.243 20.1808 107.934 21.835 107.312C23.4891 106.694 24.9192 105.892 26.1249 104.915C27.3306 103.939 28.2722 102.828 28.9498 101.587C29.6224 100.346 29.9611 99.1058 29.9611 97.8653C29.9461 96.8489 29.8166 95.967 29.5575 95.2296Z"
                    fill="#1C374D" />
            </g>
            <mask id="mask10_71_33723" style="mask-type:luminance" maskUnits="userSpaceOnUse"
                x="-69" y="-77" width="420" height="297">
                <path d="M350.5 -76.9778H-68.9524V219.607H350.5V-76.9778Z" fill="white" />
            </mask>
            <g mask="url(#mask10_71_33723)">
                <path d="M6.0256 108.248V75.8385H1.62622V103.849L6.0256 108.248Z" fill="#1C374D" />
            </g>
            <mask id="mask11_71_33723" style="mask-type:luminance" maskUnits="userSpaceOnUse"
                x="-69" y="-77" width="420" height="297">
                <path d="M350.5 -76.9778H-68.9524V219.607H350.5V-76.9778Z" fill="white" />
            </mask>
            <g mask="url(#mask11_71_33723)">
                <path
                    d="M108.954 85.4493V100.974C108.954 101.497 108.994 102.01 109.069 102.524C109.143 103.032 109.308 103.49 109.557 103.894C109.806 104.297 110.16 104.626 110.618 104.89C111.076 105.149 111.684 105.284 112.442 105.284C112.945 105.284 113.478 105.219 114.041 105.089C114.609 104.96 115.172 104.795 115.735 104.601C116.298 104.407 116.856 104.178 117.399 103.919C117.942 103.66 118.43 103.395 118.869 103.136V85.4593H123.273V108.258H119.586L118.933 105.159C118.475 105.443 117.937 105.762 117.319 106.121C116.701 106.479 116.029 106.818 115.311 107.132C114.594 107.446 113.837 107.715 113.045 107.934C112.252 108.149 111.46 108.258 110.678 108.258C109.398 108.258 108.272 107.974 107.305 107.411C106.338 106.843 105.616 105.986 105.138 104.835L104.614 105.159C104.161 105.443 103.618 105.762 103 106.121C102.382 106.479 101.715 106.818 100.992 107.132C100.275 107.446 99.5175 107.715 98.7254 107.934C97.9332 108.149 97.141 108.258 96.3588 108.258C95.467 108.258 94.6449 108.124 93.8976 107.85C93.1453 107.576 92.5026 107.167 91.9545 106.609C91.4115 106.056 90.9878 105.368 90.6839 104.556C90.38 103.739 90.2256 102.778 90.2256 101.667V85.4543H94.625V100.979C94.625 101.502 94.6648 102.015 94.7396 102.529C94.8143 103.037 94.9787 103.495 95.2278 103.899C95.4769 104.302 95.8306 104.631 96.289 104.895C96.7473 105.154 97.3553 105.289 98.1126 105.289C98.6158 105.289 99.149 105.219 99.7269 105.079C100.305 104.94 100.878 104.766 101.456 104.556C102.034 104.347 102.597 104.118 103.15 103.854C103.708 103.595 104.201 103.331 104.634 103.072C104.57 102.613 104.54 102.145 104.54 101.667V85.4543H108.954V85.4493Z"
                    fill="#1C374D" />
            </g>
            <mask id="mask12_71_33723" style="mask-type:luminance" maskUnits="userSpaceOnUse"
                x="-69" y="-77" width="420" height="297">
                <path d="M350.5 -76.9778H-68.9524V219.607H350.5V-76.9778Z" fill="white" />
            </mask>
            <g mask="url(#mask12_71_33723)">
                <path
                    d="M32.9845 87.7913L30.5483 87.5721V86.3365L36.2779 81.6532H37.1299L37.2245 85.4497H43.1434L42.8595 87.3778C42.3314 87.4426 41.7483 87.5024 41.1006 87.5522C40.4579 87.607 39.8501 87.6518 39.2822 87.6967C38.6046 87.7614 37.932 87.8013 37.2545 87.8212V102.643C37.2545 103.426 37.3989 104.073 37.6829 104.592C37.9669 105.11 38.5848 105.364 39.5364 105.364C40.0446 105.364 40.6574 105.354 41.3748 105.334C42.0922 105.314 42.7449 105.279 43.3378 105.239V106.729C43.0239 106.878 42.6153 107.033 42.117 107.202C41.6188 107.372 41.0757 107.536 40.4878 107.691C39.8949 107.85 39.307 107.98 38.7141 108.089C38.1262 108.194 37.5782 108.249 37.0701 108.249C36.6067 108.249 36.1285 108.189 35.6452 108.074C35.1569 107.96 34.7234 107.74 34.3298 107.426C33.9412 107.108 33.6174 106.664 33.3633 106.081C33.1092 105.503 32.9845 104.746 32.9845 103.819V87.7913Z"
                    fill="#1C374D" />
            </g>
            <mask id="mask13_71_33723" style="mask-type:luminance" maskUnits="userSpaceOnUse"
                x="-69" y="-77" width="420" height="297">
                <path d="M350.5 -76.9778H-68.9524V219.607H350.5V-76.9778Z" fill="white" />
            </mask>
            <g mask="url(#mask13_71_33723)">
                <path
                    d="M56.2422 85.4493C57.1938 85.4493 58.1205 85.5888 59.0272 85.8579C59.934 86.1319 60.7612 86.5903 61.5135 87.233C62.2608 87.8757 62.9185 88.7326 63.4765 89.7989C64.0345 90.8651 64.4531 92.1903 64.7272 93.7697V94.0238C64.5378 94.258 64.2787 94.4672 63.9499 94.6566C63.6211 94.8459 63.1924 95.0153 62.6693 95.1648C62.1412 95.3142 61.4936 95.4438 60.7214 95.5584C59.9541 95.6729 59.0274 95.7626 57.9512 95.8274L50.9262 96.3007V97.6609C50.9262 100.217 51.3796 102.334 52.2863 103.495C53.1931 104.656 54.5631 105.239 56.4016 105.239C57.1639 105.239 57.9463 105.164 58.7584 105.015C59.5705 104.865 60.3477 104.686 61.0851 104.477C61.8225 104.267 62.4951 104.048 63.0979 103.829C63.7008 103.605 64.1689 103.415 64.5077 103.241L65.0459 104.477C64.433 104.875 63.7505 105.299 62.9882 105.742C62.2309 106.186 61.4089 106.589 60.537 106.963C59.6601 107.331 58.7432 107.64 57.7817 107.88C56.8201 108.124 55.8336 108.243 54.8222 108.243C53.6215 108.243 52.5056 108.054 51.4842 107.675C50.4579 107.297 49.571 106.684 48.8087 105.842C48.0464 105 47.4536 103.894 47.0202 102.534C46.5867 101.173 46.3723 99.5242 46.3723 97.5812C46.3723 95.4089 46.6265 93.2964 47.1347 91.7768C47.6379 90.2572 48.3354 89.0366 49.2223 88.1049C50.1091 87.1782 51.1504 86.5006 52.3561 86.0771C53.5519 85.6586 54.8522 85.4493 56.2422 85.4493ZM52.6649 88.5832C52.4307 88.7526 52.2166 89.0216 52.0173 89.3903C51.818 89.759 51.6437 90.2024 51.4942 90.7206C51.3448 91.2387 51.2252 91.8017 51.1305 92.4145C51.0359 93.0274 50.986 93.6501 50.986 94.2829L60.0388 93.9043C59.9341 93.1868 59.7797 92.4644 59.5804 91.737C59.3811 91.0096 59.1072 90.3619 58.7584 89.7889C58.4097 89.2209 57.9711 88.7576 57.443 88.3939C56.9149 88.0351 56.2721 87.8558 55.5148 87.8558C55.0066 87.8558 54.5084 87.9106 54.0102 88.0152C53.5169 88.1198 53.0684 88.3092 52.6649 88.5832Z"
                    fill="#1C374D" />
            </g>
            <mask id="mask14_71_33723" style="mask-type:luminance" maskUnits="userSpaceOnUse"
                x="-69" y="-77" width="420" height="297">
                <path d="M350.5 -76.9778H-68.9524V219.607H350.5V-76.9778Z" fill="white" />
            </mask>
            <g mask="url(#mask14_71_33723)">
                <path
                    d="M144.762 105.588C145.33 105.588 146.083 105.463 147.009 105.209V106.569C146.332 106.928 145.594 107.277 144.797 107.615C143.995 107.954 143.148 108.124 142.266 108.124C141.758 108.124 141.325 108.044 140.971 107.885C140.612 107.725 140.313 107.516 140.084 107.252C139.85 106.988 139.66 106.699 139.516 106.38C139.367 106.066 139.242 105.747 139.137 105.428C138.589 105.787 138.061 106.136 137.553 106.475C137.045 106.813 136.512 107.112 135.954 107.376C135.396 107.64 134.798 107.85 134.165 108.009C133.532 108.169 132.825 108.248 132.043 108.248C130.269 108.248 128.874 107.76 127.848 106.778C126.821 105.797 126.313 104.312 126.313 102.329C126.313 101.273 126.467 100.351 126.771 99.5591C127.075 98.767 127.569 98.1043 128.241 97.5662C128.919 97.0282 129.791 96.6196 130.867 96.3456C131.943 96.0716 133.263 95.9121 134.823 95.8723L138.714 95.7477V91.6523C138.714 90.4516 138.47 89.5697 137.986 89.0117C137.498 88.4537 136.686 88.1747 135.55 88.1747C134.728 88.1747 133.727 88.3291 132.541 88.633C131.36 88.937 130.199 89.3355 129.058 89.8188L128.301 87.791C128.973 87.517 129.691 87.238 130.438 86.954C131.186 86.67 131.953 86.4159 132.73 86.1967C133.507 85.9725 134.305 85.7981 135.107 85.6586C135.909 85.5241 136.701 85.4543 137.478 85.4543C138.345 85.4543 139.117 85.549 139.805 85.7383C140.493 85.9277 141.071 86.2515 141.549 86.7049C142.022 87.1583 142.381 87.7611 142.625 88.5085C142.869 89.2558 142.989 90.1825 142.989 91.2786V101.886C142.989 104.352 143.581 105.588 144.762 105.588ZM138.843 103.973C138.843 103.869 138.823 103.261 138.779 102.155C138.739 101.049 138.714 99.4794 138.714 97.4566C136.417 97.4566 134.673 97.6061 133.493 97.9001C132.312 98.194 131.584 98.493 131.31 98.7869C131.056 99.0609 130.872 99.4495 130.757 99.9577C130.643 100.466 130.583 101.054 130.583 101.731C130.583 102.937 130.787 103.859 131.201 104.502C131.614 105.144 132.302 105.468 133.273 105.468C134.309 105.468 135.256 105.354 136.123 105.119C136.985 104.88 137.897 104.502 138.843 103.973Z"
                    fill="#1C374D" />
            </g>
            <mask id="mask15_71_33723" style="mask-type:luminance" maskUnits="userSpaceOnUse"
                x="-69" y="-77" width="420" height="297">
                <path d="M350.5 -76.9778H-68.9524V219.607H350.5V-76.9778Z" fill="white" />
            </mask>
            <g mask="url(#mask15_71_33723)">
                <path
                    d="M150.049 87.7913L147.613 87.5721V86.3365L153.342 81.6532H154.194L154.289 85.4497H160.208L159.924 87.3778C159.396 87.4426 158.813 87.5024 158.165 87.5522C157.522 87.607 156.914 87.6518 156.346 87.6967C155.669 87.7614 154.996 87.8013 154.319 87.8212V102.643C154.319 103.426 154.463 104.073 154.747 104.592C155.031 105.11 155.649 105.364 156.601 105.364C157.109 105.364 157.722 105.354 158.439 105.334C159.156 105.314 159.809 105.279 160.402 105.239V106.729C160.088 106.878 159.679 107.033 159.181 107.202C158.683 107.372 158.14 107.536 157.552 107.691C156.959 107.85 156.371 107.98 155.779 108.089C155.191 108.194 154.642 108.249 154.134 108.249C153.671 108.249 153.193 108.189 152.709 108.074C152.221 107.96 151.788 107.74 151.394 107.426C151.005 107.108 150.682 106.664 150.427 106.081C150.173 105.503 150.049 104.746 150.049 103.819V87.7913Z"
                    fill="#1C374D" />
            </g>
            <mask id="mask16_71_33723" style="mask-type:luminance" maskUnits="userSpaceOnUse"
                x="-69" y="-77" width="420" height="297">
                <path d="M350.5 -76.9778H-68.9524V219.607H350.5V-76.9778Z" fill="white" />
            </mask>
            <g mask="url(#mask16_71_33723)">
                <path
                    d="M85.4088 87.0436C84.8508 86.5055 84.1832 86.107 83.4159 85.8429C82.6486 85.5788 81.7967 85.4493 80.87 85.4493C80.048 85.4493 79.2309 85.5539 78.4188 85.7632C77.6067 85.9724 76.8244 86.2315 76.077 86.5404C75.3297 86.8443 74.6322 87.1732 73.9895 87.5219C73.3468 87.8707 72.7788 88.1846 72.2956 88.4586C72.2956 88.1596 72.3552 75.8385 72.3552 75.8385H68.0854V108.248H72.3552V90.4166C72.8185 90.1625 73.3419 89.9084 73.9248 89.6593C74.5077 89.4052 75.1005 89.186 75.7133 88.9967C76.3262 88.8074 76.9339 88.6479 77.5318 88.5234C78.1347 88.3988 78.6877 88.334 79.1909 88.334C80.013 88.334 80.6657 88.4636 81.1539 88.7127C81.6372 88.9668 82.0159 89.2906 82.2749 89.6942C82.539 90.0928 82.7135 90.5412 82.7982 91.0394C82.8829 91.5376 82.9228 92.0359 82.9228 92.5441V108.253H87.1974V91.8714C87.1974 90.7953 87.0381 89.8586 86.7242 89.0565C86.4053 88.2543 85.9668 87.5867 85.4088 87.0436Z"
                    fill="#1C374D" />
            </g>
            <mask id="mask17_71_33723" style="mask-type:luminance" maskUnits="userSpaceOnUse"
                x="-69" y="-77" width="420" height="297">
                <path d="M350.5 -76.9778H-68.9524V219.607H350.5V-76.9778Z" fill="white" />
            </mask>
            <g mask="url(#mask17_71_33723)">
                <path
                    d="M180.759 87.0436C180.201 86.5055 179.533 86.107 178.766 85.8429C177.998 85.5788 177.147 85.4493 176.22 85.4493C175.398 85.4493 174.581 85.5539 173.769 85.7632C172.957 85.9724 172.174 86.2315 171.427 86.5404C170.675 86.8443 169.982 87.1732 169.339 87.5219C168.697 87.8707 168.129 88.1846 167.645 88.4586C167.645 88.1596 167.705 75.8385 167.705 75.8385H163.435V108.248H167.705V90.4166C168.169 90.1625 168.692 89.9084 169.275 89.6593C169.858 89.4052 170.45 89.186 171.063 88.9967C171.676 88.8074 172.284 88.6479 172.887 88.5234C173.49 88.3988 174.043 88.334 174.546 88.334C175.368 88.334 176.021 88.4636 176.509 88.7127C176.992 88.9668 177.371 89.2906 177.63 89.6942C177.894 90.0928 178.068 90.5412 178.153 91.0394C178.238 91.5376 178.278 92.0359 178.278 92.5441V108.253H182.552V91.8714C182.552 90.7953 182.393 89.8586 182.079 89.0565C181.76 88.2543 181.322 87.5867 180.759 87.0436Z"
                    fill="#1C374D" />
            </g>
            <mask id="mask18_71_33723" style="mask-type:luminance" maskUnits="userSpaceOnUse"
                x="-69" y="-77" width="420" height="297">
                <path d="M350.5 -76.9778H-68.9524V219.607H350.5V-76.9778Z" fill="white" />
            </mask>
            <g mask="url(#mask18_71_33723)">
                <path d="M85.6782 34.381H81.2788V66.7906H85.6782V34.381Z" fill="#1C374D" />
            </g>
            <mask id="mask19_71_33723" style="mask-type:luminance" maskUnits="userSpaceOnUse"
                x="-69" y="-77" width="420" height="297">
                <path d="M350.5 -76.9778H-68.9524V219.607H350.5V-76.9778Z" fill="white" />
            </mask>
            <g mask="url(#mask19_71_33723)">
                <path
                    d="M160.796 43.9918V60.2041C160.796 60.6824 160.761 61.1508 160.701 61.6091C161.134 61.8682 161.628 62.1323 162.186 62.3913C162.739 62.6504 163.307 62.8846 163.88 63.0938C164.458 63.2981 165.031 63.4725 165.609 63.617C166.187 63.7565 166.725 63.8262 167.223 63.8262C167.985 63.8262 168.593 63.6967 169.046 63.4326C169.505 63.1736 169.858 62.8397 170.107 62.4362C170.357 62.0326 170.521 61.5743 170.596 61.0661C170.67 60.5529 170.71 60.0397 170.71 59.5166V43.9918H175.115V60.2041C175.115 61.3152 174.96 62.2768 174.656 63.0938C174.352 63.9109 173.929 64.5935 173.386 65.1465C172.843 65.6996 172.195 66.1131 171.443 66.3871C170.695 66.6611 169.873 66.7957 168.982 66.7957C168.199 66.7957 167.407 66.6861 166.615 66.4718C165.823 66.2526 165.065 65.9885 164.348 65.6697C163.631 65.3558 162.963 65.017 162.34 64.6583C161.722 64.2995 161.184 63.9807 160.726 63.6967L160.203 63.3729C159.724 64.5238 159.002 65.3857 158.035 65.9487C157.069 66.5117 155.943 66.7957 154.662 66.7957C153.88 66.7957 153.088 66.6861 152.296 66.4718C151.504 66.2526 150.746 65.9885 150.029 65.6697C149.312 65.3558 148.644 65.017 148.021 64.6583C147.403 64.2995 146.865 63.9807 146.407 63.6967L145.754 66.7957H142.067V43.9918H146.467V61.6689C146.9 61.928 147.393 62.1921 147.936 62.4511C148.479 62.7102 149.032 62.9394 149.6 63.1337C150.168 63.328 150.732 63.4924 151.295 63.622C151.858 63.7515 152.391 63.8163 152.894 63.8163C153.656 63.8163 154.264 63.6867 154.717 63.4227C155.176 63.1636 155.529 62.8298 155.779 62.4262C156.028 62.0226 156.192 61.5643 156.267 61.0561C156.342 60.5429 156.381 60.0297 156.381 59.5066V43.9918H160.796Z"
                    fill="#1C374D" />
            </g>
            <mask id="mask20_71_33723" style="mask-type:luminance" maskUnits="userSpaceOnUse"
                x="-69" y="-77" width="420" height="297">
                <path d="M350.5 -76.9778H-68.9524V219.607H350.5V-76.9778Z" fill="white" />
            </mask>
            <g mask="url(#mask20_71_33723)">
                <path
                    d="M129.916 43.9918L132.92 46.9662L129.916 49.9357L126.946 46.9662L129.916 43.9918Z"
                    fill="#1C374D" />
            </g>
            <mask id="mask21_71_33723" style="mask-type:luminance" maskUnits="userSpaceOnUse"
                x="-69" y="-77" width="420" height="297">
                <path d="M350.5 -76.9778H-68.9524V219.607H350.5V-76.9778Z" fill="white" />
            </mask>
            <g mask="url(#mask21_71_33723)">
                <path
                    d="M123.941 43.9918L126.946 46.9662L123.941 49.9357L120.972 46.9662L123.941 43.9918Z"
                    fill="#1C374D" />
            </g>
            <mask id="mask22_71_33723" style="mask-type:luminance" maskUnits="userSpaceOnUse"
                x="-69" y="-77" width="420" height="297">
                <path d="M350.5 -76.9778H-68.9524V219.607H350.5V-76.9778Z" fill="white" />
            </mask>
            <g mask="url(#mask22_71_33723)">
                <path
                    d="M91.596 64.3149C92.4679 65.1868 93.4693 65.8146 94.5953 66.2082C95.7263 66.5968 96.9023 66.7961 98.1179 66.7961C98.7905 66.7961 99.4232 66.7313 100.011 66.6017C100.599 66.4722 101.152 66.2978 101.675 66.0786C102.198 65.8594 102.697 65.6103 103.175 65.3263C103.653 65.0423 104.121 64.7384 104.58 64.4145H104.68C104.635 64.7434 104.605 65.2316 104.58 65.8843C104.56 66.537 104.545 67.1548 104.545 67.7427V81.0503H108.949V44.0072C108.949 44.0072 101.281 43.9972 99.9113 43.9972C98.1676 43.9972 96.6082 44.2762 95.2281 44.8292C93.848 45.3823 92.6722 46.1844 91.7057 47.2307C90.7391 48.272 89.9967 49.5574 89.4885 51.082C88.9753 52.6066 88.7212 54.3254 88.7212 56.2386C88.7212 58.2415 88.9804 59.507 89.5036 60.912C90.0317 62.307 90.7241 63.443 91.596 64.3149ZM93.5889 52.7859C93.7184 51.8393 93.8929 51.0122 94.1122 50.3047C94.3264 49.5973 94.5654 49.0143 94.8145 48.561C95.0636 48.1026 95.3077 47.7688 95.5519 47.5496C96.0302 47.156 96.7079 46.8769 97.5898 46.7026C98.4716 46.5282 99.4331 46.4435 100.479 46.4435H104.56V62.8501C103.817 63.154 103.03 63.3932 102.193 63.5675C101.356 63.7419 100.479 63.8266 99.5676 63.8266C98.6558 63.8266 97.8188 63.6772 97.0565 63.3683C96.2942 63.0643 95.6417 62.5761 95.0986 61.8985C94.5556 61.2259 94.1371 60.364 93.8431 59.3227C93.5491 58.2764 93.4045 57.4493 93.4045 55.9696C93.3945 54.7938 93.4544 53.7375 93.5889 52.7859Z"
                    fill="#1C374D" />
            </g>
            <mask id="mask23_71_33723" style="mask-type:luminance" maskUnits="userSpaceOnUse"
                x="-69" y="-77" width="420" height="297">
                <path d="M350.5 -76.9778H-68.9524V219.607H350.5V-76.9778Z" fill="white" />
            </mask>
            <g mask="url(#mask23_71_33723)">
                <path d="M178.154 34.381V66.7906H182.548V38.7753L178.154 34.381Z" fill="#1C374D" />
            </g>
            <mask id="mask24_71_33723" style="mask-type:luminance" maskUnits="userSpaceOnUse"
                x="-69" y="-77" width="420" height="297">
                <path d="M350.5 -76.9778H-68.9524V219.607H350.5V-76.9778Z" fill="white" />
            </mask>
            <g mask="url(#mask24_71_33723)">
                <path
                    d="M77.8504 53.7718C77.5914 53.0295 77.1529 52.4167 76.545 51.9284C75.9372 51.4401 75.135 51.0764 74.1485 50.8522C73.1571 50.6231 71.9363 50.5085 70.4765 50.5085H65.6787C65.2153 50.5085 64.7919 50.4786 64.3983 50.4138C63.7905 50.354 62.7791 50.2843 62.4553 49.2629C62.4503 49.2529 62.4453 49.243 62.4453 49.233C62.3855 49.0287 62.3407 48.7995 62.3407 48.5056C62.3507 47.4842 62.8936 46.4081 63.362 45.6657C63.362 45.6607 63.3671 45.6607 63.3671 45.6557C63.4966 45.4465 63.7208 45.1625 63.95 44.8885L66.0224 46.9611L69.0218 43.9917L66.0224 41.0222L63.053 43.9917C62.7043 44.3155 61.0651 46.0443 60.7064 46.4479C60.3477 46.8515 60.0188 47.265 59.7299 47.6885C59.4359 48.112 59.1968 48.5554 59.0125 49.0088C58.8281 49.4672 58.7334 49.9106 58.7334 50.349C58.7334 51.8487 59.3163 52.9298 60.4772 53.5975C61.6431 54.2601 63.5064 54.6039 66.0723 54.6238L69.6297 54.6537C71.3486 54.6537 72.5643 54.9178 73.2817 55.4509C73.9992 55.984 74.3578 56.806 74.3578 57.9171C74.3578 58.8538 74.2184 59.7057 73.9345 60.478C73.6505 61.2502 73.2268 61.8531 72.6638 62.2865C71.772 62.9193 70.7108 63.3727 69.4852 63.6567C68.2546 63.9407 66.8893 64.0802 65.3897 64.0802C63.8651 64.0802 62.6496 63.7314 61.7379 63.0339C60.8261 62.3364 60.3677 61.4047 60.3677 60.2289C60.3677 59.621 60.4223 59.053 60.532 58.5349C60.6416 58.0118 60.8161 57.4488 61.0552 56.8359L59.9491 56.4423C59.6202 56.811 59.3064 57.1996 59.0025 57.5982C58.6986 58.0018 58.4245 58.4303 58.1853 58.8886C57.9462 59.347 57.752 59.8253 57.5976 60.3235C57.4481 60.8218 57.3684 61.3549 57.3684 61.9228C57.3684 62.5755 57.498 63.1933 57.762 63.7812C58.0211 64.3691 58.4394 64.8873 59.0173 65.3307C59.5903 65.7741 60.3477 66.1279 61.2844 66.3919C62.2211 66.651 63.362 66.7855 64.7121 66.7855C66.6702 66.7855 68.4738 66.4766 70.1279 65.8538C71.782 65.236 73.2119 64.4339 74.4176 63.4574C75.6233 62.4809 76.5649 61.3698 77.2425 60.1292C77.9151 58.8886 78.254 57.6481 78.254 56.4075C78.2441 55.3911 78.1145 54.5092 77.8504 53.7718Z"
                    fill="#1C374D" />
            </g>
            <mask id="mask25_71_33723" style="mask-type:luminance" maskUnits="userSpaceOnUse"
                x="-69" y="-77" width="420" height="297">
                <path d="M350.5 -76.9778H-68.9524V219.607H350.5V-76.9778Z" fill="white" />
            </mask>
            <g mask="url(#mask25_71_33723)">
                <path
                    d="M134.633 43.9918V60.9565C134.633 60.9565 130.498 67.0846 128.261 64.2647L128.256 64.2697C128.216 64.2198 128.196 64.18 128.146 64.1202C127.613 63.5024 127.05 62.6753 126.452 61.639C125.854 60.6077 125.232 59.407 124.579 58.0518C123.926 56.6916 120.299 49.1086 119.856 48.162C119.417 47.2153 118.984 46.4331 118.56 45.8153C118.137 45.1926 117.684 44.7392 117.2 44.4452C116.712 44.1513 116.114 44.0068 115.397 44.0068H111.994V45.7356H112.517C112.975 45.7356 113.414 45.9349 113.837 46.3385C114.261 46.742 114.694 47.3449 115.143 48.147C115.591 48.9542 116.094 49.9407 116.642 51.1165C117.195 52.3122 120.997 60.239 121.54 61.3949C122.093 62.5657 122.626 63.5522 123.149 64.3494C123.672 65.1416 124.225 65.7444 124.803 66.1629C125.077 66.3572 125.381 66.5017 125.7 66.6063L125.695 66.6113C125.695 66.6113 130.348 68.375 134.693 62.8198H134.728L135.346 66.7957H139.032V43.9918H134.633Z"
                    fill="#1C374D" />
            </g>
        </g>
    </g>
</svg>
    