<svg width="49" height="49" viewBox="0 0 49 49" fill="none" xmlns="http://www.w3.org/2000/svg">
<rect width="49" height="49" fill="#F5F5F5"/>
<g id="My Deals">
<path d="M-1360 -1029C-1360 -1030.1 -1359.1 -1031 -1358 -1031H5257C5258.1 -1031 5259 -1030.1 5259 -1029V1912C5259 1913.1 5258.1 1914 5257 1914H-1358C-1359.1 1914 -1360 1913.1 -1360 1912V-1029Z" fill="#404040"/>
<g id="My Deals_2" clip-path="url(#clip0_3_2)">
<rect width="1440" height="1391" transform="translate(-1150 -768)" fill="#FCFCFC"/>
<g id="Group 1000004607">
<rect id="Rectangle 19223" opacity="0.5" x="-360" y="-783" width="1004" height="1108" fill="url(#paint0_radial_3_2)" fill-opacity="0.61"/>
</g>
<g id="Rectangle 19229" filter="url(#filter0_d_3_2)">
<rect x="-997" y="-27" width="1139" height="104" rx="12" fill="white"/>
</g>
<g id="Group 1000005980">
<g id="Group 1000004894">
<rect id="Rectangle 19228" width="49" height="49" rx="6" fill="#DDDDDD"/>
</g>
<g id="Group 1000005016">
<path id="Vector" d="M17 15.4931H32M20.75 15.4931C22.7211 13.0596 26.2789 13.0596 28.25 15.4931M20.75 35.3346H28.25C29.6307 35.3346 30.75 34.1502 30.75 32.6891V20.7842C30.75 20.0537 30.1904 19.4614 29.5 19.4614H19.5C18.8096 19.4614 18.25 20.0537 18.25 20.7842V32.6891C18.25 34.1502 19.3693 35.3346 20.75 35.3346Z" stroke="black" stroke-width="2" stroke-linecap="round" stroke-linejoin="round"/>
<path id="-" d="M27 27V28.6667H22V27H27Z" fill="black"/>
</g>
</g>
</g>
<path d="M-1358 -1030H5257V-1032H-1358V-1030ZM5258 -1029V1912H5260V-1029H5258ZM5257 1913H-1358V1915H5257V1913ZM-1359 1912V-1029H-1361V1912H-1359ZM-1358 1913C-1358.55 1913 -1359 1912.55 -1359 1912H-1361C-1361 1913.66 -1359.66 1915 -1358 1915V1913ZM5258 1912C5258 1912.55 5257.55 1913 5257 1913V1915C5258.66 1915 5260 1913.66 5260 1912H5258ZM5257 -1030C5257.55 -1030 5258 -1029.55 5258 -1029H5260C5260 -1030.66 5258.66 -1032 5257 -1032V-1030ZM-1358 -1032C-1359.66 -1032 -1361 -1030.66 -1361 -1029H-1359C-1359 -1029.55 -1358.55 -1030 -1358 -1030V-1032Z" fill="white" fill-opacity="0.1"/>
</g>
<defs>
<filter id="filter0_d_3_2" x="-1004" y="-37" width="1167" height="132" filterUnits="userSpaceOnUse" color-interpolation-filters="sRGB">
<feFlood flood-opacity="0" result="BackgroundImageFix"/>
<feColorMatrix in="SourceAlpha" type="matrix" values="0 0 0 0 0 0 0 0 0 0 0 0 0 0 0 0 0 0 127 0" result="hardAlpha"/>
<feMorphology radius="1" operator="erode" in="SourceAlpha" result="effect1_dropShadow_3_2"/>
<feOffset dx="7" dy="4"/>
<feGaussianBlur stdDeviation="7.5"/>
<feComposite in2="hardAlpha" operator="out"/>
<feColorMatrix type="matrix" values="0 0 0 0 0 0 0 0 0 0 0 0 0 0 0 0 0 0 0.03 0"/>
<feBlend mode="normal" in2="BackgroundImageFix" result="effect1_dropShadow_3_2"/>
<feBlend mode="normal" in="SourceGraphic" in2="effect1_dropShadow_3_2" result="shape"/>
</filter>
<radialGradient id="paint0_radial_3_2" cx="0" cy="0" r="1" gradientUnits="userSpaceOnUse" gradientTransform="translate(142 -229) rotate(90) scale(554 502)">
<stop stop-color="#B8C9D8"/>
<stop offset="1" stop-color="white" stop-opacity="0"/>
</radialGradient>
<clipPath id="clip0_3_2">
<rect width="1440" height="1391" fill="white" transform="translate(-1150 -768)"/>
</clipPath>
</defs>
</svg>
