<svg viewBox="0 0 150 106" fill="none" xmlns="http://www.w3.org/2000/svg">
<path d="M149.419 92.5547H0V92.6291H149.419V92.5547Z" fill="#EBEBEB"/>
<path d="M23.094 95.3906H15.3242V95.4651H23.094V95.3906Z" fill="#EBEBEB"/>
<path d="M56.8327 94.583H43.376V94.6574H56.8327V94.583Z" fill="#EBEBEB"/>
<path d="M41.5599 98.1553H23.3936V98.2297H41.5599V98.1553Z" fill="#EBEBEB"/>
<path d="M134.095 97.6553H128.349V97.7297H134.095V97.6553Z" fill="#EBEBEB"/>
<path d="M125.684 97.6553H109.161V97.7297H125.684V97.6553Z" fill="#EBEBEB"/>
<path d="M99.0699 96.3955H76.8154V96.4699H99.0699V96.3955Z" fill="#EBEBEB"/>
<path d="M79.1531 60.4336H66.5869V92.5543H79.1531V60.4336Z" fill="#F0F0F0"/>
<path d="M21.6228 92.5527H66.5859V60.432L21.6228 60.432L21.6228 92.5527Z" fill="#F5F5F5"/>
<path d="M24.378 89.4238H31.8818V82.883H24.378V89.4238Z" fill="white"/>
<path d="M24.378 80.4814H31.8818V73.9406H24.378V80.4814Z" fill="#EBEBEB"/>
<path opacity="0.7" d="M79.1501 64.5771H21.4893V65.8663H79.1501V64.5771Z" fill="#E6E6E6"/>
<path d="M79.8464 59.8096H66.5869V65.0107H79.8464V59.8096Z" fill="#F0F0F0"/>
<path d="M20.9245 65.0146H66.584V59.8135L20.9245 59.8135V65.0146Z" fill="#F5F5F5"/>
<path d="M74.3871 49.9902H64.6211V59.8893H74.3871V49.9902Z" fill="#F0F0F0"/>
<path d="M30.6144 59.8916L64.6191 59.8916V49.9925H30.6144V59.8916Z" fill="#F5F5F5"/>
<path opacity="0.7" d="M74.3871 51.4844H30.5146V52.2852H74.3871V51.4844Z" fill="#E6E6E6"/>
<path d="M74.927 49.5078H64.623V51.8211H74.927V49.5078Z" fill="#F0F0F0"/>
<path d="M30.0804 51.8203L64.623 51.8203V49.5071L30.0804 49.5071V51.8203Z" fill="#F5F5F5"/>
<path d="M85.8874 92.5527H95.4473V44.3583H85.8874V92.5527Z" fill="#E6E6E6"/>
<path d="M87.9357 92.5545H85.8887V89.1367H90.0814L87.9357 92.5545Z" fill="#F0F0F0"/>
<path d="M117.78 92.5527H127.34V44.3583H117.78V92.5527Z" fill="#E6E6E6"/>
<path d="M85.8884 91.8623H119.564V44.3586L85.8884 44.3586V91.8623Z" fill="#F0F0F0"/>
<path d="M87.4781 59.4922L117.978 59.4922V46.4641H87.4781V59.4922Z" fill="#E6E6E6"/>
<path d="M104.729 52.7018C104.729 53.8033 103.833 54.6995 102.724 54.6995C101.618 54.6995 100.719 53.8063 100.719 52.7018C100.719 51.6002 101.615 50.7041 102.724 50.7041C103.833 50.7041 104.729 51.5972 104.729 52.7018Z" fill="#FAFAFA"/>
<path d="M117.518 92.5545H119.565V89.1367H115.372L117.518 92.5545Z" fill="#F0F0F0"/>
<path d="M117.975 61.5967H87.4756V89.7577H117.975V61.5967Z" fill="#E6E6E6"/>
<path d="M113.764 67.7932C114.871 67.7932 115.769 66.8988 115.769 65.7955C115.769 64.6922 114.871 63.7979 113.764 63.7979C112.657 63.7979 111.759 64.6922 111.759 65.7955C111.759 66.8988 112.657 67.7932 113.764 67.7932Z" fill="#FAFAFA"/>
<path d="M124.094 38.9969L124.094 0.00195312L25.7641 0.00195312L25.7641 38.9969L124.094 38.9969Z" fill="#E6E6E6"/>
<path d="M123.659 38.995L123.659 0L25.3295 0L25.3295 38.995L123.659 38.995Z" fill="#F0F0F0"/>
<path d="M121.159 2.49512H27.832V36.5033H121.159V2.49512Z" fill="white"/>
<path d="M38.7139 16.6641L35.4326 22.3326H41.9981L38.7139 16.6641Z" fill="#E6E6E6"/>
<path d="M55.7498 16.8271H50.3887V22.1682H55.7498V16.8271Z" fill="#E6E6E6"/>
<path d="M67.4253 16.0801L63.8184 18.6911L65.196 22.9157H69.6517L71.0293 18.6911L67.4253 16.0801Z" fill="#E6E6E6"/>
<path d="M83.6732 16.2266H79.884L77.9863 19.4985L79.884 22.7704H83.6732L85.5708 19.4985L83.6732 16.2266Z" fill="#E6E6E6"/>
<path d="M96.1351 15.9082L93.1706 17.3313L92.4385 20.5258L94.4885 23.0891H97.7787L99.8317 20.5258L99.0996 17.3313L96.1351 15.9082Z" fill="#E6E6E6"/>
<path d="M111.941 16.0088H109.039L106.986 18.0541V20.9449L109.039 22.9873H111.941L113.991 20.9449V18.0541L111.941 16.0088Z" fill="#E6E6E6"/>
<path d="M74.7093 106C106.71 106 132.651 104.491 132.651 102.63C132.651 100.769 106.71 99.2598 74.7093 99.2598C42.709 99.2598 16.7676 100.769 16.7676 102.63C16.7676 104.491 42.709 106 74.7093 106Z" fill="#F5F5F5"/>
<path d="M71.5442 17.2627H120.748C121.797 17.2627 122.604 18.1171 122.538 19.1651L118.528 83.5702C118.462 84.6152 117.55 85.4726 116.501 85.4726H67.2948C66.2458 85.4726 65.439 84.6182 65.5047 83.5702L69.5151 19.1651C69.5809 18.1201 70.4953 17.2627 71.5442 17.2627Z" fill="#407BFF"/>
<path d="M71.5442 17.2627H120.748C121.797 17.2627 122.604 18.1171 122.538 19.1651L118.528 83.5702C118.462 84.6152 117.55 85.4726 116.501 85.4726H67.2948C66.2458 85.4726 65.439 84.6182 65.5047 83.5702L69.5151 19.1651C69.5809 18.1201 70.4953 17.2627 71.5442 17.2627Z" fill="#111C26"/>
<path d="M70.4153 17.2627H119.619C120.668 17.2627 121.475 18.1171 121.409 19.1651L117.399 83.5702C117.333 84.6152 116.421 85.4726 115.373 85.4726H66.1659C65.1169 85.4726 64.3101 84.6182 64.3758 83.5702L68.3862 19.1651C68.452 18.1201 69.3634 17.2627 70.4153 17.2627Z" fill="#1C2F40"/>
<path opacity="0.4" d="M67.041 81.9945L114.936 82.5661L118.821 20.1885H70.893L67.041 81.9945Z" fill="black"/>
<path d="M65.6426 81.3637C81.8097 81.3637 97.9769 81.3637 114.144 81.3637C116.816 56.9777 117.637 43.8157 118.002 19.4297C101.835 19.4297 85.6677 19.4297 69.5006 19.4297C69.136 43.8127 68.3172 56.9777 65.6426 81.3637Z" fill="white"/>
<path opacity="0.3" d="M112.21 36.3906H103.858C103.687 36.3906 103.526 36.3191 103.409 36.197C103.293 36.072 103.233 35.9083 103.242 35.7386L103.759 27.4203C103.78 27.0958 104.049 26.8428 104.375 26.8428H112.727C112.898 26.8428 113.059 26.9142 113.175 27.0363C113.292 27.1613 113.352 27.3251 113.343 27.4948L112.826 35.813C112.805 36.1375 112.536 36.3906 112.21 36.3906ZM104.515 35.161H111.63L112.073 28.0694H104.957L104.515 35.161Z" fill="#1C2F40"/>
<path opacity="0.3" d="M111.418 49.0644H103.069C102.898 49.0644 102.737 48.993 102.62 48.8709C102.504 48.7489 102.444 48.5821 102.453 48.4124L102.97 40.0912C102.991 39.7667 103.26 39.5137 103.586 39.5137H111.938C112.108 39.5137 112.27 39.5851 112.386 39.7072C112.503 39.8293 112.563 39.996 112.554 40.1657L112.037 48.4869C112.013 48.8114 111.744 49.0644 111.418 49.0644ZM103.723 47.8349H110.838L111.281 40.7432H104.165L103.723 47.8349Z" fill="#1C2F40"/>
<path opacity="0.3" d="M110.629 61.7353H102.277C102.106 61.7353 101.945 61.6639 101.828 61.5418C101.712 61.4168 101.652 61.253 101.661 61.0833L102.178 52.7621C102.199 52.4376 102.468 52.1846 102.794 52.1846H111.143C111.314 52.1846 111.475 52.256 111.591 52.3781C111.708 52.5001 111.768 52.6669 111.759 52.8366L111.245 61.1607C111.224 61.4823 110.955 61.7353 110.629 61.7353ZM102.934 60.5087H110.049L110.492 53.4171H103.376L102.934 60.5087Z" fill="#1C2F40"/>
<path opacity="0.3" d="M109.84 74.4092H101.491C101.32 74.4092 101.159 74.3377 101.042 74.2156C100.926 74.0906 100.866 73.9269 100.875 73.7572L101.392 65.436C101.413 65.1115 101.682 64.8584 102.008 64.8584H110.36C110.53 64.8584 110.692 64.9299 110.808 65.0519C110.925 65.177 110.985 65.3407 110.976 65.5104L110.459 73.8316C110.435 74.1561 110.166 74.4092 109.84 74.4092ZM102.145 73.1796H109.26L109.703 66.088H102.587L102.145 73.1796Z" fill="#1C2F40"/>
<path opacity="0.3" d="M77.6616 30.5292H96.5751C97.1488 30.5292 97.6479 30.0618 97.6838 29.4902C97.7196 28.9186 97.2773 28.4512 96.7036 28.4512H77.7901C77.2163 28.4512 76.7173 28.9186 76.6814 29.4902C76.6485 30.0618 77.0878 30.5292 77.6616 30.5292Z" fill="#1C2F40"/>
<path opacity="0.3" d="M80.993 34.7851H96.3084C96.8822 34.7851 97.3812 34.3177 97.4171 33.7461C97.453 33.1744 97.0107 32.707 96.4369 32.707H81.1215C80.5477 32.707 80.0486 33.1744 80.0128 33.7461C79.9769 34.3147 80.4192 34.7851 80.993 34.7851Z" fill="#1C2F40"/>
<path opacity="0.3" d="M76.7377 45.3789H95.6511C96.2249 45.3789 96.6672 45.8463 96.6313 46.4179C96.5955 46.9896 96.0964 47.457 95.5226 47.457H76.6092C76.0354 47.457 75.5931 46.9896 75.629 46.4179C75.6648 45.8463 76.1639 45.3789 76.7377 45.3789Z" fill="#1C2F40"/>
<path opacity="0.3" d="M80.598 41.1211H95.9135C96.4872 41.1211 96.9295 41.5885 96.8937 42.1601C96.8578 42.7317 96.3587 43.1992 95.785 43.1992H80.4695C79.8958 43.1992 79.4535 42.7317 79.4893 42.1601C79.5252 41.5885 80.0243 41.1211 80.598 41.1211Z" fill="#1C2F40"/>
<path opacity="0.3" d="M76.0828 55.873H94.9963C95.57 55.873 96.0691 55.4056 96.105 54.834C96.1408 54.2623 95.6985 53.7949 95.1248 53.7949H76.2113C75.6375 53.7949 75.1385 54.2623 75.1026 54.834C75.0668 55.4056 75.509 55.873 76.0828 55.873Z" fill="#1C2F40"/>
<path opacity="0.3" d="M87.1229 60.1308H94.7313C95.305 60.1308 95.8041 59.6634 95.84 59.0918C95.8758 58.5202 95.4335 58.0527 94.8598 58.0527H87.2514C86.6776 58.0527 86.1785 58.5202 86.1427 59.0918C86.1068 59.6634 86.5461 60.1308 87.1229 60.1308Z" fill="#1C2F40"/>
<path opacity="0.3" d="M79.4158 60.1308H83.4292C84.003 60.1308 84.502 59.6634 84.5379 59.0918C84.5738 58.5202 84.1315 58.0527 83.5577 58.0527H79.5443C78.9705 58.0527 78.4715 58.5202 78.4356 59.0918C78.3998 59.6634 78.842 60.1308 79.4158 60.1308Z" fill="#1C2F40"/>
<path opacity="0.3" d="M75.2947 68.5468H94.2082C94.782 68.5468 95.281 68.0794 95.3169 67.5078C95.3527 66.9362 94.9105 66.4688 94.3367 66.4688H75.4232C74.8495 66.4688 74.3504 66.9362 74.3145 67.5078C74.2787 68.0764 74.721 68.5468 75.2947 68.5468Z" fill="#1C2F40"/>
<path opacity="0.3" d="M78.6268 72.8017H93.9422C94.516 72.8017 95.0151 72.3343 95.0509 71.7627C95.0868 71.191 94.6445 70.7236 94.0707 70.7236H78.7553C78.1815 70.7236 77.6824 71.191 77.6466 71.7627C77.6107 72.3343 78.05 72.8017 78.6268 72.8017Z" fill="#1C2F40"/>
<path d="M107.614 34.1126C107.494 34.1126 107.372 34.0769 107.267 34.0054L104.049 31.8142C103.768 31.6237 103.696 31.2396 103.887 30.9598C104.079 30.6799 104.461 30.6085 104.745 30.799L107.494 32.6687C108.498 31.4629 111.361 28.191 113.743 27.1341C114.054 26.9972 114.418 27.1341 114.556 27.4437C114.693 27.7534 114.556 28.1166 114.245 28.2535C111.645 29.4087 108.134 33.8268 108.101 33.8714C107.978 34.0322 107.799 34.1126 107.614 34.1126Z" fill="#1C2F40"/>
<path d="M106.117 46.5402C105.961 46.5402 105.809 46.4836 105.689 46.3675L102.889 43.6761C102.644 43.4409 102.638 43.0509 102.874 42.8068C103.11 42.5627 103.502 42.5567 103.747 42.7919L106.132 45.0814C107.312 44.0304 110.62 41.2319 113.112 40.5501C113.441 40.4608 113.779 40.6543 113.868 40.9818C113.958 41.3093 113.764 41.6457 113.435 41.735C110.71 42.4763 106.583 46.3318 106.541 46.3705C106.418 46.4836 106.269 46.5402 106.117 46.5402Z" fill="#1C2F40"/>
<path opacity="0.4" d="M100.879 20.9038L101.787 20.9127C102.794 20.9216 103.625 20.1089 103.631 19.1085L103.643 17.4473C103.643 17.3431 103.562 17.2627 103.461 17.2627H100.926C100.813 17.2627 100.72 17.358 100.717 17.4681L100.693 20.7192C100.696 20.8234 100.777 20.9038 100.879 20.9038Z" fill="black"/>
<path d="M87.1257 14.252H102.384C103.332 14.252 104.001 15.023 103.873 15.9668L103.412 19.3548C103.284 20.2986 102.405 21.0697 101.458 21.0697H86.1993C85.252 21.0697 84.5826 20.2986 84.7111 19.3548L85.1713 15.9668C85.2998 15.023 86.1784 14.252 87.1257 14.252Z" fill="#407BFF"/>
<path d="M87.1257 14.252H102.384C103.332 14.252 104.001 15.023 103.873 15.9668L103.412 19.3548C103.284 20.2986 102.405 21.0697 101.458 21.0697H86.1993C85.252 21.0697 84.5826 20.2986 84.7111 19.3548L85.1713 15.9668C85.2998 15.023 86.1784 14.252 87.1257 14.252Z" fill="#1C2F40"/>
<path opacity="0.5" d="M101.99 15.8897H95.1321C94.8781 15.8897 94.6689 15.6843 94.6689 15.4283C94.6689 15.1722 94.8751 14.9668 95.1321 14.9668H101.99C102.244 14.9668 102.454 15.1722 102.454 15.4283C102.454 15.6843 102.244 15.8897 101.99 15.8897Z" fill="white"/>
<path opacity="0.5" d="M92.8309 15.8897H92.1077C91.8537 15.8897 91.6445 15.6843 91.6445 15.4283C91.6445 15.1722 91.8507 14.9668 92.1077 14.9668H92.8309C93.0849 14.9668 93.2941 15.1722 93.2941 15.4283C93.2941 15.6843 93.0879 15.8897 92.8309 15.8897Z" fill="white"/>
<path d="M50.6416 81.9119L53.5911 82.4716L60.563 49.8061L56.2329 48.9844L50.6416 81.9119Z" fill="#407BFF"/>
<path d="M61.0088 27.1263L64.5411 25.9712L64.7861 24.694L61.4959 24.5928L61.0088 27.1263Z" fill="#263238"/>
<path d="M60.9183 26.3851L64.9406 25.0811L60.8077 48.5292L56.4775 47.7075L60.9183 26.3851Z" fill="#407BFF"/>
<path d="M56.4072 49.0184L60.3848 49.7744L60.6295 48.4964L56.6519 47.7404L56.4072 49.0184Z" fill="#263238"/>
<path d="M51.1735 85.7797C51.1377 85.9732 51.2184 86.1518 51.3558 86.1786C51.4933 86.2054 51.6338 86.0685 51.6726 85.8749C51.7085 85.6814 51.6278 85.5028 51.4903 85.476C51.3499 85.4492 51.2094 85.5862 51.1735 85.7797Z" fill="#407BFF"/>
<path d="M50.9703 85.8033L51.8489 85.97L53.5911 82.4718L50.6416 81.9121L50.9703 85.8033Z" fill="#407BFF"/>
<path d="M56.2836 41.7679C56.2298 41.7679 56.179 41.756 56.1282 41.7322C55.9429 41.6459 55.8622 41.4256 55.9489 41.241C57.8017 37.2873 59.3048 29.0227 59.5051 27.0577C59.5648 26.4772 59.9354 25.974 60.4733 25.7418L61.4505 25.322C61.6388 25.2417 61.8569 25.328 61.9406 25.5156C62.0213 25.7031 61.9346 25.9205 61.7464 26.0038L60.7692 26.4236C60.4793 26.5486 60.2791 26.8196 60.2462 27.1322C60.034 29.1953 58.5398 37.457 56.6243 41.5536C56.5585 41.6905 56.4241 41.7679 56.2836 41.7679Z" fill="#263238"/>
<path d="M42.517 25.983C41.7729 27.2543 41.0199 28.6 40.3146 29.9248C39.965 30.5917 39.6243 31.2615 39.2956 31.9314C38.9818 32.6042 38.668 33.2771 38.3991 33.9499L38.3483 34.072C38.3483 34.075 38.3423 34.066 38.3423 34.075C38.3363 34.0809 38.3273 34.1047 38.3214 34.1375C38.3064 34.203 38.3004 34.3072 38.3004 34.4292C38.3034 34.6764 38.3542 34.986 38.426 35.3045C38.5813 35.9446 38.8085 36.6353 39.0834 37.3171C39.3494 38.0048 39.6542 38.6926 39.9709 39.3803C40.2787 40.071 40.6254 40.7647 40.9541 41.4345L39.5346 42.3991C38.4768 41.1636 37.5444 39.8775 36.7196 38.4484C36.3191 37.728 35.9277 36.9866 35.6318 36.1381C35.4824 35.7124 35.3479 35.2599 35.2732 34.7329C35.2344 34.4679 35.2164 34.1821 35.2374 33.8606C35.2493 33.6998 35.2672 33.5301 35.3091 33.3485C35.327 33.2622 35.3569 33.164 35.3808 33.0717L35.4286 32.9198C35.9187 31.333 36.5463 29.8414 37.2396 28.3915C37.9418 26.9387 38.6919 25.5573 39.5645 24.1699L42.517 25.983Z" fill="#FFC3BD"/>
<path d="M40.748 41.0059L42.0838 42.0419L40.0457 43.721C40.0457 43.721 39.1133 42.8249 39.2597 41.7293L40.748 41.0059Z" fill="#FFC3BD"/>
<path d="M42.6279 43.5544L41.2682 45.296L40.043 43.7181L42.084 42.042L42.6279 43.5544Z" fill="#FFC3BD"/>
<path d="M50.2188 13.5742C50.2546 13.7558 50.3801 13.8809 50.4997 13.8571C50.6192 13.8332 50.685 13.6665 50.6461 13.4879C50.6103 13.3063 50.4847 13.1812 50.3652 13.2051C50.2487 13.2259 50.1829 13.3926 50.2188 13.5742Z" fill="#263238"/>
<path d="M50.3652 13.8838C50.3652 13.8838 50.9898 14.8395 51.5427 15.2503C51.2827 15.6135 50.7119 15.5867 50.7119 15.5867L50.3652 13.8838Z" fill="#ED847E"/>
<path d="M49.3515 12.7051C49.3246 12.7051 49.2977 12.6962 49.2768 12.6754C49.232 12.6337 49.229 12.5652 49.2708 12.5235C49.6772 12.0859 50.1733 12.1633 50.1942 12.1663C50.254 12.1752 50.2928 12.2318 50.2839 12.2913C50.2749 12.3509 50.2181 12.3896 50.1584 12.3806C50.1434 12.3776 49.7549 12.3211 49.4322 12.6724C49.4113 12.6932 49.3814 12.7051 49.3515 12.7051Z" fill="#263238"/>
<path d="M45.0639 16.1074C45.3926 17.7746 45.7183 20.8322 44.5469 21.9457C44.5469 21.9457 45.0041 23.6367 48.115 23.6367C51.5367 23.6367 49.7496 21.9457 49.7496 21.9457C47.8819 21.5021 47.9297 20.1206 48.2555 18.8256L45.0639 16.1074Z" fill="#FFC3BD"/>
<path d="M43.8858 22.0719C43.6378 21.4824 44.1697 19.6961 44.7375 19.5234C45.3621 19.3299 47.7348 19.4371 48.9122 19.9283C49.749 20.7738 49.9911 22.5304 49.9911 22.5304L43.8858 22.0719Z" fill="#263238"/>
<path d="M34.1143 100.035C34.3444 100.085 34.5745 100.097 34.6851 100.005C34.7329 99.9662 34.7777 99.8888 34.7388 99.7548C34.7179 99.6834 34.6701 99.6298 34.5984 99.597C34.2906 99.4511 33.5794 99.7369 33.5495 99.7518C33.5286 99.7608 33.5166 99.7786 33.5166 99.7995C33.5166 99.8203 33.5286 99.8411 33.5465 99.8501C33.6511 99.8977 33.8842 99.984 34.1143 100.035ZM34.4848 99.6714C34.5087 99.6774 34.5297 99.6834 34.5476 99.6923C34.5894 99.7131 34.6163 99.7429 34.6313 99.7846C34.6612 99.8828 34.6253 99.9126 34.6133 99.9215C34.4908 100.026 34.0336 99.9305 33.7108 99.8024C33.929 99.725 34.2816 99.6268 34.4848 99.6714Z" fill="#407BFF"/>
<path d="M33.5549 99.8492C33.5638 99.8522 33.5728 99.8522 33.5818 99.8492C33.8418 99.7748 34.3946 99.3818 34.4006 99.1228C34.4006 99.0751 34.3856 98.9918 34.2631 98.9471C34.1824 98.9203 34.1017 98.9263 34.024 98.965C33.7192 99.1198 33.525 99.7509 33.516 99.7777C33.51 99.7956 33.516 99.8164 33.528 99.8313C33.5369 99.8432 33.5459 99.8492 33.5549 99.8492ZM34.2033 99.0424C34.2123 99.0453 34.2183 99.0454 34.2273 99.0483C34.293 99.0721 34.293 99.1049 34.293 99.1198C34.29 99.2716 33.9224 99.5812 33.6565 99.7033C33.7222 99.5217 33.8776 99.1615 34.0719 99.0632C34.1167 99.0424 34.1585 99.0334 34.2033 99.0424Z" fill="#407BFF"/>
<path d="M50.6373 100.418C50.9302 100.418 51.2141 100.377 51.3097 100.246C51.3426 100.201 51.3695 100.121 51.3037 100.011C51.2679 99.9481 51.2111 99.9064 51.1334 99.8856C50.7539 99.7814 49.953 100.237 49.9171 100.255C49.8962 100.267 49.8872 100.288 49.8902 100.311C49.8932 100.332 49.9111 100.35 49.932 100.356C50.0815 100.383 50.3654 100.418 50.6373 100.418ZM51.0019 99.9749C51.0407 99.9749 51.0766 99.9779 51.1065 99.9868C51.1573 100.002 51.1902 100.026 51.2141 100.061C51.2529 100.13 51.238 100.162 51.226 100.18C51.1184 100.329 50.5417 100.332 50.1143 100.273C50.3235 100.165 50.7329 99.9749 51.0019 99.9749Z" fill="#407BFF"/>
<path d="M49.947 100.356C49.956 100.356 49.9619 100.353 49.9679 100.35C50.2428 100.228 50.7927 99.7336 50.7509 99.4745C50.7419 99.415 50.6971 99.3376 50.5477 99.3227C50.4371 99.3108 50.3355 99.3435 50.2458 99.415C49.956 99.6532 49.8932 100.266 49.8902 100.293C49.8872 100.311 49.8962 100.332 49.9111 100.341C49.9231 100.35 49.935 100.356 49.947 100.356ZM50.5058 99.4299C50.5178 99.4299 50.5267 99.4299 50.5387 99.4329C50.6373 99.4418 50.6433 99.4805 50.6433 99.4924C50.6672 99.6472 50.2966 100.034 50.0157 100.204C50.0456 100.025 50.1263 99.6562 50.3176 99.5013C50.3743 99.4537 50.4371 99.4299 50.5058 99.4299Z" fill="#407BFF"/>
<path d="M47.4307 100.299H49.7198L49.9469 95.0205H47.6578L47.4307 100.299Z" fill="#FFC3BD"/>
<path d="M30.9111 99.2454L33.2092 99.7277L34.8319 94.8094L32.5308 94.3271L30.9111 99.2454Z" fill="#FFC3BD"/>
<path d="M33.4564 99.5047L30.9432 98.9629C30.8506 98.942 30.7579 98.9897 30.7191 99.073L29.8465 100.958C29.7568 101.154 29.8764 101.383 30.0885 101.425C30.9701 101.601 31.4064 101.639 32.5121 101.878C33.1935 102.023 34.7265 102.396 35.6649 102.598C36.5823 102.797 36.9289 101.901 36.5614 101.735C34.9178 100.987 34.2334 100.329 33.7882 99.7161C33.7105 99.6089 33.5909 99.5315 33.4564 99.5047Z" fill="#263238"/>
<path d="M49.705 100.038H47.2037C47.1111 100.038 47.0304 100.104 47.0095 100.193L46.5582 102.22C46.5104 102.432 46.6718 102.628 46.887 102.625C47.7895 102.61 49.0924 102.557 50.225 102.557C51.5488 102.557 51.0348 102.628 52.5888 102.628C53.5272 102.628 53.7901 101.681 53.3957 101.595C51.6056 101.205 51.8029 101.163 50.2549 100.214C50.0875 100.113 49.9023 100.038 49.705 100.038Z" fill="#263238"/>
<path d="M40.4499 22.4616C38.3043 22.9529 36.5352 28.407 36.5352 28.407L40.8444 31.6789C40.8444 31.6789 42.4253 30.1933 43.1305 27.4633C43.8686 24.6052 42.6434 21.9615 40.4499 22.4616Z" fill="#263238"/>
<path opacity="0.2" d="M42.2909 26.4746C41.1254 27.6238 40.7459 29.7167 40.6562 31.5358L40.8475 31.6817C40.8475 31.6817 42.4314 30.1961 43.1336 27.466C43.1784 27.2963 43.2143 27.1236 43.2472 26.9569L42.2909 26.4746Z" fill="black"/>
<path d="M53.2744 22.5802C53.2744 22.5802 55.7099 25.3221 53.4088 42.292C49.7212 42.292 42.9615 42.292 41.1655 42.292C41.0818 40.4194 42.2622 31.2854 40.4482 22.4641C40.4482 22.4641 42.5461 22.0443 44.5483 21.949C46.1142 21.8746 48.3764 21.824 49.7541 21.949C51.565 22.1128 53.2744 22.5802 53.2744 22.5802Z" fill="#263238"/>
<path opacity="0.2" d="M49.9467 95.0205L49.8302 97.7416H47.5381L47.6546 95.0205H49.9467Z" fill="black"/>
<path opacity="0.2" d="M32.5301 94.3271L34.8282 94.8094L33.9914 97.346L31.6934 96.8637L32.5301 94.3271Z" fill="black"/>
<path d="M44.107 14.4138C44.6957 16.5991 44.9288 17.909 46.2825 18.8171C48.3206 20.1836 50.8547 18.6146 50.9354 16.2984C51.0071 14.2114 50.0329 10.9871 47.6781 10.5465C45.3561 10.1118 43.5183 12.2256 44.107 14.4138Z" fill="#FFC3BD"/>
<path d="M46.2945 18.5634C46.2855 18.5634 46.2736 18.5634 46.2646 18.5634C45.5474 18.5634 44.872 18.227 44.4506 17.6435C43.7633 16.6878 42.7981 15.0325 42.6875 13.1182C43.5601 12.2012 46.8384 11.5969 48.2997 11.9273C49.5159 12.2042 49.3396 15.6548 48.1891 17.5185C47.7857 18.1734 47.0625 18.5605 46.2945 18.5634Z" fill="#FFC3BD"/>
<path d="M46.2945 18.5634C46.2855 18.5634 46.2736 18.5634 46.2646 18.5634C45.5474 18.5634 44.872 18.227 44.4506 17.6435C43.7633 16.6878 42.7981 15.0325 42.6875 13.1182C43.5601 12.2012 46.8384 11.5969 48.2997 11.9273C49.5159 12.2042 49.3396 15.6548 48.1891 17.5185C47.7857 18.1734 47.0625 18.5605 46.2945 18.5634Z" fill="#263238"/>
<path d="M44.0166 13.8959C42.9856 13.8214 42.4029 13.1754 42.2146 12.6216C41.9547 11.8476 42.2326 10.2161 43.7925 10.1655C45.3524 10.1149 45.5198 9.23065 45.0387 9.04904C46.0607 9.12347 45.735 9.83501 45.735 9.83501C46.0099 9.85288 46.2669 9.10858 47.8179 9.16515C49.3688 9.22172 50.1428 8.89125 49.9426 8.5459C50.6807 8.69476 50.4745 9.58791 49.85 9.82906C49.85 9.82906 51.3262 10.9455 51.6759 10.3322C51.9239 10.7788 51.4338 11.3117 49.5661 11.0705C50.3102 12.1066 48.547 11.8744 47.7969 12.3477C47.0469 12.8181 45.0476 13.9703 44.0166 13.8959Z" fill="#263238"/>
<path d="M47.8395 14.3098C47.9889 14.8844 48.3684 15.3756 48.7629 15.6704C49.3576 16.111 49.8028 15.6763 49.761 15.0065C49.7222 14.4021 49.3665 13.4434 48.7091 13.2648C48.0636 13.0892 47.6691 13.6548 47.8395 14.3098Z" fill="#FFC3BD"/>
<path d="M49.0676 42.292C49.0676 42.292 46.4707 59.7204 45.0422 66.2493C43.4793 73.4005 35.1059 97.0541 35.1059 97.0541L31.0088 96.1699C31.0088 96.1699 36.866 76.8927 38.1749 66.8954C39.182 59.2172 41.1663 42.2891 41.1663 42.2891H49.0676V42.292Z" fill="#394951"/>
<path d="M36.089 95.6911C36.1069 95.6941 35.324 97.1678 35.324 97.1678L30.7129 96.1734L31.1014 94.792L36.089 95.6911Z" fill="#407BFF"/>
<path opacity="0.3" d="M47.425 48.5026C44.4217 49.0891 44.7385 60.2505 45.1001 65.9905C45.9667 61.9326 47.2338 54.1265 48.1004 48.586C47.9032 48.4818 47.679 48.452 47.425 48.5026Z" fill="black"/>
<path d="M53.41 42.292C53.41 42.292 53.7238 59.3423 53.4758 66.297C53.2158 73.5315 50.6816 97.2149 50.6816 97.2149H46.8027C46.8027 97.2149 46.6593 73.9513 46.4889 66.8477C46.3007 59.1041 45.3623 42.2891 45.3623 42.2891H53.41V42.292Z" fill="#394951"/>
<path d="M51.4285 95.6768C51.4465 95.6768 51.2104 97.2815 51.2104 97.2815H46.4947L46.3662 95.8494L51.4285 95.6768Z" fill="#407BFF"/>
<path d="M53.3317 22.2763C53.9324 22.5264 54.5092 22.97 54.6825 24.4407C54.8498 25.8549 54.5271 38.2488 54.1356 42.2085C54.1087 42.4824 53.9085 42.7384 53.6306 42.7503C51.1831 42.8575 43.6016 41.8363 41.0405 42.2829C40.7477 42.3335 40.4847 42.009 40.4996 41.7113C40.6998 37.8558 40.41 31.6336 39.9378 27.6799C39.63 25.0987 39.627 22.4014 41.8026 21.9399C43.4103 21.6065 50.9948 21.3087 53.3317 22.2763Z" fill="#263238"/>
<path d="M54.28 25.7041C54.4175 26.3591 54.5639 27.0706 54.7283 27.7494C54.8956 28.4342 55.063 29.1159 55.2542 29.7858C55.4395 30.4557 55.6427 31.1136 55.8728 31.7418C56.097 32.367 56.351 32.9773 56.6349 33.4656C56.7723 33.7067 56.9188 33.9241 57.0353 34.0491C57.0921 34.1116 57.1369 34.1503 57.1459 34.1652C57.1459 34.1682 57.1429 34.192 57.2057 34.2099C57.3103 34.2545 57.5433 34.2932 57.8123 34.2843C58.0813 34.2754 58.3831 34.2426 58.6969 34.189C59.955 33.9598 61.3446 33.4983 62.6595 33.0279L63.5291 34.5046C62.2859 35.4662 60.9979 36.2611 59.426 36.8387C59.0316 36.9816 58.6132 37.1037 58.153 37.1811C57.6898 37.2555 57.1788 37.3091 56.5661 37.2049C56.2673 37.1573 55.9177 37.0441 55.5949 36.8774C55.2871 36.7077 55.0421 36.5172 54.8329 36.3296C54.4175 35.9456 54.1306 35.5645 53.8736 35.1894C52.9114 33.6889 52.4033 32.233 51.9282 30.7623C51.704 30.027 51.4979 29.2916 51.3245 28.5533C51.1512 27.806 50.9898 27.0885 50.8613 26.3025L54.28 25.7041Z" fill="#FFC3BD"/>
<path d="M49.2447 24.8106C47.3859 28.535 51.8027 32.7447 51.8027 32.7447L56.7276 30.1814C56.7276 30.1814 56.2076 27.0018 55.0451 24.4295C53.6107 21.2529 50.3145 22.667 49.2447 24.8106Z" fill="#263238"/>
<path d="M62.2021 33.2479L63.8727 32.1553L64.566 34.6442C64.566 34.6442 63.8159 35.5165 62.4502 34.5668L62.2021 33.2479Z" fill="#FFC3BD"/>
<path d="M65.3274 33.1604L65.2736 33.6814C65.2467 33.9345 65.1271 34.1667 64.9329 34.3304L64.5683 34.643L63.875 32.1541L64.0902 32.0975C64.7566 31.9249 65.3961 32.4727 65.3274 33.1604Z" fill="#FFC3BD"/>
</svg>
