<svg width="114" height="118" viewBox="0 0 114 118" fill="none" xmlns="http://www.w3.org/2000/svg">
<path d="M33.7569 71.171C33.7569 71.171 33.6839 55.6411 26.4197 51.6912C19.1554 47.7414 5.49445 45.5316 4.35066 23.2618C3.68097 10.2244 3.19561 4.52948 2.90854 2.0483C2.79632 1.08045 3.63591 0.273073 4.59808 0.425893C11.4022 1.50825 33.5375 6.13116 38.5741 21.0101C44.5454 38.6497 33.7569 71.171 33.7569 71.171Z" fill="#BDD0FB"/>
<path d="M10.0093 6.47698C17.6269 12.8927 26.5514 24.3776 31.4641 35.9766C32.1067 37.8929 33.9432 41.955 34.8977 49.2376C35.7382 55.3103 35.5899 61.7567 34.9027 66.041C34.8594 66.312 34.6043 66.4963 34.3339 66.4526C33.8684 66.3778 33.9157 65.8778 33.9202 65.8936C34.6363 58.5871 33.995 49.537 31.6462 41.4213C28.6569 31.4592 22.3508 21.8978 15.8792 13.8204L15.2145 13.0257C10.2063 6.95663 9.18778 6.93995 9.62717 6.49456C9.73083 6.38953 9.89802 6.38367 10.0093 6.47698Z" fill="url(#paint0_linear_2_12955)"/>
<path d="M46.0908 100.682C47.071 101.129 36.589 88.6877 32.8494 68.786C31.0873 59.4076 30.7317 47.6049 25.2372 43.2087C20.6643 39.5501 5.53825 42.3734 0.592666 43.4233C-0.0251936 43.5545 -0.212219 44.3456 0.28306 44.7378C2.72431 46.6726 7.95877 51.2514 9.42342 55.9748C11.3536 62.2003 17.4317 66.0221 22.8023 66.9499C28.1728 67.8781 31.1729 68.8414 34.0175 77.3096C36.8621 85.7773 43.3052 99.4125 46.0908 100.682Z" fill="#91B3FA"/>
<path d="M7.6617 45.875C14.012 45.9602 20.9031 48.66 24.5129 53.9907L24.8536 54.4996C25.6414 55.6929 30.1561 64.2066 32.7308 71.2972C32.7628 71.3855 32.7173 71.4833 32.6289 71.5153C32.4788 71.5699 32.3982 71.4054 32.4131 71.4193C30.646 67.4226 28.1277 62.3633 26.129 58.5829C23.9834 54.4568 22.4849 51.6641 17.7859 49.082C12.5582 46.306 7.63511 46.145 7.64998 46.1477C7.57472 46.1423 7.51839 46.0765 7.5238 46.0017C7.52875 45.9295 7.59004 45.8746 7.6617 45.875Z" fill="#BDD0FB"/>
<path d="M41.8045 102.48C42.3867 102.766 38.3947 96.3224 37.9382 90.5586C37.4817 84.7947 35.8994 74.9795 30.7551 69.2278C25.6108 63.4761 20.146 63.0938 13.432 68.6472C7.83704 73.2751 4.33178 75.63 2.25016 76.1083C1.7346 76.2269 1.48674 76.8197 1.75218 77.2772C3.16546 79.7124 7.12274 85.2851 13.4852 84.7036C21.6008 83.9616 31.3026 78.3943 34.4316 82.7188C37.5601 87.0432 37.2451 89.5217 37.3965 91.6094C37.5484 93.697 37.9504 100.586 41.8045 102.48Z" fill="#BDD0FB"/>
<path d="M12.035 75.7696C14.926 73.297 19.6787 70.8127 23.9028 71.13C29.404 71.717 33.1423 74.694 35.264 79.2236C36.0978 81.149 36.4479 82.179 36.9761 84.5529C37.0185 84.7423 36.6859 84.809 36.625 84.6246C36.2582 83.5129 35.8932 82.3485 35.3623 81.1485C32.2509 73.3971 26.0547 72.5176 25.8105 72.3643C25.3454 72.4162 22.4688 70.7158 15.8499 73.9448C14.6142 74.5543 13.414 75.244 12.2901 75.9991L12.2838 76.0031C12.2027 76.0577 12.0846 76.0469 12.0206 75.9792C11.9616 75.9157 11.9688 75.826 12.035 75.7696Z" fill="url(#paint1_linear_2_12955)"/>
<path d="M107.38 117.403H37.7691C34.1125 117.403 31.1484 114.315 31.1484 110.506V6.89598C31.1484 3.01012 34.2292 -0.108027 37.958 0.00286897L107.569 2.07292C111.151 2.17931 114.001 5.23435 114.001 8.96603V110.507C114.001 114.315 111.037 117.403 107.38 117.403Z" fill="url(#paint2_linear_2_12955)"/>
<path d="M105.308 115.555H39.437C35.9768 115.555 33.1719 112.578 33.1719 108.907V9.02489C33.1719 5.27878 36.0868 2.27288 39.6155 2.37972L105.487 4.37539C108.876 4.47817 111.573 7.42276 111.573 11.0206V108.907C111.573 112.578 108.768 115.555 105.308 115.555Z" fill="white"/>
<path d="M72.311 53.9514C84.4972 53.9514 94.376 44.0697 94.376 31.88C94.376 19.6903 84.4972 9.80859 72.311 9.80859C60.1249 9.80859 50.2461 19.6903 50.2461 31.88C50.2461 44.0697 60.1249 53.9514 72.311 53.9514Z" fill="url(#paint3_linear_2_12955)"/>
<g opacity="0.6">
<path d="M104.937 60.9723L104.542 62.271C104.318 63.0058 103.82 63.4787 103.272 63.4773L41.0729 63.3308C40.2874 63.329 39.661 62.3706 39.6925 61.2193C39.7223 60.1369 40.3248 59.2773 41.063 59.2637L103.658 58.1115C104.668 58.0926 105.351 59.6172 104.937 60.9723Z" fill="#788692"/>
</g>
<g opacity="0.6">
<path d="M51.4855 71.2796C51.5099 70.5267 51.9227 69.9322 52.4261 69.9245L105.587 69.1329C106.312 69.1221 106.776 70.2842 106.426 71.2368L106.091 72.1528C105.923 72.6094 105.603 72.893 105.256 72.8921L52.4301 72.7677C51.8889 72.7663 51.459 72.0892 51.4855 71.2796Z" fill="#788692"/>
</g>
<g opacity="0.6">
<path d="M51.4738 79.8592C51.4986 79.1064 51.9123 78.5118 52.4171 78.5041L105.747 77.713C106.474 77.7021 106.939 78.8643 106.589 79.8168L106.252 80.7328C106.084 81.1895 105.763 81.4731 105.414 81.4721L52.4211 81.3473C51.8785 81.3459 51.4472 80.6688 51.4738 79.8592Z" fill="#788692"/>
</g>
<g opacity="0.6">
<path d="M106.001 88.2526L106.001 88.2525C106.131 87.8978 106.109 87.4962 105.99 87.1959C105.861 86.873 105.7 86.8195 105.641 86.8203L105.634 86.3204L105.641 86.8203L52.5994 87.6124C52.5994 87.6124 52.5994 87.6124 52.5993 87.6124C52.5578 87.613 52.4628 87.6389 52.3545 87.7952C52.2481 87.9489 52.1627 88.1892 52.1532 88.4837L106.001 88.2526ZM106.001 88.2526L105.667 89.1684L106.001 88.2526ZM105.304 89.5796L105.304 89.5796C105.353 89.5797 105.536 89.5243 105.666 89.1686L105.304 89.5796ZM105.304 89.5796L52.5971 89.4556M105.304 89.5796L52.5971 89.4556M52.5971 89.4556C52.597 89.4556 52.597 89.4556 52.597 89.4556M52.5971 89.4556L52.597 89.4556M52.597 89.4556C52.5537 89.4555 52.4492 89.4276 52.335 89.2471M52.597 89.4556L52.335 89.2471M52.335 89.2471C52.2236 89.0713 52.143 88.8011 52.1532 88.4837L52.335 89.2471Z" stroke="#AEB6BE"/>
</g>
<g opacity="0.6">
<path d="M105.192 98.1391L105.193 98.1391C105.241 98.1393 105.423 98.0848 105.553 97.7284C105.553 97.7284 105.553 97.7284 105.553 97.7283L105.887 96.8124L106.354 96.9827L105.887 96.8123C106.017 96.4572 105.995 96.0553 105.876 95.755C105.748 95.4318 105.587 95.379 105.529 95.3799L105.522 94.88L105.529 95.3799L52.6015 96.1719C52.6015 96.172 52.6015 96.172 52.6014 96.172C52.5608 96.1726 52.4662 96.198 52.3581 96.3544C52.2519 96.5081 52.1667 96.7485 52.1571 97.0432L105.192 98.1391ZM105.192 98.1391L52.5992 98.0152M105.192 98.1391L52.5992 98.0152M52.5992 98.0152C52.5992 98.0152 52.5991 98.0152 52.5991 98.0152M52.5992 98.0152L52.5991 98.0152M52.5991 98.0152C52.5567 98.015 52.4527 97.9876 52.3385 97.8071M52.5991 98.0152L52.3385 97.8071M52.3385 97.8071C52.2274 97.6313 52.1469 97.3609 52.1571 97.0433L52.3385 97.8071Z" stroke="#AEB6BE"/>
</g>
<g opacity="0.6">
<path d="M105.143 106.746L105.143 106.746C105.192 106.746 105.375 106.69 105.506 106.334C105.506 106.334 105.506 106.334 105.506 106.334L105.841 105.418C105.971 105.063 105.949 104.662 105.83 104.362C105.701 104.039 105.54 103.985 105.481 103.986L105.473 103.486L105.481 103.986L52.4314 104.778C52.4314 104.778 52.4314 104.778 52.4314 104.778C52.3899 104.779 52.2949 104.805 52.1866 104.961C52.0802 105.115 51.9948 105.355 51.9852 105.65L105.143 106.746ZM105.143 106.746L52.4287 106.622M105.143 106.746L52.4287 106.622M52.4287 106.622C52.4286 106.622 52.4286 106.622 52.4286 106.622M52.4287 106.622L52.4286 106.622M52.4286 106.622C52.3857 106.621 52.2813 106.594 52.167 106.413M52.4286 106.622L52.167 106.413M52.167 106.413C52.0556 106.237 51.975 105.967 51.9852 105.65L52.167 106.413Z" stroke="#AEB6BE"/>
</g>
<path opacity="0.6" d="M46.6844 71.1513C46.8496 70.1332 46.1583 69.1738 45.1404 69.0086C44.1226 68.8433 43.1635 69.5348 42.9983 70.5529C42.8331 71.5711 43.5244 72.5304 44.5422 72.6957C45.5601 72.8609 46.5192 72.1695 46.6844 71.1513Z" fill="#E5544C"/>
<path opacity="0.6" d="M46.6844 80.0644C46.8496 79.0462 46.1583 78.0869 45.1405 77.9217C44.1226 77.7564 43.1635 78.4479 42.9983 79.466C42.8331 80.4842 43.5244 81.4435 44.5422 81.6088C45.5601 81.774 46.5192 81.0826 46.6844 80.0644Z" fill="#E5544C"/>
<path opacity="0.6" d="M46.8601 88.4628C47.0253 87.4447 46.3341 86.4853 45.3162 86.3201C44.2984 86.1549 43.3393 86.8463 43.1741 87.8645C43.0089 88.8826 43.7001 89.842 44.718 90.0072C45.7359 90.1724 46.6949 89.481 46.8601 88.4628Z" fill="#E5544C"/>
<path opacity="0.6" d="M46.8601 97.2314C47.0253 96.2132 46.3341 95.2539 45.3162 95.0887C44.2984 94.9234 43.3393 95.6148 43.1741 96.633C43.0089 97.6512 43.7001 98.6105 44.718 98.7758C45.7359 98.941 46.6949 98.2496 46.8601 97.2314Z" fill="#E5544C"/>
<path opacity="0.6" d="M45.0976 107.052C46.1287 107.052 46.9647 106.216 46.9647 105.184C46.9647 104.153 46.1287 103.316 45.0976 103.316C44.0664 103.316 43.2305 104.153 43.2305 105.184C43.2305 106.216 44.0664 107.052 45.0976 107.052Z" fill="#E5544C"/>
<path d="M76.7659 54.9134C88.4978 54.9134 98.0084 45.4 98.0084 33.6647C98.0084 21.9294 88.4978 12.416 76.7659 12.416C65.034 12.416 55.5234 21.9294 55.5234 33.6647C55.5234 45.4 65.034 54.9134 76.7659 54.9134Z" fill="url(#paint4_linear_2_12955)"/>
<mask id="mask0_2_12955" style="mask-type:luminance" maskUnits="userSpaceOnUse" x="56" y="13" width="41" height="41">
<path d="M76.757 53.9126C87.9274 53.9126 96.9828 44.8546 96.9828 33.6809C96.9828 22.5073 87.9274 13.4492 76.757 13.4492C65.5866 13.4492 56.5312 22.5073 56.5312 33.6809C56.5312 44.8546 65.5866 53.9126 76.757 53.9126Z" fill="white"/>
</mask>
<g mask="url(#mask0_2_12955)">
<path d="M102.131 59.1458L53.0934 60.7471C52.8154 60.7561 52.581 60.5361 52.5716 60.2584L50.805 6.12058C50.7959 5.84244 51.0159 5.60803 51.2935 5.59856L100.331 3.99734C100.609 3.98832 100.844 4.20831 100.853 4.486L102.62 58.6238C102.629 58.902 102.409 59.1364 102.131 59.1458Z" fill="white"/>
</g>
<mask id="mask1_2_12955" style="mask-type:luminance" maskUnits="userSpaceOnUse" x="56" y="13" width="41" height="41">
<path d="M76.757 53.9126C87.9274 53.9126 96.9828 44.8546 96.9828 33.6809C96.9828 22.5073 87.9274 13.4492 76.757 13.4492C65.5866 13.4492 56.5312 22.5073 56.5312 33.6809C56.5312 44.8546 65.5866 53.9126 76.757 53.9126Z" fill="white"/>
</mask>
<g mask="url(#mask1_2_12955)">
<path d="M66.35 36.1682C66.35 36.1682 78.6027 33.8209 88.4105 36.097L88.0901 46.1682C88.0901 46.1682 85.9521 60.1933 84.2085 66.417C84.2085 66.417 76.7964 67.9574 73.1677 66.1285C73.1677 66.1285 69.6795 48.717 67.9742 46.1763C67.9742 46.1763 66.1315 39.4211 66.35 36.1682Z" fill="url(#paint5_linear_2_12955)"/>
<path d="M74.616 27.0293L73.6602 35.369C73.6602 35.369 77.1393 36.8323 79.4859 35.1112L78.7779 29.2707L74.616 27.0293Z" fill="#FEBBBA"/>
<path d="M79.7242 21.4535C79.7652 21.5225 80.6413 25.6834 81.1807 28.2592C81.4038 29.3235 80.6498 30.3432 79.5673 30.4428L78.5759 30.5339C76.7547 30.7016 75.1053 29.4543 74.7696 27.656L73.8984 22.9867C73.8984 22.9871 78.7305 19.782 79.7242 21.4535Z" fill="#FEBBBA"/>
<path d="M72.8278 23.0331C72.4316 22.572 72.0747 21.8169 72.8593 20.9852C73.6534 20.1431 74.5917 20.3157 75.1915 20.57C75.4569 20.6827 75.7773 20.6182 75.9563 20.3924C76.0356 20.2918 76.1564 20.2215 76.3393 20.2359C76.6841 20.2634 76.9833 20.0263 77.0126 19.6819C77.0631 19.0909 77.3542 18.3877 78.3876 18.1528C80.2835 17.7214 81.2975 19.6003 81.3074 20.9441C81.3174 22.2875 79.2353 22.6382 78.0415 22.4543C77.1645 22.3191 76.4358 23.1097 76.1108 23.5389C75.9928 23.6949 75.9536 23.895 76.004 24.0839L76.3479 25.3709C76.1523 25.7807 75.9603 26.1995 75.6782 26.5529C75.475 26.8076 75.2478 26.9519 75.004 27.0177C74.6268 26.3667 73.6281 26.287 73.1653 26.2874C72.9882 26.2874 72.8205 26.2148 72.6998 26.0854C72.3379 25.6969 71.7628 24.8214 72.7791 23.9108C73.0319 23.6836 73.0486 23.2905 72.8278 23.0331Z" fill="#101212"/>
<path d="M75.3939 28.3941C75.3939 28.3941 75.2763 26.0536 74.3218 25.8647C73.3673 25.6759 72.3672 26.3944 73.2235 27.7698C74.288 29.481 75.3939 28.3941 75.3939 28.3941Z" fill="#FEBBBA"/>
<path d="M66.3497 36.168C66.3497 36.168 47.9045 57.5411 70.6892 64.7488L70.6365 63.1278C70.6365 63.1278 61.977 56.2703 68.1416 46.333C68.1416 46.333 67.0293 37.1196 66.3497 36.168Z" fill="url(#paint6_linear_2_12955)"/>
<path d="M88.4102 36.0967C88.4102 36.0967 108.999 55.5462 86.7324 64.225L86.6797 62.6039C86.6797 62.6039 94.8737 55.1964 88.074 45.6819C88.074 45.6819 87.1664 37.7601 88.4102 36.0967Z" fill="url(#paint7_linear_2_12955)"/>
</g>
<defs>
<linearGradient id="paint0_linear_2_12955" x1="9.53515" y1="36.4349" x2="35.4741" y2="36.4349" gradientUnits="userSpaceOnUse">
<stop stop-color="#DAE3FE"/>
<stop offset="1" stop-color="#E9EFFD"/>
</linearGradient>
<linearGradient id="paint1_linear_2_12955" x1="11.9805" y1="77.918" x2="36.9799" y2="77.918" gradientUnits="userSpaceOnUse">
<stop stop-color="#DAE3FE"/>
<stop offset="1" stop-color="#E9EFFD"/>
</linearGradient>
<linearGradient id="paint2_linear_2_12955" x1="23.8988" y1="2.72819e-06" x2="136.375" y2="8.03735" gradientUnits="userSpaceOnUse">
<stop stop-color="#1C2F40"/>
<stop offset="1" stop-color="#20415E"/>
</linearGradient>
<linearGradient id="paint3_linear_2_12955" x1="46.3847" y1="9.80859" x2="105.988" y2="15.8421" gradientUnits="userSpaceOnUse">
<stop stop-color="#1C2F40"/>
<stop offset="1" stop-color="#20415E"/>
</linearGradient>
<linearGradient id="paint4_linear_2_12955" x1="51.806" y1="12.416" x2="109.188" y2="18.2246" gradientUnits="userSpaceOnUse">
<stop stop-color="#1C2F40"/>
<stop offset="1" stop-color="#20415E"/>
</linearGradient>
<linearGradient id="paint5_linear_2_12955" x1="65.0293" y1="35.1035" x2="93.781" y2="37.0122" gradientUnits="userSpaceOnUse">
<stop stop-color="#90744B"/>
<stop offset="1" stop-color="#CB9A51"/>
</linearGradient>
<linearGradient id="paint6_linear_2_12955" x1="58.6288" y1="36.168" x2="73.503" y2="36.7368" gradientUnits="userSpaceOnUse">
<stop stop-color="#90744B"/>
<stop offset="1" stop-color="#CB9A51"/>
</linearGradient>
<linearGradient id="paint7_linear_2_12955" x1="86.0658" y1="36.0967" x2="99.6563" y2="36.5791" gradientUnits="userSpaceOnUse">
<stop stop-color="#90744B"/>
<stop offset="1" stop-color="#CB9A51"/>
</linearGradient>
</defs>
</svg>
