
<svg width="186" height="501" viewBox="0 0 186 501" fill="none" xmlns="http://www.w3.org/2000/svg">
<g opacity="0.3">
<path d="M85.7759 282.89L43.1377 325.54L66.1446 348.54L108.783 305.89L85.7759 282.89Z" fill="#9E7C4F"/>
<path d="M1.84511 198.85L-40.7903 156.215V156.186L-17.7982 133.194L24.8654 175.83L1.84511 198.85Z" fill="#1C374D"/>
<path d="M1.84395 366.889L-90.5469 459.28C-94.1772 458.379 -98.1171 457.169 -102.31 455.706C-106.503 454.243 -110.612 452.526 -114.58 450.584C-118.576 448.67 -122.376 446.56 -126.006 444.28C-129.636 442.001 -132.76 439.552 -135.377 436.935C-139.345 432.967 -141.85 429.083 -142.863 425.34C-143.876 421.598 -143.989 418.023 -143.201 414.59C-142.413 411.185 -140.865 407.92 -138.586 404.853C-136.306 401.785 -133.83 398.887 -131.1 396.157L-49.9658 315.023L-72.9861 292.003L-157.722 376.739C-160.227 379.244 -162.506 381.861 -164.533 384.562C-168.163 383.662 -172.103 382.452 -176.381 380.904C-180.63 379.384 -184.823 377.639 -188.904 375.698C-193.013 373.756 -196.924 371.673 -200.667 369.394C-204.41 367.114 -207.59 364.666 -210.207 362.049C-214.175 358.081 -216.68 354.197 -217.693 350.454C-218.706 346.711 -218.819 343.109 -218.031 339.704C-217.243 336.299 -215.695 333.034 -213.416 329.995C-211.136 326.927 -208.66 324.029 -205.93 321.299L-190.452 305.821L-213.472 282.8L-232.524 301.881C-238.321 307.678 -242.543 313.503 -245.216 319.357C-247.89 325.211 -249.241 331.008 -249.297 336.749C-249.353 342.49 -248.143 348.006 -245.638 353.353C-243.134 358.7 -239.56 363.709 -234.916 368.353C-230.836 372.461 -226.136 376.007 -220.845 379.018C-215.554 382.03 -210.236 384.591 -204.832 386.701C-199.429 388.784 -194.166 390.529 -189.073 391.908C-183.951 393.258 -179.476 394.412 -175.593 395.313L-171.146 396.326C-174.664 404.853 -175.396 413.099 -173.285 421.119C-171.174 429.14 -166.784 436.485 -160.086 443.183C-155.977 447.291 -151.306 450.837 -146.015 453.849C-140.724 456.86 -135.405 459.393 -130.002 461.503C-124.599 463.614 -119.336 465.359 -114.214 466.71C-109.093 468.06 -104.618 469.186 -100.762 470.115L53.5645 315.45L-131.1 499.777L-85.4669 500.156H-85.4527L24.8924 389.825L1.84395 366.889Z" fill="#9E7C4F"/>
<path d="M66.2317 217.203L43.2394 240.223L135.63 332.614C134.73 336.244 133.52 340.184 132.056 344.377C130.593 348.571 128.876 352.651 126.934 356.647C125.021 360.615 122.91 364.415 120.63 368.073C118.351 371.703 115.903 374.827 113.285 377.445C109.317 381.413 105.462 383.917 101.691 384.93C97.9478 385.943 94.3457 386.056 90.9405 385.268C87.5353 384.48 84.2989 382.932 81.2032 380.681C78.1357 378.401 75.2371 375.925 72.5073 373.195L-134.732 165.956C-137.236 163.451 -139.854 161.172 -142.583 159.146C-141.683 155.515 -140.473 151.575 -138.925 147.298C-137.405 143.048 -135.66 138.855 -133.719 134.774C-131.777 130.694 -129.694 126.754 -127.415 123.011C-125.135 119.24 -122.687 116.088 -120.07 113.471C-116.102 109.475 -112.218 106.998 -108.475 105.957C-104.732 104.944 -101.13 104.831 -97.7248 105.619C-94.3196 106.407 -91.0832 107.927 -88.0157 110.206C-84.9482 112.486 -82.0495 114.99 -79.3197 117.692L-63.8415 133.17L-40.8213 110.178L-59.9017 91.0977C-65.6989 85.3004 -71.5244 81.079 -77.3779 78.4055C-83.2315 75.732 -89.0289 74.3532 -94.7699 74.2969C-100.511 74.2406 -106.055 75.4507 -111.374 77.9553C-116.721 80.46 -121.702 84.0341 -126.373 88.7057C-130.454 92.8144 -134.028 97.486 -137.039 102.777C-140.051 108.068 -142.583 113.386 -144.694 118.79C-146.805 124.193 -148.55 129.456 -149.9 134.577C-151.251 139.671 -152.405 144.174 -153.306 148.029L-154.319 152.448C-162.846 148.93 -171.12 148.226 -179.14 150.309C-187.161 152.42 -194.506 156.81 -201.204 163.508C-205.312 167.588 -208.858 172.288 -211.869 177.579C-214.881 182.869 -217.413 188.188 -219.524 193.592C-221.635 198.995 -223.351 204.257 -224.73 209.351C-226.109 214.473 -227.235 218.948 -228.136 222.831L-247.751 210.027L-267 229.304L-147.818 348.486L-124.798 325.466L-217.188 233.075C-216.288 229.445 -215.078 225.505 -213.614 221.312C-212.151 217.118 -210.434 213.038 -208.492 209.042C-206.551 205.074 -204.468 201.274 -202.189 197.616C-199.909 193.986 -197.489 190.862 -194.843 188.245C-190.875 184.277 -186.992 181.772 -183.249 180.759C-179.506 179.746 -175.904 179.633 -172.499 180.421C-169.093 181.209 -165.857 182.757 -162.789 185.008C-159.722 187.288 -156.823 189.764 -154.094 192.494L53.1455 399.733C55.6501 402.238 58.2674 404.517 60.9972 406.544C60.0966 410.174 58.8865 414.114 57.3387 418.391C55.819 422.641 54.0742 426.834 52.1324 430.915C50.1906 434.995 48.1081 438.935 45.8286 442.678C43.5491 446.449 41.1006 449.601 38.4834 452.218C34.5154 456.214 30.6318 458.691 26.8888 459.732C23.1459 460.745 19.5437 460.858 16.1385 460.07C12.7333 459.282 9.46886 457.762 6.4295 455.483C3.36201 453.203 0.463372 450.699 -2.26642 447.997L-17.7446 432.519L-40.765 455.511L-21.7127 474.591C-15.9154 480.389 -10.09 484.61 -4.23641 487.284C1.61717 489.957 7.41444 491.336 13.1554 491.392C18.8964 491.449 24.4405 490.21 29.7875 487.734C35.1345 485.229 40.1156 481.655 44.7872 476.983C48.896 472.875 52.4419 468.203 55.4531 462.912C58.4644 457.622 61.0253 452.303 63.1078 446.899C65.2185 441.496 66.9633 436.233 68.3141 431.112C69.6931 426.018 70.8188 421.515 71.7193 417.66L72.7606 413.213C81.2877 416.731 89.5615 417.435 97.5538 415.352C105.574 413.241 112.92 408.851 119.617 402.153C123.726 398.073 127.272 393.373 130.283 388.082C133.294 382.792 135.827 377.473 137.938 372.069C140.049 366.666 141.765 361.403 143.144 356.31C144.495 351.188 145.649 346.713 146.549 342.83L166.165 355.634L185.442 336.357L66.2317 217.203Z" fill="#1C374D"/>
<path d="M185.385 -116L-106.478 175.834L-83.4572 198.827L8.93359 106.436C12.5639 107.336 16.5038 108.518 20.697 110.01C24.8902 111.473 28.999 113.19 32.967 115.132C36.9632 117.045 40.7624 119.156 44.3928 121.436C48.0231 123.715 51.1468 126.163 53.7641 128.781C57.7321 132.749 60.2368 136.604 61.2499 140.375C62.263 144.118 62.3756 147.72 61.5876 151.126C60.7996 154.531 59.2518 157.795 56.9723 160.863C54.6928 163.93 52.2163 166.829 49.4865 169.559L-31.6474 250.693L-8.62711 273.685L76.109 188.949C78.6136 186.444 80.8932 183.827 82.9194 181.125C86.5498 182.026 90.4896 183.236 94.7673 184.784C99.0167 186.331 103.21 188.048 107.291 189.99C111.399 191.932 115.311 194.014 119.054 196.294C122.797 198.573 125.977 200.994 128.594 203.639C132.562 207.607 135.067 211.491 136.08 215.233C137.093 218.976 137.206 222.55 136.418 225.984C135.63 229.389 134.082 232.653 131.802 235.693C129.523 238.76 127.046 241.659 124.317 244.389L108.81 259.867L131.831 282.859L150.883 263.779C156.68 257.981 160.901 252.156 163.603 246.302C166.277 240.449 167.627 234.652 167.684 228.911C167.74 223.17 166.53 217.654 164.025 212.307C161.521 206.96 157.947 201.95 153.303 197.307C149.194 193.198 144.523 189.652 139.232 186.641C133.941 183.63 128.594 181.069 123.219 178.958C117.816 176.848 112.553 175.131 107.459 173.752C102.338 172.373 97.8348 171.247 93.9793 170.347L89.5328 169.334C93.0506 160.807 93.7541 152.561 91.6716 144.54C89.5609 136.52 85.1707 129.147 78.4729 122.449C74.3641 118.34 69.6925 114.794 64.4018 111.783C59.1111 108.772 53.7641 106.239 48.389 104.128C42.9857 102.017 37.7231 100.301 32.6293 98.9219C27.5075 97.571 23.0329 96.4453 19.1774 95.5166L185.385 -70.0158V-116Z" fill="#9E7C4F"/>
</g>
</svg>
