<svg width="13" height="12" viewBox="0 0 13 12" fill="none" xmlns="http://www.w3.org/2000/svg">
<path d="M2.66055 10.8073H6.01835C6.6789 11.5413 7.63303 12 8.69725 12C10.6789 12 12.2752 10.3853 12.2752 8.42202C12.2752 7.22936 11.7064 6.18349 10.8073 5.54129V2.66055C10.8073 1.19266 9.61468 0 8.14679 0H2.66055C1.19266 0 0 1.19266 0 2.66055V8.14679C0 9.61468 1.19266 10.8073 2.66055 10.8073ZM0.917431 2.66055C0.917431 1.70642 1.70642 0.917431 2.66055 0.917431H8.14679C9.10092 0.917431 9.88991 1.70642 9.88991 2.66055V5.04587C9.50459 4.91743 9.10092 4.84404 8.6789 4.84404C8.36697 4.84404 8.0734 4.88073 7.77982 4.95413H2.34862V5.87156H6.16514C5.88991 6.14679 5.66972 6.44037 5.48624 6.78899H2.34862V7.70642H5.15596C5.10092 7.94495 5.08257 8.18349 5.08257 8.42202C5.08257 8.95413 5.19266 9.44954 5.3945 9.88991H2.6422C1.68807 9.88991 0.899083 9.10092 0.899083 8.14679V2.66055H0.917431ZM5.54128 8.42202C5.54128 6.69725 6.93578 5.30275 8.66055 5.30275C10.3853 5.30275 11.7798 6.69725 11.7798 8.42202C11.7798 10.1468 10.3853 11.5413 8.66055 11.5413C6.93578 11.5413 5.54128 10.1468 5.54128 8.42202Z" fill="white"/>
<path d="M8.44038 3.10156H2.34863V4.01899H8.44038V3.10156Z" fill="white"/>
<path d="M7.99919 10.5126C8.09093 10.5126 8.18268 10.4576 8.21937 10.3658C8.25607 10.2558 8.20102 10.109 8.09093 10.0723C7.2102 9.74199 6.75148 8.76952 7.08176 7.88878C7.2469 7.46677 7.55882 7.11814 7.96249 6.93465C8.38451 6.75117 8.84323 6.73282 9.26524 6.87961C9.76066 7.0631 10.1276 7.46677 10.2928 7.94383L9.87075 7.92548L10.4946 9.15484L11.2469 7.99888L10.7882 7.98053C10.623 7.28328 10.1093 6.71447 9.43038 6.45759C8.31112 6.03557 7.06341 6.62273 6.65974 7.72365C6.23772 8.84291 6.82488 10.0906 7.92579 10.4943C7.94414 10.5126 7.98084 10.5126 7.99919 10.5126Z" fill="white"/>
</svg>
