
<svg width="89" height="89" viewBox="0 0 89 89" fill="none" xmlns="http://www.w3.org/2000/svg">
    <rect x="0.4" y="0.4" width="88.2" height="88.2" rx="44.1" stroke-width="0.8"/>
    <path d="M53.1667 35.6667H52.574L50.026 32.3627C49.6976 31.9401 49.2774 31.5978 48.7971 31.3617C48.3168 31.1256 47.7892 31.0019 47.254 31H42.746C42.2108 31.0019 41.6832 31.1256 41.2029 31.3617C40.7226 31.5978 40.3024 31.9401 39.974 32.3627L37.426 35.6667H36.8333C35.2868 35.6685 33.8042 36.2837 32.7106 37.3773C31.617 38.4708 31.0019 39.9535 31 41.5V53.1667C31.0019 54.7132 31.617 56.1959 32.7106 57.2894C33.8042 58.383 35.2868 58.9981 36.8333 59H53.1667C54.7132 58.9981 56.1959 58.383 57.2894 57.2894C58.383 56.1959 58.9981 54.7132 59 53.1667V41.5C58.9981 39.9535 58.383 38.4708 57.2894 37.3773C56.1959 36.2837 54.7132 35.6685 53.1667 35.6667ZM41.822 33.7883C41.9313 33.6472 42.0713 33.5329 42.2314 33.4541C42.3915 33.3752 42.5675 33.3339 42.746 33.3333H47.254C47.4324 33.3341 47.6084 33.3755 47.7685 33.4543C47.9285 33.5331 48.0686 33.6474 48.178 33.7883L49.627 35.6667H40.373L41.822 33.7883ZM56.6667 53.1667C56.6667 54.0949 56.2979 54.9852 55.6415 55.6415C54.9852 56.2979 54.0949 56.6667 53.1667 56.6667H36.8333C35.9051 56.6667 35.0148 56.2979 34.3585 55.6415C33.7021 54.9852 33.3333 54.0949 33.3333 53.1667V41.5C33.3333 40.5717 33.7021 39.6815 34.3585 39.0251C35.0148 38.3687 35.9051 38 36.8333 38H53.1667C54.0949 38 54.9852 38.3687 55.6415 39.0251C56.2979 39.6815 56.6667 40.5717 56.6667 41.5V53.1667Z" fill="url(#paint0_linear_194_1834)"/>
    <path d="M45 40.332C43.6155 40.332 42.2622 40.7426 41.111 41.5117C39.9599 42.2809 39.0627 43.3742 38.5328 44.6532C38.003 45.9323 37.8644 47.3398 38.1345 48.6977C38.4046 50.0555 39.0713 51.3028 40.0503 52.2818C41.0292 53.2607 42.2765 53.9274 43.6344 54.1975C44.9922 54.4676 46.3997 54.329 47.6788 53.7992C48.9579 53.2694 50.0511 52.3722 50.8203 51.221C51.5895 50.0699 52 48.7165 52 47.332C51.9982 45.4761 51.2601 43.6967 49.9477 42.3843C48.6354 41.072 46.856 40.3339 45 40.332ZM45 51.9987C44.077 51.9987 43.1748 51.725 42.4073 51.2122C41.6399 50.6994 41.0418 49.9706 40.6886 49.1179C40.3354 48.2652 40.2429 47.3269 40.423 46.4216C40.6031 45.5164 41.0475 44.6848 41.7002 44.0322C42.3528 43.3796 43.1843 42.9351 44.0896 42.755C44.9948 42.575 45.9331 42.6674 46.7859 43.0206C47.6386 43.3738 48.3674 43.9719 48.8802 44.7394C49.393 45.5068 49.6667 46.4091 49.6667 47.332C49.6667 48.5697 49.175 49.7567 48.2998 50.6319C47.4247 51.507 46.2377 51.9987 45 51.9987Z" fill="url(#paint1_linear_194_1834)"/>
    <defs>
    <linearGradient id="paint0_linear_194_1834" x1="28.55" y1="31" x2="66.3677" y2="34.8293" gradientUnits="userSpaceOnUse">
    <stop stop-color="#1C2F40"/>
    <stop offset="1" stop-color="#20415E"/>
    </linearGradient>
    <linearGradient id="paint1_linear_194_1834" x1="36.775" y1="40.332" x2="55.6838" y2="42.2467" gradientUnits="userSpaceOnUse">
    <stop stop-color="#1C2F40"/>
    <stop offset="1" stop-color="#20415E"/>
    </linearGradient>
    </defs>
    </svg>