<svg width="143" height="141" viewBox="0 0 143 141" fill="none" xmlns="http://www.w3.org/2000/svg">
<path d="M9.01939 1.00274C8.78917 0.292819 9.61724 -0.29033 10.2151 0.155905C16.289 4.6857 31.2302 18.6204 31.0097 45.9655C30.7333 80.2739 39.1859 91.8202 48.8165 98.355C48.8165 98.355 36.3635 96.1827 27.3581 84.5152C5.24769 55.8679 13.109 13.6241 9.01939 1.00274Z" fill="#BDD0FB"/>
<path d="M14.3976 11.0971C15.5122 14.7862 16.5537 18.4955 17.4584 22.2373C18.3823 25.974 19.1926 29.7366 19.8842 33.5194C20.5612 37.3043 21.1672 41.1014 21.6114 44.9187C22.0723 48.734 22.369 52.5646 22.6534 56.4113C22.9592 60.2545 23.2452 64.1281 23.9288 67.984C24.6072 71.8323 25.7563 75.6618 27.5707 79.1678C28.024 80.0415 28.4951 80.9101 29.0123 81.7428C29.5143 82.585 30.0544 83.4055 30.6081 84.2158C31.7247 85.8314 32.9503 87.3755 34.285 88.8212C36.9619 91.707 40.0764 94.1831 43.4267 96.1972C43.7791 96.4092 44.237 96.2951 44.449 95.9427C44.6574 95.5963 44.5509 95.1491 44.2132 94.9321L44.2107 94.9305C43.41 94.4174 42.6159 93.8961 41.8476 93.3408C41.4592 93.0695 41.0835 92.781 40.7026 92.5001C40.333 92.2049 39.9511 91.924 39.5911 91.6183C38.1297 90.4185 36.754 89.1173 35.4812 87.7208C32.925 84.9435 30.7709 81.7701 29.0316 78.4239C28.1807 76.7404 27.455 74.9975 26.8663 73.2045C26.2786 71.4109 25.8283 69.5692 25.4825 67.7006C24.7903 63.9613 24.4754 60.1298 24.1422 56.2891C23.804 52.4479 23.4374 48.59 22.9131 44.7534C22.656 42.8346 22.3644 40.9209 22.0389 39.0132C21.8817 38.0584 21.7057 37.1071 21.5318 36.1553C21.3487 35.205 21.1601 34.2562 20.9643 33.309C20.1728 29.5216 19.2661 25.76 18.2423 22.0324C17.2002 18.3099 16.0598 14.6163 14.7789 10.9724C14.7424 10.8684 14.6283 10.8137 14.5238 10.8502C14.4214 10.8862 14.3672 10.9957 14.3976 11.0971Z" fill="white"/>
<path d="M37.6962 121.254C37.4578 122.608 35.9138 123.279 34.752 122.544C28.3404 118.488 11.2501 105.383 8.15641 79.3773C5.5434 57.4165 2.03994 45.757 0.0825916 40.5741C-0.33119 39.4783 0.894436 38.491 1.87818 39.1269C12.7329 46.1424 46.3379 72.1889 37.6962 121.254Z" fill="#91B3FA"/>
<path d="M35.8641 121.586C35.8393 121.61 35.8119 121.631 35.7825 121.65C35.5325 121.809 35.2004 121.735 35.0416 121.485C34.8616 121.201 16.9585 92.7726 11.9464 62.4017C11.8983 62.1096 12.096 61.8332 12.3886 61.7846C12.6812 61.7364 12.9576 61.9342 13.0057 62.2267C17.9813 92.3765 35.7688 120.627 35.9478 120.909C36.0878 121.129 36.0472 121.413 35.8641 121.586Z" fill="white"/>
<path d="M34.4885 2.8371C31.022 3.13831 28.3644 6.04188 28.3542 9.521C28.2939 30.7998 28.1945 104.196 29.5814 130.174C29.7284 132.926 31.9845 135.088 34.7405 135.118C48.3714 135.265 87.5798 135.534 109.839 134.11C114.475 133.814 118.083 129.974 118.077 125.328C118.05 102.995 117.693 40.188 114.634 11.4794C114.267 8.0398 111.502 5.35478 108.053 5.08603C93.1877 3.92835 53.709 1.16575 34.4885 2.8371Z" fill="url(#paint0_linear_2_17998)"/>
<path d="M33.6277 14.9297C33.3599 33.1321 32.5978 93.6826 33.9284 116.031C34.1226 119.298 36.66 121.876 39.7933 121.986C52.6931 122.435 85.7718 123.305 104.621 121.231C108.015 120.858 110.609 117.916 110.7 114.353C111.171 95.7784 112.444 39.3824 111.151 17.2836C110.945 13.7584 108.252 10.9456 104.876 10.7179C90.9086 9.77673 55.0424 7.6064 39.0139 8.94105C36.0044 9.19155 33.6738 11.7782 33.6277 14.9297Z" fill="white"/>
<path opacity="0.2" d="M64.9162 5.75783C64.9273 6.26086 65.3284 6.66704 65.831 6.68225C68.3131 6.7578 75.3054 6.9718 78.4305 7.08437C79.0466 7.10668 79.5177 6.5428 79.3874 5.93988C79.3767 5.92112 79.2966 5.14832 78.5076 5.09304C76.3936 4.94599 70.0154 4.54996 65.8005 4.79285C64.9349 4.84305 64.8883 5.8273 64.9162 5.75783Z" fill="#DDDDDD"/>
<path opacity="0.2" d="M54.8448 54.0046C63.1765 54.0046 69.9306 47.2505 69.9306 38.9188C69.9306 30.5871 63.1765 23.833 54.8448 23.833C46.5132 23.833 39.759 30.5871 39.759 38.9188C39.759 47.2505 46.5132 54.0046 54.8448 54.0046Z" fill="#BEC4CB"/>
<mask id="mask0_2_17998" style="mask-type:luminance" maskUnits="userSpaceOnUse" x="39" y="23" width="31" height="31">
<path d="M54.8751 53.9934C63.1964 53.9934 69.9422 47.2477 69.9422 38.9264C69.9422 30.6051 63.1964 23.8594 54.8751 23.8594C46.5538 23.8594 39.8081 30.6051 39.8081 38.9264C39.8081 47.2477 46.5538 53.9934 54.8751 53.9934Z" fill="white"/>
</mask>
<g mask="url(#mask0_2_17998)">
<path d="M54.9406 41.6811C58.5873 41.6811 61.5434 38.725 61.5434 35.0783C61.5434 31.4317 58.5873 28.4756 54.9406 28.4756C51.294 28.4756 48.3379 31.4317 48.3379 35.0783C48.3379 38.725 51.294 41.6811 54.9406 41.6811Z" fill="#AEB6BE"/>
</g>
<mask id="mask1_2_17998" style="mask-type:luminance" maskUnits="userSpaceOnUse" x="39" y="23" width="31" height="31">
<path d="M54.8751 53.9934C63.1964 53.9934 69.9422 47.2477 69.9422 38.9264C69.9422 30.6051 63.1964 23.8594 54.8751 23.8594C46.5538 23.8594 39.8081 30.6051 39.8081 38.9264C39.8081 47.2477 46.5538 53.9934 54.8751 53.9934Z" fill="white"/>
</mask>
<g mask="url(#mask1_2_17998)">
<path d="M44.9115 54.9061H65.9479C67.2374 54.9061 68.0102 53.2394 67.316 51.9676C65.529 48.6954 61.7908 43.8887 55.3163 44.1057C49.0761 44.3147 45.3775 48.6568 43.518 51.7708C42.7284 53.0928 43.5332 54.9061 44.9115 54.9061Z" fill="#AEB6BE"/>
</g>
<g opacity="0.8">
<path d="M96.2166 74.6127H48.7422C48.3649 74.6127 48.0566 74.3039 48.0566 73.9271V70.626C48.0566 70.2487 48.3655 69.9404 48.7422 69.9404H96.2166C96.5939 69.9404 96.9022 70.2492 96.9022 70.626V73.9271C96.9027 74.3039 96.5939 74.6127 96.2166 74.6127Z" fill="#AEB6BE"/>
<path d="M41.7911 75.0949C43.3555 75.0949 44.6237 73.8267 44.6237 72.2623C44.6237 70.6979 43.3555 69.4297 41.7911 69.4297C40.2267 69.4297 38.9585 70.6979 38.9585 72.2623C38.9585 73.8267 40.2267 75.0949 41.7911 75.0949Z" fill="#AEB6BE"/>
<path d="M96.2166 83.3803H48.7422C48.3649 83.3803 48.0566 83.0715 48.0566 82.6947V79.3936C48.0566 79.0163 48.3655 78.708 48.7422 78.708H96.2166C96.5939 78.708 96.9022 79.0168 96.9022 79.3936V82.6947C96.9027 83.072 96.5939 83.3803 96.2166 83.3803Z" fill="#AEB6BE"/>
<path d="M44.5893 81.4846C44.8399 79.9404 43.7913 78.4854 42.2471 78.2347C40.7028 77.9841 39.2479 79.0328 38.9972 80.577C38.7466 82.1212 39.7953 83.5762 41.3395 83.8268C42.8837 84.0774 44.3387 83.0288 44.5893 81.4846Z" fill="#AEB6BE"/>
<path d="M96.2166 92.1488H48.7422C48.3649 92.1488 48.0566 91.84 48.0566 91.4633V88.1621C48.0566 87.7849 48.3655 87.4766 48.7422 87.4766H96.2166C96.5939 87.4766 96.9022 87.7854 96.9022 88.1621V91.4633C96.9027 91.8405 96.5939 92.1488 96.2166 92.1488Z" fill="#AEB6BE"/>
<path d="M41.7911 92.631C43.3555 92.631 44.6237 91.3628 44.6237 89.7984C44.6237 88.234 43.3555 86.9658 41.7911 86.9658C40.2267 86.9658 38.9585 88.234 38.9585 89.7984C38.9585 91.3628 40.2267 92.631 41.7911 92.631Z" fill="#AEB6BE"/>
<path d="M96.2166 100.916H48.7422C48.3649 100.916 48.0566 100.608 48.0566 100.231V96.9297C48.0566 96.5524 48.3655 96.2441 48.7422 96.2441H96.2166C96.5939 96.2441 96.9022 96.553 96.9022 96.9297V100.231C96.9027 100.608 96.5939 100.916 96.2166 100.916Z" fill="#AEB6BE"/>
<path d="M41.7911 101.399C43.3555 101.399 44.6237 100.13 44.6237 98.566C44.6237 97.0016 43.3555 95.7334 41.7911 95.7334C40.2267 95.7334 38.9585 97.0016 38.9585 98.566C38.9585 100.13 40.2267 101.399 41.7911 101.399Z" fill="#AEB6BE"/>
</g>
<path d="M76.9154 65.4809H39.6781C39.3434 65.4809 39.0696 65.2071 39.0696 64.8724V61.4171C39.0696 61.0824 39.3434 60.8086 39.6781 60.8086H76.9159C77.2506 60.8086 77.5244 61.0824 77.5244 61.4171V64.8724C77.5239 65.2071 77.2501 65.4809 76.9154 65.4809Z" fill="#AEB6BE"/>
<path d="M119.909 18.3708C119.809 16.8252 118.875 15.4556 117.476 14.7913L99.3476 6.18098C98.1863 5.62978 96.839 5.62978 95.6783 6.18098L77.5495 14.7913C76.1504 15.4561 75.2169 16.8252 75.1165 18.3708C73.4162 44.6561 90.2697 54.2329 95.7944 56.6522C96.8902 57.1319 98.1351 57.1319 99.2304 56.6522C104.756 54.2329 121.61 44.6561 119.909 18.3708Z" fill="url(#paint1_linear_2_17998)"/>
<path d="M92.0293 9.98124C91.8685 9.98124 91.7139 9.89047 91.6403 9.73531C91.5384 9.52081 91.6297 9.26422 91.8442 9.1623L96.1276 7.12787C96.3426 7.02544 96.5991 7.11722 96.7006 7.33172C96.8025 7.54622 96.7112 7.8028 96.4967 7.90473L92.2134 9.93916C92.154 9.96806 92.0912 9.98124 92.0293 9.98124Z" fill="white"/>
<path d="M76.5029 24.169C76.2722 24.169 76.081 23.9859 76.0734 23.7532C76.0156 22.0377 76.046 20.2497 76.1631 18.4384C76.2382 17.2746 76.942 16.2402 77.9993 15.7382L90.1947 9.94623C90.4092 9.8438 90.6658 9.93558 90.7677 10.1501C90.8696 10.3646 90.7783 10.6212 90.5639 10.7231L78.3685 16.5155C77.5926 16.8837 77.0769 17.6423 77.0216 18.4942C76.9065 20.2771 76.8766 22.0367 76.9334 23.7243C76.9415 23.9616 76.7554 24.1609 76.5181 24.169C76.513 24.169 76.508 24.169 76.5029 24.169Z" fill="white"/>
<path d="M115.525 19.3972C115.505 19.0052 115.272 18.6553 114.917 18.487L97.9698 10.438C97.6803 10.3006 97.3446 10.3006 97.055 10.438L80.1077 18.487C79.7533 18.6553 79.52 19.0052 79.4998 19.3972C78.9988 29.2022 81.2634 37.3835 86.2359 43.7241C90.0269 48.5587 94.4618 51.1494 97.0606 52.3578C97.3471 52.4911 97.6762 52.4911 97.9627 52.3578C100.562 51.1489 104.997 48.5582 108.787 43.7241C113.761 37.3835 116.026 29.2022 115.525 19.3972Z" fill="#BDD0FB"/>
<path d="M86.751 30.1441C88.1521 29.276 89.9933 29.7293 90.831 31.1491L94.7706 37.8269C95.1651 38.4953 96.1529 38.4289 96.4536 37.7134L105.316 16.6364C105.759 15.5847 107.316 15.8991 107.327 17.0395C107.385 23.4201 105.985 35.5841 96.0388 45.9778C96.0388 45.9778 90.3701 43.9302 85.608 34.1085C84.9194 32.6897 85.4108 30.9747 86.751 30.1441Z" fill="white"/>
<path d="M122.873 135.555C122.873 135.555 123.198 137.392 123.357 139.211C123.419 139.922 122.871 140.539 122.158 140.568C119.736 140.669 114.555 140.865 112.696 140.782C112.417 140.77 112.234 140.484 112.338 140.224C112.425 140.006 112.592 139.83 112.805 139.732L121.362 135.799L122.873 135.555Z" fill="#1D3347"/>
<path d="M123.139 134.475L122.878 136.673C122.878 136.673 121.38 137.37 120.356 136.585L120.976 134.136L123.139 134.475Z" fill="url(#paint2_linear_2_17998)"/>
<path d="M122.943 93.1583C123.056 93.7323 123.547 121.797 120.547 134.374C120.498 134.58 120.603 134.791 120.798 134.871C121.258 135.059 122.16 135.331 123.241 135.367C123.576 135.378 123.876 135.161 123.97 134.839C124.828 131.921 128.937 117.301 129.473 103.334C130.072 87.7284 129.473 102.803 129.473 102.803L129.122 93.1562L122.943 93.1583Z" fill="url(#paint3_linear_2_17998)"/>
<path d="M132.717 136.513C132.717 136.513 133.234 137.44 133.734 139.905C133.824 140.35 133.513 140.776 133.061 140.821C132.261 140.899 131.03 141 130.044 140.994C129.589 140.991 129.234 140.595 129.289 140.143C129.398 139.244 129.739 137.768 130.79 136.617L132.717 136.513Z" fill="#1D3347"/>
<path d="M133.171 133.686L132.561 137.009C132.561 137.009 131.959 137.458 130.767 137.133L131.058 133.557L133.171 133.686Z" fill="url(#paint4_linear_2_17998)"/>
<path d="M134.84 93.9443C137.293 108.752 134.307 130.542 133.301 134.807C133.239 135.068 133.028 135.268 132.764 135.312C132.314 135.386 131.574 135.447 130.845 135.235C130.593 135.162 130.417 134.936 130.407 134.674C130.272 131.226 130.515 110.058 128.229 101.693C128.113 101.269 127.854 100.899 127.496 100.644L123.059 97.4899L122.718 92.3906L134.84 93.9443Z" fill="url(#paint5_linear_2_17998)"/>
<path d="M119.183 65.963C126.536 65.8413 134.649 67.8935 134.649 67.8935C136.841 80.6822 135.032 95.4328 135.032 95.4328C129.34 96.9257 122.919 94.5201 122.919 94.5201C121.972 89.1749 117.558 74.1312 117.558 74.1312C113.965 73.6854 111.006 72.649 108.569 71.2783C110.428 69.1232 111.304 66.3814 111.685 64.7607C114.284 65.569 116.915 66.0006 119.183 65.963Z" fill="url(#paint6_linear_2_17998)"/>
<path d="M97.4639 55.1325C98.186 54.2603 99.1002 54.6726 99.1002 54.6726C100.182 59.2434 105.856 62.9492 111.685 64.7605C111.304 66.3812 110.428 69.1235 108.569 71.2781C98.8949 65.8396 97.4639 55.1325 97.4639 55.1325Z" fill="url(#paint7_linear_2_17998)"/>
<path d="M97.6388 55.3537C97.5633 55.5941 98.4385 55.9597 98.9537 54.977C98.9715 54.5059 99.258 52.4882 98.9765 52.1048C97.4776 50.0613 94.572 47.5 94.572 47.5C94.0806 47.9848 94.4853 48.4604 94.4853 48.4604L95.895 49.9289C95.6004 50.4619 95.2403 50.9117 95.072 51.5562C94.9442 52.0445 95.0223 52.5658 95.2687 53.01C95.5162 53.4557 95.8539 54.0353 96.1729 54.4887C96.7778 55.3472 97.6388 55.3537 97.6388 55.3537Z" fill="url(#paint8_linear_2_17998)"/>
<path d="M96.5122 50.8818L97.7967 51.9711L98.1998 53.0552L97.0543 54.326C97.0543 54.326 96.6694 52.1744 96.3829 51.7089C96.0969 51.2429 96.2455 51.0177 96.5122 50.8818Z" fill="url(#paint9_linear_2_17998)"/>
<path d="M131.829 75.013L134.649 67.8936C134.649 67.8936 141.517 72.5603 142.646 78.4764C141.349 78.5718 138.987 78.9095 136.676 80.0768C136.168 77.2828 131.829 75.013 131.829 75.013Z" fill="url(#paint10_linear_2_17998)"/>
<path d="M125.827 81.7118C125.827 81.7118 133.538 86.0697 136.139 82.3487C136.679 81.5759 136.809 80.8082 136.676 80.076C138.987 78.9086 141.349 78.5714 142.646 78.4756C142.987 80.259 142.807 82.1565 141.759 84.0738C137.201 92.4108 124.806 83.6129 124.806 83.6129L125.827 81.7118Z" fill="url(#paint11_linear_2_17998)"/>
<path d="M126.617 87.214L122.409 72.5171C122.361 72.3503 122.219 72.2286 122.046 72.2083C121.284 72.1196 119.074 71.8696 116.524 71.6541C113.451 71.394 109.883 71.1835 107.75 71.3625C107.447 71.3879 107.264 71.7088 107.399 71.9812C108.611 74.4344 113.599 84.4134 116.097 87.6821C116.179 87.7906 116.308 87.8534 116.443 87.8524L126.207 87.7617C126.492 87.7596 126.695 87.4868 126.617 87.214Z" fill="#DDDDDD"/>
<path d="M116.223 70.3915L113.172 69.8829C113.009 69.8561 112.876 70.0112 112.928 70.1674L113.23 71.0827C113.256 71.1623 113.326 71.2201 113.409 71.2313L116.345 71.6233C116.497 71.6435 116.622 71.5056 116.587 71.3565L116.4 70.5574C116.38 70.4717 116.31 70.4062 116.223 70.3915Z" fill="url(#paint12_linear_2_17998)"/>
<path d="M118.507 72.975L118.256 71.6657C118.23 71.5344 118.122 71.435 117.989 71.4218L111.826 70.7966C111.619 70.7753 111.453 70.9654 111.501 71.1682L111.893 72.7995C111.925 72.9299 112.038 73.0242 112.172 73.0313L118.194 73.3345C118.391 73.3442 118.544 73.1677 118.507 72.975Z" fill="url(#paint13_linear_2_17998)"/>
<path d="M125.736 83.6747C125.736 83.6747 126.323 81.2641 126.086 80.4091C125.85 79.5537 125.392 78.4543 123.864 78.6987C122.337 78.9431 120.536 79.5866 120.536 79.5866C120.536 79.5866 120.626 80.7007 121.787 80.3412L121.068 80.8979C121.068 80.8979 121.171 81.7899 122.151 81.3132L121.481 82.0521C121.481 82.0521 121.902 82.7848 122.624 82.3147C123.345 81.8447 123.691 83.9653 125.736 83.6747Z" fill="url(#paint14_linear_2_17998)"/>
<path d="M126.63 59.9932L128.97 66.7592C129.009 66.8713 128.963 66.9955 128.859 67.0528C128.221 67.4052 125.924 68.4245 123.155 66.6689C122.866 66.4859 122.67 66.1877 122.626 65.849L121.869 59.9932H126.63Z" fill="url(#paint15_linear_2_17998)"/>
<path d="M121.54 53.7275C121.54 53.7275 118.971 58.5636 119.3 60.5169C119.629 62.4702 122.813 62.3302 125.594 60.7436L127.536 55.5216L121.54 53.7275Z" fill="url(#paint16_linear_2_17998)"/>
<path d="M125.471 58.1789C125.358 58.1287 125.317 57.9908 125.384 57.8873C125.59 57.5729 125.976 56.9315 126.099 56.3696C126.099 56.3696 126.561 56.074 124.924 55.682C123.286 55.29 120.845 54.682 120.331 53.2881C119.831 51.9291 121.146 48.5123 123.243 51.2349C123.323 51.3383 123.479 51.3409 123.559 51.2369C123.903 50.7892 124.807 49.8607 126.062 50.4235C127.236 50.9504 127.369 51.8109 127.353 52.245C127.348 52.3728 127.462 52.4717 127.587 52.4478C128.181 52.3348 129.606 52.2374 130.271 53.6993C130.819 54.9036 130.463 55.5852 130.139 55.9183C130.034 56.0263 130.08 56.2043 130.224 56.2484C130.615 56.3681 131.118 56.6987 131.068 57.613C130.998 58.8772 129.585 58.7656 129.183 58.7083C129.117 58.6987 129.05 58.7215 129.006 58.7707C128.661 59.1525 127.106 60.7737 125.424 60.9689C125.278 60.9856 125.165 60.8421 125.213 60.7032L125.941 58.5866C125.975 58.4882 125.928 58.3807 125.833 58.3386L125.471 58.1789Z" fill="url(#paint17_linear_2_17998)"/>
<path d="M125.178 58.4799C125.178 58.4799 127.007 57.2249 127.141 58.2817C127.275 59.3384 125.494 59.8126 124.612 59.4185L125.178 58.4799Z" fill="url(#paint18_linear_2_17998)"/>
<defs>
<linearGradient id="paint0_linear_2_17998" x1="28.325" y1="70.1328" x2="116.425" y2="72.4652" gradientUnits="userSpaceOnUse">
<stop stop-color="#1C2F40"/>
<stop offset="1" stop-color="#20415E"/>
</linearGradient>
<linearGradient id="paint1_linear_2_17998" x1="74.9966" y1="31.9127" x2="119.179" y2="33.435" gradientUnits="userSpaceOnUse">
<stop stop-color="#1C2F40"/>
<stop offset="1" stop-color="#20415E"/>
</linearGradient>
<linearGradient id="paint2_linear_2_17998" x1="123.139" y1="135.547" x2="120.355" y2="135.547" gradientUnits="userSpaceOnUse">
<stop stop-color="#F9B776"/>
<stop offset="1" stop-color="#F47960"/>
</linearGradient>
<linearGradient id="paint3_linear_2_17998" x1="120.535" y1="114.693" x2="129.576" y2="114.77" gradientUnits="userSpaceOnUse">
<stop stop-color="#1C2F40"/>
<stop offset="1" stop-color="#20415E"/>
</linearGradient>
<linearGradient id="paint4_linear_2_17998" x1="133.171" y1="135.404" x2="130.768" y2="135.404" gradientUnits="userSpaceOnUse">
<stop stop-color="#F9B776"/>
<stop offset="1" stop-color="#F47960"/>
</linearGradient>
<linearGradient id="paint5_linear_2_17998" x1="122.718" y1="114.325" x2="135.551" y2="114.477" gradientUnits="userSpaceOnUse">
<stop stop-color="#1C2F40"/>
<stop offset="1" stop-color="#20415E"/>
</linearGradient>
<linearGradient id="paint6_linear_2_17998" x1="106.966" y1="64.7607" x2="142.25" y2="67.7129" gradientUnits="userSpaceOnUse">
<stop stop-color="#90744B"/>
<stop offset="1" stop-color="#CB9A51"/>
</linearGradient>
<linearGradient id="paint7_linear_2_17998" x1="111.684" y1="62.9267" x2="97.4636" y2="62.9267" gradientUnits="userSpaceOnUse">
<stop stop-color="#F9B776"/>
<stop offset="1" stop-color="#F47960"/>
</linearGradient>
<linearGradient id="paint8_linear_2_17998" x1="100.632" y1="60.5427" x2="110.174" y2="82.2541" gradientUnits="userSpaceOnUse">
<stop stop-color="#F9B776"/>
<stop offset="1" stop-color="#F47960"/>
</linearGradient>
<linearGradient id="paint9_linear_2_17998" x1="97.5321" y1="53.3116" x2="93.5504" y2="47.1897" gradientUnits="userSpaceOnUse">
<stop stop-color="#F9B776"/>
<stop offset="1" stop-color="#F47960"/>
</linearGradient>
<linearGradient id="paint10_linear_2_17998" x1="131.19" y1="67.8936" x2="145.238" y2="69.0907" gradientUnits="userSpaceOnUse">
<stop stop-color="#90744B"/>
<stop offset="1" stop-color="#CB9A51"/>
</linearGradient>
<linearGradient id="paint11_linear_2_17998" x1="142.803" y1="83.0696" x2="124.806" y2="83.0696" gradientUnits="userSpaceOnUse">
<stop stop-color="#F9B776"/>
<stop offset="1" stop-color="#F47960"/>
</linearGradient>
<linearGradient id="paint12_linear_2_17998" x1="112.917" y1="70.7704" x2="116.504" y2="71.0667" gradientUnits="userSpaceOnUse">
<stop stop-color="#1C2F40"/>
<stop offset="1" stop-color="#20415E"/>
</linearGradient>
<linearGradient id="paint13_linear_2_17998" x1="111.493" y1="72.0908" x2="118.308" y2="72.8294" gradientUnits="userSpaceOnUse">
<stop stop-color="#1C2F40"/>
<stop offset="1" stop-color="#20415E"/>
</linearGradient>
<linearGradient id="paint14_linear_2_17998" x1="126.142" y1="81.1832" x2="120.535" y2="81.1832" gradientUnits="userSpaceOnUse">
<stop stop-color="#F9B776"/>
<stop offset="1" stop-color="#F47960"/>
</linearGradient>
<linearGradient id="paint15_linear_2_17998" x1="128.984" y1="63.8305" x2="121.869" y2="63.8305" gradientUnits="userSpaceOnUse">
<stop stop-color="#F9B776"/>
<stop offset="1" stop-color="#F47960"/>
</linearGradient>
<linearGradient id="paint16_linear_2_17998" x1="120.176" y1="59.3038" x2="128" y2="54.5322" gradientUnits="userSpaceOnUse">
<stop stop-color="#F9B776"/>
<stop offset="1" stop-color="#F47960"/>
</linearGradient>
<linearGradient id="paint17_linear_2_17998" x1="132.141" y1="49.5021" x2="122.034" y2="57.4847" gradientUnits="userSpaceOnUse">
<stop stop-color="#2B3582"/>
<stop offset="1" stop-color="#150E42"/>
</linearGradient>
<linearGradient id="paint18_linear_2_17998" x1="122.231" y1="61.0833" x2="129.27" y2="56.7902" gradientUnits="userSpaceOnUse">
<stop stop-color="#F9B776"/>
<stop offset="1" stop-color="#F47960"/>
</linearGradient>
</defs>
</svg>
