<svg width="89" height="20" viewBox="0 0 89 20" fill="none" xmlns="http://www.w3.org/2000/svg">
<path d="M20.2114 17.1207H12.002V2.47656H20.2114V17.1207Z" fill="#FF5F00"/>
<path d="M12.5277 9.79773C12.5277 6.82708 13.9289 4.18089 16.1111 2.47564C14.5153 1.22866 12.5014 0.484375 10.3126 0.484375C5.13102 0.484375 0.930664 4.65405 0.930664 9.79773C0.930664 14.9413 5.13102 19.111 10.3126 19.111C12.5014 19.111 14.5153 18.3667 16.1111 17.1197C13.9289 15.4145 12.5277 12.7683 12.5277 9.79773Z" fill="#EB001B"/>
<path d="M31.2836 9.79773C31.2836 14.9413 27.0832 19.111 21.9016 19.111C19.7128 19.111 17.6989 18.3667 16.1025 17.1197C18.2853 15.4145 19.6866 12.7683 19.6866 9.79773C19.6866 6.82708 18.2853 4.18089 16.1025 2.47564C17.6989 1.22866 19.7128 0.484375 21.9016 0.484375C27.0832 0.484375 31.2836 4.65405 31.2836 9.79773Z" fill="#F79E1B"/>
<path d="M85.6661 16.8137L85.2452 14.9287H80.5298L79.7798 16.7985L76.0008 16.805C78.4323 11.592 80.2347 7.72667 81.4105 5.21767C81.7177 4.56117 82.2645 4.2275 83.0677 4.23183C83.6823 4.23617 84.6863 4.23617 86.0798 4.23183L89 16.8093L85.6661 16.8158V16.8137ZM81.5919 12.346H84.6306L83.4935 7.62267L81.5919 12.346ZM57.2387 4.22967L61.0371 4.234L55.1653 16.8137L51.3185 16.8115C50.0194 12.3265 49.0637 8.9985 48.454 6.834C48.2677 6.16883 47.8976 5.70517 47.1815 5.48633C46.5452 5.29133 45.4855 4.988 44 4.5785V4.23183H50.0702C51.1202 4.23183 51.7323 4.68683 51.9306 5.6185L53.4306 12.7447L57.2387 4.22967ZM66.2556 4.234L63.2556 16.8115L59.6387 16.8072L62.6387 4.22967L66.2556 4.234ZM73.5911 4C74.6702 4 76.0347 4.299 76.8186 4.5785L76.1847 7.18717C75.4758 6.9315 74.3097 6.587 73.3298 6.60217C71.9024 6.62167 71.0218 7.15683 71.0218 7.67033C71.0218 8.50233 72.5508 8.92267 74.1282 9.83483C75.9258 10.8748 76.1605 11.8065 76.1387 12.8205C76.1145 14.9243 74.1282 17 69.9355 17C68.0218 16.974 67.3323 16.831 65.7742 16.337L66.4323 13.6157C68.0194 14.2093 68.6944 14.3978 70.0492 14.3978C71.2952 14.3978 72.3621 13.9493 72.3718 13.1672C72.3766 12.6103 71.9968 12.3352 70.6008 11.6462C69.2048 10.9593 67.25 10.0082 67.2742 8.09283C67.3056 5.6445 69.9065 4 73.5911 4Z" fill="black"/>
</svg>
