<svg width="26" height="26" viewBox="0 0 26 26" fill="none" xmlns="http://www.w3.org/2000/svg">
<path d="M20.2582 9.93288C19.8615 8.99459 19.2934 8.15242 18.5698 7.42884C17.8462 6.70526 17.0035 6.1371 16.0658 5.74048C15.0947 5.32948 14.0631 5.12109 12.9993 5.12109C11.9355 5.12109 10.904 5.3289 9.93288 5.74048C8.99459 6.1371 8.15242 6.70526 7.42884 7.42884C6.70526 8.15242 6.1371 8.99516 5.74048 9.93288C5.32948 10.904 5.12109 11.9355 5.12109 12.9993C5.12109 14.0631 5.3289 15.0947 5.74048 16.0658C6.1371 17.0041 6.70526 17.8462 7.42884 18.5698C8.15242 19.2934 8.99516 19.8615 9.93288 20.2582C10.904 20.6692 11.9355 20.8776 12.9993 20.8776C14.0631 20.8776 15.0947 20.6697 16.0658 20.2582C17.0041 19.8615 17.8462 19.2934 18.5698 18.5698C19.2934 17.8462 19.8615 17.0035 20.2582 16.0658C20.6692 15.0947 20.8776 14.0631 20.8776 12.9993C20.8776 11.9355 20.6692 10.904 20.2582 9.93288ZM11.9989 17.8249L9.9064 16.0289L7.89108 14.2991L9.6819 12.2124L11.5343 13.8023L15.8885 8.17372L18.1081 9.79645L11.9989 17.8249Z" fill="#1D9BF0"/>
<path d="M26 13.006L24.5482 10.7087L25.0133 8.03135L22.7954 6.46215L22.1962 3.81247L19.5459 3.21438L17.9807 0.992982L15.3029 1.45119L13.006 0L10.7087 1.45177L8.03135 0.98665L6.46215 3.2046L3.81247 3.80384L3.21438 6.45409L0.992982 8.01926L1.45119 10.6971L0 12.994L1.45177 15.2913L0.98665 17.9686L3.2046 19.5378L3.80384 22.1875L6.45409 22.7856L8.01926 25.007L10.6971 24.5488L12.994 26L15.2913 24.5482L17.9686 25.0133L19.5378 22.7954L22.1875 22.1962L22.7856 19.5459L25.007 17.9807L24.5488 15.3029L26 13.006ZM12.9997 22.2439C7.89435 22.2439 3.75606 18.1051 3.75606 13.0003C3.75606 7.8955 7.89492 3.75664 12.9997 3.75664C18.1045 3.75664 22.2434 7.8955 22.2434 13.0003C22.2434 18.1051 18.1051 22.2439 12.9997 22.2439Z" fill="#1D9BF0"/>
</svg>
