 <svg
              width="14"
              height="18"
              viewBox="0 0 14 18"
              fill="none"
              xmlns="http://www.w3.org/2000/svg"
            >
              <path
                d="M6.67964 9.0624C7.56037 9.0624 8.42133 8.80123 9.15363 8.31192C9.88594 7.82261 10.4567 7.12714 10.7937 6.31344C11.1308 5.49975 11.219 4.60439 11.0471 3.74057C10.8753 2.87676 10.4512 2.0833 9.82844 1.46053C9.20566 0.837754 8.4122 0.413639 7.54839 0.241817C6.68458 0.0699937 5.78921 0.158179 4.97552 0.495222C4.16183 0.832265 3.46635 1.40303 2.97704 2.13533C2.48773 2.86764 2.22656 3.72859 2.22656 4.60933C2.22774 5.78999 2.69728 6.92197 3.53214 7.75682C4.367 8.59168 5.49897 9.06122 6.67964 9.0624ZM6.67964 1.64061C7.26679 1.64061 7.84076 1.81472 8.32897 2.14093C8.81717 2.46714 9.19768 2.93079 9.42237 3.47325C9.64707 4.01571 9.70586 4.61262 9.59131 5.18849C9.47676 5.76437 9.19402 6.29334 8.77884 6.70853C8.36365 7.12371 7.83468 7.40645 7.2588 7.521C6.68293 7.63555 6.08602 7.57676 5.54356 7.35206C5.0011 7.12737 4.53745 6.74686 4.21124 6.25866C3.88503 5.77045 3.71092 5.19648 3.71092 4.60933C3.71092 3.82197 4.02369 3.06687 4.58044 2.51013C5.13718 1.95338 5.89228 1.64061 6.67964 1.64061Z"
                fill="black"
              />
              <path
                d="M6.67961 10.5474C4.90867 10.5493 3.21083 11.2537 1.95858 12.5059C0.706338 13.7582 0.00196444 15.456 0 17.227C0 17.4238 0.0781936 17.6126 0.217379 17.7518C0.356565 17.891 0.545341 17.9692 0.742179 17.9692C0.939017 17.9692 1.12779 17.891 1.26698 17.7518C1.40616 17.6126 1.48436 17.4238 1.48436 17.227C1.48436 15.8491 2.03171 14.5277 3.00601 13.5534C3.98031 12.5791 5.30174 12.0317 6.67961 12.0317C8.05748 12.0317 9.37891 12.5791 10.3532 13.5534C11.3275 14.5277 11.8749 15.8491 11.8749 17.227C11.8749 17.4238 11.9531 17.6126 12.0922 17.7518C12.2314 17.891 12.4202 17.9692 12.617 17.9692C12.8139 17.9692 13.0027 17.891 13.1418 17.7518C13.281 17.6126 13.3592 17.4238 13.3592 17.227C13.3573 15.456 12.6529 13.7582 11.4006 12.5059C10.1484 11.2537 8.45055 10.5493 6.67961 10.5474Z"
                fill="black"
              />
            </svg>