<svg viewBox="0 0 22 22" fill="none" xmlns="http://www.w3.org/2000/svg">
<rect width="22" height="22" rx="4" fill="url(#paint0_linear_3_25324)"/>
<path fill-rule="evenodd" clip-rule="evenodd" d="M11.95 9.64352C11.6191 9.78061 11.2637 9.84874 10.9056 9.84376C10.5475 9.84855 10.1922 9.78026 9.86137 9.64308C9.53057 9.50589 9.23123 9.30269 8.98163 9.04589C8.72484 8.79619 8.52168 8.49673 8.3846 8.16582C8.24751 7.83491 8.17937 7.47952 8.18436 7.12137C8.17945 6.76333 8.24763 6.40804 8.38471 6.07724C8.5218 5.74644 8.72491 5.44708 8.98163 5.19745C9.23432 4.94475 9.53431 4.7443 9.86446 4.60754C10.1946 4.47078 10.5485 4.40039 10.9058 4.40039C11.2632 4.40039 11.6171 4.47078 11.9472 4.60754C12.2774 4.7443 12.5774 4.94475 12.8301 5.19745C13.0868 5.44717 13.29 5.74664 13.4271 6.07754C13.5641 6.40844 13.6323 6.76383 13.6273 7.12197C13.6323 7.48011 13.5642 7.83551 13.4271 8.16642C13.29 8.49732 13.0869 8.79679 12.8301 9.04648C12.5804 9.30328 12.2809 9.50643 11.95 9.64352ZM16.5699 12.9015C16.6232 13.188 16.6611 13.4771 16.6834 13.7677H16.69C16.7084 14.0287 16.7179 14.301 16.7179 14.5775C16.7324 14.8962 16.6797 15.2144 16.5633 15.5114C16.4468 15.8085 16.2692 16.0777 16.0419 16.3016C15.5679 16.7351 14.9417 16.9635 14.2999 16.9372H7.70058C7.05881 16.9635 6.43265 16.735 5.95859 16.3016C5.73139 16.0776 5.5538 15.8084 5.43735 15.5114C5.32089 15.2144 5.26817 14.8962 5.2826 14.5775C5.2826 14.3028 5.29152 14.0299 5.30995 13.7677C5.33144 13.477 5.36855 13.1876 5.42113 12.9009C5.47296 12.6062 5.54406 12.3152 5.63397 12.0299C5.72463 11.7476 5.84417 11.4755 5.9907 11.2177C6.13561 10.9584 6.31746 10.7215 6.53054 10.5144C6.75423 10.3035 7.01671 10.1379 7.30343 10.0269C7.61916 9.90539 7.95506 9.84486 8.29334 9.84853C8.49026 9.86996 8.67644 9.94919 8.82842 10.0762C8.99132 10.1827 9.17979 10.3039 9.38788 10.4371C9.61476 10.5728 9.8576 10.6799 10.1108 10.7558C10.6852 10.9464 11.3058 10.9464 11.8802 10.7558C12.1336 10.6798 12.3766 10.5728 12.6037 10.4371C12.8136 10.3034 13.0015 10.1815 13.1626 10.0768C13.3146 9.94985 13.5008 9.87062 13.6977 9.84912C14.0359 9.84557 14.3718 9.90609 14.6876 10.0275C14.9743 10.1385 15.2368 10.3041 15.4605 10.515C15.6736 10.722 15.8554 10.959 16.0003 11.2183C16.1469 11.476 16.2664 11.7482 16.357 12.0305C16.447 12.3158 16.5181 12.6068 16.5699 12.9015Z" fill="white"/>
<defs>
<linearGradient id="paint0_linear_3_25324" x1="-1.38326e-07" y1="22" x2="21.1109" y2="22.8225" gradientUnits="userSpaceOnUse">
<stop stop-color="#1C2F40"/>
<stop offset="1" stop-color="#20415E"/>
</linearGradient>
</defs>
</svg>
