<svg xmlns="http://www.w3.org/2000/svg" width="17" height="17" viewBox="0 0 17 17" fill="none">
    <g clip-path="url(#clip0_314_16123)">
      <path d="M3.54167 1.41667H4.25V0.708333C4.25 0.520472 4.32463 0.340304 4.45747 0.207466C4.5903 0.0746278 4.77047 0 4.95833 0C5.1462 0 5.32636 0.0746278 5.4592 0.207466C5.59204 0.340304 5.66667 0.520472 5.66667 0.708333V1.41667H11.3333V0.708333C11.3333 0.520472 11.408 0.340304 11.5408 0.207466C11.6736 0.0746278 11.8538 0 12.0417 0C12.2295 0 12.4097 0.0746278 12.5425 0.207466C12.6754 0.340304 12.75 0.520472 12.75 0.708333V1.41667H13.4583C14.3973 1.41779 15.2975 1.79129 15.9614 2.45524C16.6254 3.11919 16.9989 4.01937 17 4.95833V13.4583C16.9989 14.3973 16.6254 15.2975 15.9614 15.9614C15.2975 16.6254 14.3973 16.9989 13.4583 17H3.54167C2.6027 16.9989 1.70252 16.6254 1.03857 15.9614C0.374624 15.2975 0.00112534 14.3973 0 13.4583V4.95833C0.00112534 4.01937 0.374624 3.11919 1.03857 2.45524C1.70252 1.79129 2.6027 1.41779 3.54167 1.41667ZM15.5833 4.95833C15.5833 4.39475 15.3594 3.85425 14.9609 3.45573C14.5624 3.05722 14.0219 2.83333 13.4583 2.83333H3.54167C2.97808 2.83333 2.43758 3.05722 2.03907 3.45573C1.64055 3.85425 1.41667 4.39475 1.41667 4.95833V5.66667H15.5833V4.95833ZM3.54167 15.5833H13.4583C14.0219 15.5833 14.5624 15.3595 14.9609 14.9609C15.3594 14.5624 15.5833 14.0219 15.5833 13.4583V7.08333H1.41667V13.4583C1.41667 14.0219 1.64055 14.5624 2.03907 14.9609C2.43758 15.3595 2.97808 15.5833 3.54167 15.5833Z" fill="#535353"/>
      <path d="M8.5 11.6875C7.9132 11.6875 7.4375 11.2118 7.4375 10.625C7.4375 10.0382 7.9132 9.5625 8.5 9.5625C9.0868 9.5625 9.5625 10.0382 9.5625 10.625C9.5625 11.2118 9.0868 11.6875 8.5 11.6875Z" fill="#535353"/>
      <path d="M12.0391 11.6875C11.4523 11.6875 10.9766 11.2118 10.9766 10.625C10.9766 10.0382 11.4523 9.5625 12.0391 9.5625C12.6259 9.5625 13.1016 10.0382 13.1016 10.625C13.1016 11.2118 12.6259 11.6875 12.0391 11.6875Z" fill="#535353"/>
      <path d="M4.96094 11.6875C4.37414 11.6875 3.89844 11.2118 3.89844 10.625C3.89844 10.0382 4.37414 9.5625 4.96094 9.5625C5.54774 9.5625 6.02344 10.0382 6.02344 10.625C6.02344 11.2118 5.54774 11.6875 4.96094 11.6875Z" fill="#535353"/>
    </g>
    <defs>
      <clipPath id="clip0_314_16123">
        <rect width="17" height="17" fill="white" transform="matrix(-1 0 0 1 17 0)"/>
      </clipPath>
    </defs>
  </svg>