<svg width="20" height="21" viewBox="0 0 20 21" fill="none" xmlns="http://www.w3.org/2000/svg">
<circle cx="10" cy="10.5" r="10" fill="white"/>
<path d="M8.40167 13.2692L5.62833 10.4958C5.52426 10.3918 5.39676 10.3362 5.24583 10.3292C5.09472 10.3219 4.96009 10.3775 4.84194 10.4958C4.72361 10.614 4.66444 10.745 4.66444 10.8889C4.66444 11.0328 4.72361 11.1638 4.84194 11.2819L7.77361 14.2136C7.95306 14.3931 8.16241 14.4828 8.40167 14.4828C8.64093 14.4828 8.85037 14.3931 9.03 14.2136L15.1153 8.12833C15.2194 8.02426 15.2749 7.89676 15.2819 7.74583C15.2892 7.59472 15.2336 7.46009 15.1153 7.34194C14.9971 7.22361 14.8661 7.16444 14.7222 7.16444C14.5783 7.16444 14.4473 7.22361 14.3292 7.34194L8.40167 13.2692ZM10.0036 20.5C8.62083 20.5 7.32074 20.2376 6.10333 19.7128C4.88611 19.188 3.82722 18.4757 2.92667 17.5761C2.02611 16.6765 1.31324 15.6185 0.788055 14.4022C0.262685 13.1861 0 11.8866 0 10.5036C0 9.12083 0.262407 7.82074 0.787222 6.60333C1.31204 5.38611 2.02426 4.32722 2.92389 3.42667C3.82352 2.52611 4.88148 1.81324 6.09778 1.28806C7.31389 0.762685 8.61343 0.5 9.99639 0.5C11.3792 0.5 12.6793 0.762408 13.8967 1.28722C15.1139 1.81204 16.1728 2.52426 17.0733 3.42389C17.9739 4.32352 18.6868 5.38148 19.2119 6.59778C19.7373 7.81389 20 9.11343 20 10.4964C20 11.8792 19.7376 13.1793 19.2128 14.3967C18.688 15.6139 17.9757 16.6728 17.0761 17.5733C16.1765 18.4739 15.1185 19.1868 13.9022 19.7119C12.6861 20.2373 11.3866 20.5 10.0036 20.5Z" fill="black"/>
</svg>
