<svg width="440" height="439" viewBox="0 0 440 439" fill="none" xmlns="http://www.w3.org/2000/svg">
<path d="M368 439H144C124.904 439 106.591 431.414 93.0883 417.912C79.5857 404.409 72 386.096 72 367V143C72 123.904 79.5857 105.591 93.0883 92.0883C106.591 78.5857 124.904 71 144 71H368C387.096 71 405.409 78.5857 418.912 92.0883C432.414 105.591 440 123.904 440 143V367C440 386.096 432.414 404.409 418.912 417.912C405.409 431.414 387.096 439 368 439Z" fill="#1C2F40"/>
<path d="M128 48H363.88C358.902 33.9724 349.705 21.8287 337.552 13.2349C325.399 4.641 310.885 0.0179701 296 0H72C52.9044 0 34.5909 7.58569 21.0883 21.0883C7.58569 34.5909 0 52.9044 0 72V296C0.0179701 310.885 4.641 325.399 13.2349 337.552C21.8287 349.705 33.9724 358.902 48 363.88V128C48 106.783 56.4285 86.4344 71.4315 71.4315C86.4344 56.4285 106.783 48 128 48Z" fill="#1C2F40" fill-opacity="0.9"/>
</svg>
