<svg viewBox="0 0 18 20" fill="none" xmlns="http://www.w3.org/2000/svg">
<path d="M16.4993 3.33333H13.916C13.7226 2.39284 13.2109 1.54779 12.4671 0.940598C11.7233 0.333408 10.7929 0.0012121 9.83268 0L8.16602 0C7.20584 0.0012121 6.27545 0.333408 5.53164 0.940598C4.78783 1.54779 4.2761 2.39284 4.08268 3.33333H1.49935C1.27834 3.33333 1.06637 3.42113 0.910093 3.57741C0.753813 3.73369 0.666016 3.94565 0.666016 4.16667C0.666016 4.38768 0.753813 4.59964 0.910093 4.75592C1.06637 4.9122 1.27834 5 1.49935 5H2.33268V15.8333C2.33401 16.938 2.77342 17.997 3.55453 18.7782C4.33565 19.5593 5.39469 19.9987 6.49935 20H11.4993C12.604 19.9987 13.6631 19.5593 14.4442 18.7782C15.2253 17.997 15.6647 16.938 15.666 15.8333V5H16.4993C16.7204 5 16.9323 4.9122 17.0886 4.75592C17.2449 4.59964 17.3327 4.38768 17.3327 4.16667C17.3327 3.94565 17.2449 3.73369 17.0886 3.57741C16.9323 3.42113 16.7204 3.33333 16.4993 3.33333ZM8.16602 1.66667H9.83268C10.3496 1.6673 10.8536 1.82781 11.2757 2.1262C11.6978 2.42459 12.0172 2.84624 12.1902 3.33333H5.80852C5.9815 2.84624 6.30093 2.42459 6.723 2.1262C7.14508 1.82781 7.64912 1.6673 8.16602 1.66667ZM13.9993 15.8333C13.9993 16.4964 13.736 17.1323 13.2671 17.6011C12.7983 18.0699 12.1624 18.3333 11.4993 18.3333H6.49935C5.83631 18.3333 5.20042 18.0699 4.73158 17.6011C4.26274 17.1323 3.99935 16.4964 3.99935 15.8333V5H13.9993V15.8333Z" fill="#B44242"/>
<path d="M7.33333 14.9987C7.55435 14.9987 7.76631 14.9109 7.92259 14.7546C8.07887 14.5983 8.16667 14.3864 8.16667 14.1654V9.16536C8.16667 8.94435 8.07887 8.73239 7.92259 8.57611C7.76631 8.41983 7.55435 8.33203 7.33333 8.33203C7.11232 8.33203 6.90036 8.41983 6.74408 8.57611C6.5878 8.73239 6.5 8.94435 6.5 9.16536V14.1654C6.5 14.3864 6.5878 14.5983 6.74408 14.7546C6.90036 14.9109 7.11232 14.9987 7.33333 14.9987Z" fill="#B44242"/>
<path d="M10.6663 14.9987C10.8874 14.9987 11.0993 14.9109 11.2556 14.7546C11.4119 14.5983 11.4997 14.3864 11.4997 14.1654V9.16536C11.4997 8.94435 11.4119 8.73239 11.2556 8.57611C11.0993 8.41983 10.8874 8.33203 10.6663 8.33203C10.4453 8.33203 10.2334 8.41983 10.0771 8.57611C9.92081 8.73239 9.83301 8.94435 9.83301 9.16536V14.1654C9.83301 14.3864 9.92081 14.5983 10.0771 14.7546C10.2334 14.9109 10.4453 14.9987 10.6663 14.9987Z" fill="#B44242"/>
</svg>
