<svg width="51" height="51" viewBox="0 0 51 51" fill="none" xmlns="http://www.w3.org/2000/svg">
<rect width="51" height="51" rx="8" fill="#BDA585"/>
<path d="M25.4991 7.5C25.4916 7.5 25.4864 7.50375 25.4789 7.50375C15.5635 7.51575 7.5 15.585 7.5 25.5015C7.5 35.4263 15.5747 43.5 25.5006 43.5C30.308 43.5 34.828 41.628 38.2282 38.2275C38.2319 38.2238 38.2327 38.2192 38.2357 38.2155C49.4435 26.9947 41.6141 7.5 25.4991 7.5ZM25.4999 14.0025C29.8309 14.0025 33.6991 16.4303 35.6494 20.1083C39.7178 27.7373 34.1439 36.9975 25.4999 36.9975C19.1601 36.9975 14.0018 31.8405 14.0018 25.5008C14.0018 19.2083 19.1256 14.0025 25.4999 14.0025ZM37.7076 36.687L35.1438 34.1235C38.2619 30.6458 39.2753 25.6665 37.7098 21.2205L38.823 20.7593L41.062 19.8315C41.7236 21.6458 42.0589 23.5478 42.0589 25.4985C42.0589 29.6805 40.5197 33.6255 37.7076 36.687ZM40.5099 18.5017C40.3937 18.5497 36.9388 19.9808 37.1578 19.89C35.1235 15.6533 30.9185 12.8348 26.22 12.5805L32.253 14.4632L37.1578 19.89C43.3453 20.1555 40.5099 18.5017 40.5099 18.5017ZM25.5006 42.06C16.3691 42.06 8.94017 34.632 8.94017 25.5015C8.94017 16.6133 15.9813 9.3375 24.7791 8.95875V12.5767C18.2015 12.939 12.5864 18.4448 12.5631 25.461C12.5631 25.4745 12.5616 25.4872 12.5616 25.5V25.5015C12.5616 32.6348 18.3658 38.4383 25.5006 38.4383C28.7508 38.4383 31.8592 37.179 34.1267 35.1443L36.6897 37.7078C33.6279 40.5195 29.6816 42.06 25.5006 42.06Z" fill="white"/>
<path d="M25.5013 35.1917C30.8453 35.1917 35.1932 30.8439 35.1932 25.4991C35.1932 20.155 30.8453 15.8071 25.5013 15.8071C20.1572 15.8071 15.8086 20.155 15.8086 25.4991C15.8086 30.8439 20.1565 35.1917 25.5013 35.1917ZM25.5013 17.275C30.0365 17.275 33.7261 20.9646 33.7261 25.4998C33.7261 30.035 30.0365 33.7246 25.5013 33.7246C20.9661 33.7246 17.2765 30.0342 17.2765 25.4991C17.2765 20.9646 20.9661 17.275 25.5013 17.275Z" fill="white"/>
<path d="M22.4775 27.4434L21.3457 28.6059C22.4717 29.4533 23.7432 29.9379 25.1587 30.0626V31.0383H26.1508V30.0756C27.2048 30.0309 28.0514 29.7633 28.6922 29.2744C29.333 28.784 29.6534 28.1501 29.6534 27.3706C29.6534 26.591 29.3748 25.996 28.816 25.5864C28.258 25.1775 27.3847 24.8508 26.1968 24.6107H26.15V22.0989C26.9455 22.197 27.6842 22.4559 28.366 22.8742L29.374 21.6446C28.3609 21.0489 27.286 20.7136 26.15 20.6429V19.9614H25.1578V20.6292C24.1556 20.6739 23.3417 20.9415 22.7168 21.4319C22.0919 21.9215 21.779 22.5518 21.779 23.322C21.779 24.0929 22.0509 24.6749 22.593 25.0665C23.1351 25.4588 23.99 25.7746 25.1578 26.0148V28.6073C24.2401 28.4819 23.3467 28.0939 22.4775 27.4434ZM26.1516 26.2412C26.7715 26.4021 27.1956 26.5737 27.4223 26.7554C27.6499 26.9379 27.7636 27.1859 27.7636 27.4968C27.7636 27.809 27.6189 28.0679 27.3295 28.272C27.04 28.4775 26.6469 28.6016 26.1516 28.6463V26.2412ZM23.9816 23.8694C23.775 23.6956 23.6721 23.4605 23.6721 23.1612C23.6721 22.8633 23.8043 22.6131 24.067 22.4133C24.3305 22.2129 24.6952 22.0946 25.1603 22.0593V24.3713C24.5806 24.2105 24.1883 24.0432 23.9816 23.8694Z" fill="white"/>
</svg>
