<svg xmlns="http://www.w3.org/2000/svg" viewBox="0 0 27 24" fill="none">
<path fill-rule="evenodd" clip-rule="evenodd" d="M13.187 2C12.5802 2 12.0882 2.44772 12.0882 3V14.5858L8.46986 11.2929C8.04073 10.9024 7.34499 10.9024 6.91586 11.2929C6.48674 11.6834 6.48674 12.3166 6.91586 12.7071L12.4101 17.7071C12.8392 18.0976 13.5349 18.0976 13.964 17.7071L19.4582 12.7071C19.8873 12.3166 19.8873 11.6834 19.4582 11.2929C19.0291 10.9024 18.3334 10.9024 17.9042 11.2929L14.2859 14.5858V3C14.2859 2.44772 13.7939 2 13.187 2ZM20.8789 21C20.8789 20.4477 20.3869 20 19.7801 20H6.59402C5.98715 20 5.49519 20.4477 5.49519 21C5.49519 21.5523 5.98715 22 6.59402 22H19.7801C20.3869 22 20.8789 21.5523 20.8789 21Z" fill="black"/>
</svg>