<svg width="48" height="48" viewBox="0 0 48 48" fill="none" xmlns="http://www.w3.org/2000/svg">
<rect x="0.5" y="0.5" width="47" height="47" rx="11.5" stroke="url(#paint0_linear_4726_2786)"/>
<path d="M14.8333 17.9588H17.1133C17.5633 19.6142 19.2703 20.5915 20.926 20.1416C21.9894 19.8526 22.8201 19.022 23.1092 17.9588H33.1667C33.6269 17.9588 34 17.5857 34 17.1256C34 16.6654 33.6269 16.2924 33.1667 16.2924H23.1092C22.6592 14.6369 20.9522 13.6596 19.2965 14.1095C18.2331 14.3985 17.4024 15.2291 17.1133 16.2923H14.8333C14.3731 16.2923 14 16.6654 14 17.1255C14 17.5857 14.3731 17.9588 14.8333 17.9588Z" fill="url(#paint1_linear_4726_2786)"/>
<path d="M33.1667 23.1677H30.8867C30.4376 21.5124 28.7315 20.5346 27.076 20.9836C26.0118 21.2723 25.1804 22.1035 24.8917 23.1677H14.8333C14.3731 23.1677 14 23.5407 14 24.0009C14 24.461 14.3731 24.8341 14.8333 24.8341H24.8917C25.3408 26.4893 27.0468 27.4671 28.7023 27.0181C29.7666 26.7294 30.598 25.8982 30.8867 24.8341H33.1667C33.6269 24.8341 34 24.461 34 24.0009C34 23.5407 33.6269 23.1677 33.1667 23.1677Z" fill="url(#paint2_linear_4726_2786)"/>
<path d="M33.1667 30.0413H23.1092C22.6592 28.3859 20.9522 27.4086 19.2965 27.8585C18.2331 28.1475 17.4024 28.9781 17.1133 30.0413H14.8333C14.3731 30.0413 14 30.4144 14 30.8745C14 31.3347 14.3731 31.7077 14.8333 31.7077H17.1133C17.5633 33.3632 19.2703 34.3405 20.926 33.8906C21.9894 33.6016 22.8201 32.771 23.1092 31.7077H33.1667C33.6269 31.7077 34 31.3347 34 30.8745C34 30.4144 33.6269 30.0413 33.1667 30.0413Z" fill="url(#paint3_linear_4726_2786)"/>
<defs>
<linearGradient id="paint0_linear_4726_2786" x1="-4.2" y1="1.11542e-06" x2="60.6303" y2="6.56447" gradientUnits="userSpaceOnUse">
<stop stop-color="#1C2F40"/>
<stop offset="0.0001" stop-color="#1C2F40"/>
<stop offset="1" stop-color="#20415E"/>
</linearGradient>
<linearGradient id="paint1_linear_4726_2786" x1="14" y1="20.2511" x2="32.9268" y2="22.6103" gradientUnits="userSpaceOnUse">
<stop stop-color="#1C2F40"/>
<stop offset="1" stop-color="#20415E"/>
</linearGradient>
<linearGradient id="paint2_linear_4726_2786" x1="14" y1="27.1272" x2="32.9269" y2="29.4858" gradientUnits="userSpaceOnUse">
<stop stop-color="#1C2F40"/>
<stop offset="1" stop-color="#20415E"/>
</linearGradient>
<linearGradient id="paint3_linear_4726_2786" x1="14" y1="34.0001" x2="32.9267" y2="36.3593" gradientUnits="userSpaceOnUse">
<stop stop-color="#1C2F40"/>
<stop offset="1" stop-color="#20415E"/>
</linearGradient>
</defs>
</svg>
