<svg width="126" height="104" viewBox="0 0 126 104" fill="none" xmlns="http://www.w3.org/2000/svg">
<g clip-path="url(#clip0_5_47124)">
<path d="M98.8702 57.7792C109.771 47.653 110.366 30.6384 100.194 19.7865C90.0101 8.93464 72.9292 8.34292 62.028 18.4691C52.6968 27.1327 50.9248 40.8203 56.9698 51.4043L56.9586 51.4154L51.4744 56.5064L52.7865 65.5831L44.2629 63.2051L37.3879 69.5912L38.7001 78.6679L30.1765 76.2899L24.266 81.7828L25.0623 87.3204L19.8696 85.869L16.4265 89.062L15.9106 97.4688L28.5054 100.628L69.3852 62.6692C78.9967 66.9452 90.6718 65.3822 98.8702 57.7792ZM94.8775 24.7212C97.7935 27.8361 97.6253 32.7149 94.4962 35.6177C91.3672 38.5205 86.4661 38.353 83.5501 35.2381C80.6341 32.1232 80.8024 27.2444 83.9314 24.3416C87.0493 21.4388 91.9504 21.6063 94.8775 24.7212Z" fill="url(#paint0_linear_5_47124)"/>
<path d="M94.8776 24.7212C94.8327 24.777 94.3729 24.2523 93.3411 23.6159C92.3317 23.0019 90.6045 22.3097 88.4624 22.5553C86.3651 22.7563 83.8641 24.096 82.5968 26.6192C81.2958 29.0642 81.5426 32.648 83.7968 35.0148C86.0063 37.4152 89.5839 37.9176 92.1298 36.79C94.743 35.707 96.2683 33.3179 96.6047 31.2413C96.9972 29.1312 96.4253 27.3784 95.8757 26.3289C95.3037 25.2571 94.8215 24.7659 94.8776 24.7212C94.9 24.71 95.0234 24.8217 95.2477 25.0561C95.4832 25.2906 95.786 25.6702 96.1 26.2061C96.7393 27.2555 97.4234 29.0754 97.0758 31.3306C96.7729 33.5411 95.1916 36.1536 92.3653 37.3594C90.9859 37.9623 89.3372 38.1967 87.711 37.8841C86.0848 37.605 84.5034 36.7453 83.3034 35.4838C82.1145 34.1998 81.3743 32.5698 81.2061 30.9398C81.0042 29.3098 81.3519 27.6798 82.0473 26.3512C83.4492 23.6271 86.1745 22.2427 88.4175 22.0976C90.7055 21.9078 92.4775 22.7116 93.4869 23.415C94.0028 23.7722 94.3617 24.096 94.5747 24.3416C94.7878 24.5761 94.8888 24.71 94.8776 24.7212Z" fill="#263238"/>
<path d="M98.8702 57.7792C98.8702 57.7792 98.7469 57.9131 98.4777 58.1476C98.1973 58.4044 97.8048 58.7505 97.2889 59.2082C96.1786 60.0567 94.5187 61.3406 92.0626 62.5129C89.6176 63.674 86.3876 64.757 82.4623 65.0807C78.5593 65.371 73.9386 64.8798 69.2955 62.8367L69.5198 62.8032C58.9886 72.6279 44.9695 85.6903 28.7186 100.84L28.5952 100.952L28.4382 100.907C24.4792 99.925 20.2062 98.8532 15.8434 97.7591L15.5854 97.6921L15.5967 97.4353C15.7537 94.8117 15.9331 91.9424 16.1014 89.0285L16.1126 88.9057L16.2023 88.8164C17.2677 87.8227 18.4453 86.7286 19.6342 85.6233L19.7688 85.5005L19.9482 85.5452C21.5632 85.9918 23.3464 86.4942 25.1409 86.9966L24.7259 87.3538C24.4792 85.6233 24.1988 83.7254 23.9184 81.8163L23.896 81.6488L24.0194 81.526C25.8811 79.7955 27.8886 77.931 29.9298 76.0331L30.0644 75.9103L30.2438 75.9661C32.9355 76.7141 35.8403 77.5291 38.7675 78.3441L38.3413 78.7125C37.9263 75.8321 37.4777 72.7507 37.0291 69.6358L37.0067 69.4572L37.13 69.3344C37.702 68.7985 38.3301 68.2179 38.9469 67.6374C40.6404 66.0632 42.3227 64.5002 43.9938 62.9483L44.1284 62.8143L44.3078 62.8702C47.1789 63.674 50.0164 64.4667 52.8314 65.2482L52.4053 65.6166C51.9679 62.5576 51.5305 59.532 51.0931 56.5399L51.0707 56.3724L51.194 56.2496C53.0445 54.5303 54.8726 52.8333 56.6895 51.1475L56.6334 51.5494C54.5025 47.7423 53.2801 43.5221 53.1231 39.3131C53.0333 37.2142 53.1567 35.1153 53.5717 33.0945C53.9193 31.0626 54.581 29.1088 55.3661 27.2444C58.6073 19.7753 65.1459 14.4052 72.1554 12.2393C79.2098 10.0176 86.6007 10.8996 92.3654 13.7577C98.2758 16.5823 102.425 21.316 104.848 26.1279C107.214 31.0179 107.899 36.0085 107.506 40.2398C107.158 44.4935 105.88 47.9879 104.478 50.5892C104.31 50.913 104.141 51.2368 103.973 51.5494C103.783 51.8397 103.603 52.1299 103.424 52.3979C103.054 52.945 102.751 53.4808 102.403 53.9274C101.674 54.7983 101.113 55.5909 100.564 56.138C100.025 56.6739 99.6105 57.087 99.3189 57.3772C99.016 57.6452 98.8702 57.7792 98.8702 57.7792C98.8702 57.7792 98.9936 57.6229 99.2628 57.3326C99.5544 57.0311 99.9469 56.6069 100.463 56.0598C101.001 55.5016 101.539 54.7089 102.246 53.8269C102.583 53.3804 102.885 52.8445 103.244 52.2974C103.424 52.0183 103.603 51.7392 103.783 51.4489C103.94 51.1363 104.097 50.8237 104.265 50.4888C105.622 47.8874 106.856 44.4153 107.17 40.2175C107.528 36.042 106.811 31.1184 104.467 26.3289C102.055 21.6063 97.9618 16.973 92.1971 14.2378C86.5222 11.4466 79.2659 10.5981 72.3797 12.7975C65.5272 14.9299 59.1457 20.2107 55.9942 27.5011C55.2203 29.3209 54.581 31.2301 54.2446 33.2173C53.852 35.1935 53.7287 37.2477 53.8184 39.2908C53.9754 43.3993 55.1755 47.519 57.2615 51.2368L57.3849 51.4601L57.1942 51.6387C55.3773 53.3245 53.5492 55.0215 51.6987 56.7409L51.7996 56.4506C52.237 59.4427 52.6744 62.4682 53.1118 65.5273L53.1903 66.0297L52.6969 65.8957C49.8818 65.1142 47.0331 64.3215 44.1732 63.5177L44.4985 63.4395C42.8274 64.9914 41.1451 66.5544 39.4516 68.1286C38.8235 68.7092 38.2067 69.2897 37.6347 69.8256L37.7357 69.5353C38.1843 72.6502 38.6329 75.7316 39.0478 78.6121L39.1264 79.1256L38.6329 78.9917C35.7057 78.1766 32.8009 77.3616 30.1093 76.6136L30.4233 76.5355C28.3933 78.4223 26.3746 80.2979 24.5128 82.0172L24.6138 81.7269C24.8941 83.6361 25.1633 85.534 25.41 87.2645L25.4773 87.7669L24.9951 87.6329C23.2006 87.1305 21.4174 86.6281 19.8024 86.1816L20.1164 86.1034C18.9276 87.2087 17.7388 88.3028 16.6733 89.2964L16.7743 89.0843C16.5948 91.9982 16.4154 94.8675 16.2584 97.4912L16.0228 97.1674C20.3968 98.2615 24.6698 99.3445 28.6176 100.338L28.3372 100.405C44.6443 85.3107 58.7083 72.3041 69.2843 62.5129L69.3852 62.4236L69.5086 62.4794C74.062 64.5113 78.6154 65.0361 82.4847 64.7793C86.3652 64.489 89.5728 63.4507 92.0065 62.3343C94.4514 61.1955 96.1225 59.9562 97.2552 59.1412C97.7824 58.7058 98.1861 58.3709 98.4777 58.1364C98.7132 57.8796 98.8702 57.7792 98.8702 57.7792Z" fill="#263238"/>
</g>
<path d="M116.248 17.8555C118.134 17.8555 119.662 16.3288 119.662 14.4454C119.662 12.562 118.134 11.0352 116.248 11.0352C114.363 11.0352 112.834 12.562 112.834 14.4454C112.834 16.3288 114.363 17.8555 116.248 17.8555Z" stroke="url(#paint1_linear_5_47124)" stroke-width="1.5" stroke-miterlimit="10" stroke-linecap="round" stroke-linejoin="round"/>
<path d="M7.81467 76.3399C7.81467 78.2227 6.28565 79.7369 4.41393 79.7369C2.52902 79.7369 1 78.2096 1 76.3399C1 74.457 2.52902 72.9297 4.41393 72.9297C6.29883 72.9429 7.81467 74.4702 7.81467 76.3399Z" stroke="#F1D5DF" stroke-width="1.5" stroke-miterlimit="10" stroke-linecap="round" stroke-linejoin="round"/>
<path d="M32.8284 1V9.03174" stroke="url(#paint2_linear_5_47124)" stroke-width="1.5" stroke-miterlimit="10" stroke-linecap="round" stroke-linejoin="round"/>
<path d="M36.8486 5.01587H28.8213" stroke="url(#paint3_linear_5_47124)" stroke-width="1.5" stroke-miterlimit="10" stroke-linecap="round" stroke-linejoin="round"/>
<path d="M84.0203 90.957V98.9888" stroke="url(#paint4_linear_5_47124)" stroke-width="1.5" stroke-miterlimit="10" stroke-linecap="round" stroke-linejoin="round"/>
<path d="M88.0405 94.9729H80" stroke="url(#paint5_linear_5_47124)" stroke-width="1.5" stroke-miterlimit="10" stroke-linecap="round" stroke-linejoin="round"/>
<defs>
<linearGradient id="paint0_linear_5_47124" x1="7.90088" y1="11.2448" x2="131.477" y2="24.0595" gradientUnits="userSpaceOnUse">
<stop stop-color="#1C2F40"/>
<stop offset="1" stop-color="#20415E"/>
</linearGradient>
<linearGradient id="paint1_linear_5_47124" x1="112.237" y1="11.0352" x2="121.459" y2="11.9699" gradientUnits="userSpaceOnUse">
<stop stop-color="#1C2F40"/>
<stop offset="1" stop-color="#20415E"/>
</linearGradient>
<linearGradient id="paint2_linear_5_47124" x1="32.7694" y1="1" x2="34.0772" y2="1.01563" gradientUnits="userSpaceOnUse">
<stop stop-color="#90744B"/>
<stop offset="1" stop-color="#CB9A51"/>
</linearGradient>
<linearGradient id="paint3_linear_5_47124" x1="28.3476" y1="5.01587" x2="34.9364" y2="10.0921" gradientUnits="userSpaceOnUse">
<stop stop-color="#90744B"/>
<stop offset="1" stop-color="#CB9A51"/>
</linearGradient>
<linearGradient id="paint4_linear_5_47124" x1="83.9328" y1="90.957" x2="85.297" y2="90.9742" gradientUnits="userSpaceOnUse">
<stop stop-color="#1C2F40"/>
<stop offset="1" stop-color="#20415E"/>
</linearGradient>
<linearGradient id="paint5_linear_5_47124" x1="79.2965" y1="94.9729" x2="85.8943" y2="100.345" gradientUnits="userSpaceOnUse">
<stop stop-color="#1C2F40"/>
<stop offset="1" stop-color="#20415E"/>
</linearGradient>
<clipPath id="clip0_5_47124">
<rect width="122" height="93" fill="white" transform="translate(4 11)"/>
</clipPath>
</defs>
</svg>
