<svg width="51" height="51" viewBox="0 0 51 51" fill="none" xmlns="http://www.w3.org/2000/svg">
<rect width="51" height="51" rx="8" fill="#1F3C57"/>
<path d="M12.6601 28.9948H8.01026C7.72838 28.9948 7.5 29.2232 7.5 29.505V39.1496C7.5 39.4315 7.72838 39.6599 8.01026 39.6599H12.6601C12.942 39.6599 13.1704 39.4315 13.1704 39.1496V29.505C13.1704 29.2232 12.942 28.9948 12.6601 28.9948ZM12.1503 38.6394H8.52053V30.0149H12.1503V38.6394ZM21.0456 24.7989H16.3957C16.1138 24.7989 15.8854 25.0273 15.8854 25.3092V39.1496C15.8854 39.4315 16.1138 39.6599 16.3957 39.6599H21.0456C21.3274 39.6599 21.5558 39.4315 21.5558 39.1496V25.3088C21.5554 25.0273 21.327 24.7989 21.0456 24.7989ZM20.5353 38.6394H16.9056V25.819H20.5353V38.6394ZM23.1617 18.0701C19.0121 20.7256 14.0608 22.5088 8.84194 23.2266C8.81838 23.2298 8.79483 23.2314 8.77167 23.2314C8.52093 23.2314 8.30213 23.0462 8.26699 22.7906C8.22866 22.5115 8.42351 22.254 8.70299 22.2157C18.4132 20.8794 26.8318 15.7816 30.9698 8.80525L28.4216 9.46643C28.1489 9.5375 27.8707 9.3734 27.7996 9.1007C27.7289 8.82801 27.8926 8.54972 28.1653 8.47865L31.8733 7.51643C32.0202 7.4781 32.1768 7.50764 32.3001 7.59668C32.4235 7.68571 32.5006 7.82506 32.5105 7.97678L32.7661 11.8588C32.7844 12.1399 32.5716 12.3826 32.2906 12.4014C32.279 12.4022 32.2678 12.4026 32.2566 12.4026C31.9903 12.4026 31.7659 12.1958 31.7479 11.9259L31.6034 9.72834C29.6111 12.9312 26.72 15.7931 23.1617 18.0701ZM38.3259 26.9466V16.9171C38.3259 16.6352 38.0975 16.4068 37.8156 16.4068H33.1661C32.8843 16.4068 32.6559 16.6352 32.6559 16.9171V26.5054C31.6713 26.7653 30.7554 27.1953 29.9409 27.7615V21.1129C29.9409 20.831 29.7125 20.6027 29.4306 20.6027H24.7807C24.4988 20.6027 24.2705 20.831 24.2705 21.1129V39.1492C24.2705 39.4311 24.4988 39.6595 24.7807 39.6595H27.679C29.231 41.9736 31.8705 43.5 34.8598 43.5C39.6239 43.5 43.5 39.624 43.5 34.86C43.5 31.3281 41.3695 28.2849 38.3259 26.9466ZM33.676 17.4273H37.3058V26.5732C36.53 26.3437 35.7091 26.2203 34.8598 26.2203C34.4582 26.2203 34.0633 26.2486 33.676 26.3017V17.4273ZM25.291 38.6394V21.6232H28.9207V28.5911C27.2586 30.1666 26.2201 32.3945 26.2201 34.86C26.2201 36.2143 26.5339 37.4971 27.0917 38.639L25.291 38.6394ZM34.8598 42.4799C30.6583 42.4799 27.2398 39.0618 27.2398 34.86C27.2398 30.6581 30.6579 27.24 34.8598 27.24C39.0617 27.24 42.4799 30.6581 42.4799 34.86C42.4799 39.0618 39.0617 42.4799 34.8598 42.4799ZM34.8598 28.1232C31.1451 28.1232 28.123 31.1452 28.123 34.8603C28.123 38.5755 31.1451 41.5975 34.8598 41.5975C38.5746 41.5975 41.5971 38.5755 41.5971 34.8603C41.5971 31.1452 38.5746 28.1232 34.8598 28.1232ZM37.1904 36.5157C37.1904 37.5294 36.4154 38.3806 35.3801 38.5978L35.3917 39.0714C35.3985 39.3529 35.1757 39.5868 34.8942 39.5936C34.8898 39.5936 34.8858 39.5936 34.8814 39.5936C34.6055 39.5936 34.3783 39.3732 34.3715 39.0957L34.3596 38.6062C33.7523 38.4904 33.361 38.1662 32.9865 37.8133C32.7816 37.6201 32.7721 37.297 32.9653 37.0922C33.1586 36.8874 33.4816 36.8778 33.6864 37.0711C34.124 37.4839 34.3671 37.6308 34.8594 37.6308C35.5821 37.6308 36.1698 37.1306 36.1698 36.5153C36.1698 35.9 35.5821 35.3998 34.8594 35.3998C33.5742 35.3998 32.5289 34.4415 32.5289 33.2641C32.5289 32.25 33.3047 31.3983 34.3408 31.1815L34.328 30.6485C34.3212 30.367 34.544 30.1331 34.8259 30.1263C35.1066 30.1171 35.3414 30.3423 35.3481 30.6242L35.3617 31.1947C35.9255 31.3273 36.6003 31.6519 36.9009 32.1094C37.0558 32.345 36.9903 32.6612 36.7548 32.8157C36.5192 32.9702 36.203 32.9052 36.0485 32.6696C35.9011 32.4456 35.2236 32.1486 34.8598 32.1486C34.1376 32.1486 33.5494 32.6488 33.5494 33.2641C33.5494 33.879 34.1372 34.3796 34.8598 34.3796C36.1451 34.38 37.1904 35.3379 37.1904 36.5157Z" fill="white"/>
</svg>
