
<svg width="24" height="24" viewBox="0 0 24 24" fill="none" xmlns="http://www.w3.org/2000/svg">
<path d="M13.0881 5.36265C12.5549 5.56135 12.2275 6.11741 12.2275 6.82668C12.2275 7.34124 12.3454 7.67596 12.6139 7.91026C12.9078 8.16695 13.2164 8.19665 13.598 8.00926C13.9732 7.8221 14.1901 7.52887 14.3181 7.03693C14.5873 5.98965 13.908 5.07012 13.0881 5.36265Z" fill="black"/>
<path d="M12.1756 8.91084C11.5255 9.04519 10.8113 9.59536 10.1669 10.4626C9.71051 11.0716 9.5118 11.4983 9.59925 11.6631C9.63437 11.7276 9.69848 11.78 9.74633 11.78C9.78759 11.78 10.0271 11.4754 10.2788 11.1011C10.5303 10.7317 10.8113 10.3633 10.9051 10.2808C11.2563 9.98287 11.5321 10.1816 11.4027 10.6502C11.374 10.7735 11.0571 11.8212 10.7116 12.9805C9.96202 15.4703 9.80951 16.1244 9.80432 16.8448C9.80432 17.2955 9.82153 17.4008 9.93844 17.5826C10.2086 18.021 10.7997 18.0748 11.5078 17.7304C12.4743 17.2493 13.861 15.5927 13.8023 14.9838C13.7917 14.866 13.7566 14.7962 13.7042 14.7962C13.6154 14.7962 13.5343 14.8961 12.9252 15.7398C12.3979 16.4651 12.0594 16.5841 12.0594 16.0386C12.0594 15.9097 12.3635 14.7266 12.7317 13.4029C13.1003 12.0803 13.4348 10.834 13.4702 10.6231C13.5593 10.1375 13.5121 9.5574 13.3643 9.31155C13.1595 8.95774 12.7083 8.80524 12.1756 8.91084Z" fill="black"/>
<path d="M11.9999 21.7654C6.61567 21.7654 2.23584 17.3844 2.23584 12.0001C2.23584 6.61616 6.61567 2.23633 11.9999 2.23633C17.3834 2.23633 21.7644 6.61616 21.7644 12.0001C21.7644 17.3844 17.3834 21.7654 11.9999 21.7654ZM11.9999 2.93876C7.00366 2.93876 2.93827 7.00415 2.93827 12.0001C2.93827 16.9961 7.00295 21.062 11.9999 21.062C16.9964 21.062 21.061 16.9973 21.061 12.0001C21.061 7.00344 16.9964 2.93876 11.9999 2.93876Z" fill="black"/>
<path d="M11.9998 22.0005C6.4859 22.0005 2 17.5139 2 11.9995C2 6.48567 6.4859 2 11.9998 2C17.5141 2 22 6.48567 22 11.9995C22 17.5139 17.5139 22.0005 11.9998 22.0005ZM11.9998 2.47143C6.7459 2.47143 2.47143 6.74566 2.47143 11.9995C2.47143 17.2541 6.7459 21.529 11.9998 21.529C17.2539 21.529 21.5286 17.2541 21.5286 11.9995C21.5286 6.74566 17.2539 2.47143 11.9998 2.47143ZM11.9998 21.2971C6.87318 21.2971 2.70243 17.1263 2.70243 11.9995C2.70243 6.87295 6.87318 2.70243 11.9998 2.70243C17.1261 2.70243 21.2966 6.87295 21.2966 11.9995C21.2966 17.1263 17.1261 21.2971 11.9998 21.2971ZM11.9998 3.17386C7.13318 3.17386 3.17386 7.13294 3.17386 11.9995C3.17386 16.8661 7.13318 20.8257 11.9998 20.8257C16.8663 20.8257 20.8252 16.8661 20.8252 11.9995C20.8252 7.13294 16.8661 3.17386 11.9998 3.17386Z" fill="black"/>
</svg>
