<svg width="22" height="21" viewBox="0 0 22 21" fill="none" xmlns="http://www.w3.org/2000/svg">
    <path fill-rule="evenodd" clip-rule="evenodd"
        d="M19.2425 11.9411H10.83C9.85367 11.9411 9.0625 11.1501 9.0625 10.1739V1.76297C9.0625 0.791023 9.85367 0 10.83 0H19.2425C20.2146 0 21.0058 0.791023 21.0058 1.76297V10.1739C21.0058 11.1501 20.2146 11.9411 19.2425 11.9411ZM12.9805 6.92145L12.2398 8.68442C12.1514 8.89901 12.2524 9.14305 12.467 9.23141C12.6817 9.32398 12.93 9.22299 13.0183 9.00841L13.6454 7.5021H16.4229L17.0541 9.00841C17.1215 9.1683 17.2772 9.26507 17.4413 9.26507C17.496 9.26507 17.5507 9.25665 17.6054 9.23141C17.82 9.14305 17.921 8.89901 17.8285 8.68442L17.092 6.92145V6.91724L15.4255 2.93268C15.3582 2.777 15.2067 2.67601 15.0341 2.67601C14.8658 2.67601 14.7143 2.777 14.647 2.93268L12.9805 6.91724V6.92145ZM15.0392 4.18652L14.0039 6.66058H16.0786L15.0392 4.18652ZM10.18 21.0001H1.7675C0.791167 21.0001 0 20.2091 0 19.2329V10.822C0 9.85005 0.791167 9.05903 1.7675 9.05903H8.21888V10.174C8.21888 11.613 9.3888 12.7827 10.828 12.7827H11.9475V19.2329C11.9475 20.2091 11.1521 21.0001 10.18 21.0001ZM2.57171 8.1791C2.80317 8.1791 2.99255 7.98976 2.99255 7.75834V7.71626C2.99255 6.07531 4.09934 4.69102 5.60172 4.26185L5.52597 4.35441C5.38288 4.53534 5.41234 4.80042 5.5933 4.94347C5.66905 5.00659 5.76163 5.03604 5.85422 5.03604C5.97626 5.03604 6.10251 4.98134 6.18247 4.87615L6.91051 3.9589C6.91817 3.95125 6.92273 3.9405 6.92701 3.93041C6.92979 3.92386 6.93245 3.91759 6.93576 3.91262C6.95259 3.88737 6.96522 3.86213 6.97363 3.83688C6.98102 3.81474 6.98516 3.78937 6.98891 3.76643L6.99047 3.75694C6.99199 3.74935 6.99405 3.74231 6.99607 3.73543C6.99965 3.72322 7.00309 3.71149 7.00309 3.69803C7.00309 3.69383 7.00204 3.68962 7.00099 3.68542L7.00099 3.68541L7.00099 3.6854C6.99994 3.6812 6.99888 3.67699 6.99888 3.67279C6.99888 3.66999 6.99935 3.66718 6.99982 3.66438L6.99982 3.66437C7.00075 3.65876 7.00169 3.65315 6.99888 3.64754C6.99678 3.63702 6.99362 3.62756 6.99047 3.61809C6.98731 3.60862 6.98416 3.59916 6.98205 3.58864C6.97904 3.5796 6.97657 3.57003 6.97405 3.56031C6.96954 3.54285 6.96491 3.52491 6.9568 3.50869C6.94418 3.48766 6.93155 3.46662 6.91472 3.44558C6.89788 3.42033 6.88105 3.3993 6.86001 3.38247C6.85874 3.38119 6.85746 3.37953 6.85607 3.37772C6.85287 3.37355 6.84904 3.36857 6.84318 3.36564L5.92576 2.63773C5.7448 2.49467 5.47967 2.52412 5.33238 2.70505C5.1893 2.88597 5.21876 3.15105 5.39972 3.29831L5.53438 3.4035C3.59013 3.87475 2.14246 5.6251 2.14246 7.70785V7.74992C2.15088 7.98976 2.33605 8.1791 2.57171 8.1791ZM14.7852 16.1613C14.9325 15.9804 15.1977 15.951 15.3786 16.094C15.5596 16.2371 15.589 16.5022 15.4417 16.6831L15.366 16.7757C16.8684 16.3465 17.9752 14.9622 17.9752 13.3212V13.2792C17.9752 13.0477 18.1645 12.8584 18.396 12.8584C18.6275 12.8584 18.8168 13.0477 18.8168 13.2792V13.3212C18.8168 15.404 17.3692 17.1543 15.4249 17.6256L15.5596 17.7308C15.7405 17.878 15.77 18.1431 15.6269 18.324C15.547 18.4292 15.4207 18.4839 15.2987 18.4839C15.2061 18.4839 15.1135 18.4545 15.0377 18.3914L14.1203 17.6634C14.1145 17.6605 14.1106 17.6555 14.1074 17.6514C14.106 17.6495 14.1048 17.6479 14.1035 17.6466C14.0825 17.6256 14.0656 17.6045 14.0488 17.5793C14.0425 17.5688 14.0351 17.5583 14.0277 17.5477C14.0204 17.5372 14.013 17.5267 14.0067 17.5162C14.002 17.5045 13.9986 17.4914 13.9951 17.4778C13.9923 17.467 13.9894 17.4558 13.9857 17.4447L13.9828 17.4349C13.9755 17.4095 13.9688 17.3866 13.9688 17.3605C13.9688 17.3563 13.9678 17.3521 13.9667 17.3479C13.9657 17.3437 13.9646 17.3395 13.9646 17.3353C13.9646 17.324 13.9684 17.3128 13.9721 17.3016L13.974 17.2959C13.9752 17.2922 13.9763 17.2885 13.9772 17.2848C13.9815 17.2553 13.9857 17.2301 13.9941 17.2006C14.0025 17.1754 14.0151 17.1501 14.032 17.1249C14.0339 17.1219 14.0356 17.1185 14.0373 17.1149C14.0385 17.1124 14.0396 17.1098 14.0407 17.1071L14.0407 17.1071C14.045 17.097 14.0495 17.0863 14.0572 17.0786L14.7852 16.1613ZM5.23015 18.8603C5.54638 18.9393 5.87003 18.9789 6.20109 18.9789C6.47285 18.9789 6.73968 18.9566 7.00156 18.9121C7.26838 18.8677 7.50803 18.8133 7.7205 18.7491C7.93791 18.6849 8.10591 18.6231 8.2245 18.5638L7.92803 17.6077C7.70568 17.7016 7.44627 17.7806 7.1498 17.8449C6.85827 17.9091 6.54203 17.9412 6.20109 17.9412C6.06768 17.9412 5.92685 17.9289 5.77862 17.9041C5.63038 17.8794 5.48709 17.8374 5.34874 17.7781C5.21038 17.7238 5.08438 17.6497 4.97074 17.5558C4.85709 17.4669 4.76568 17.3557 4.6965 17.2223C4.63227 17.0889 4.60015 16.9332 4.60015 16.7553C4.60015 16.533 4.64956 16.3205 4.74838 16.1179C4.85215 15.9203 5.00779 15.735 5.21532 15.562C5.42285 15.3891 5.68474 15.2384 6.00097 15.1099C6.32215 14.9814 6.70015 14.8777 7.13497 14.7986L6.89038 13.8203C6.40615 13.8944 5.95897 14.0204 5.54885 14.1983C5.52088 14.2102 5.49317 14.2224 5.46572 14.2347C5.34775 14.1904 5.23958 14.1362 5.14121 14.0723C5.04238 14.0031 4.96085 13.924 4.89662 13.8351C4.83732 13.7461 4.80768 13.6523 4.80768 13.5534C4.80768 13.4299 4.83979 13.3237 4.90403 13.2347C4.97321 13.1409 5.06956 13.0692 5.19309 13.0198C5.32156 12.9704 5.47227 12.9457 5.64521 12.9457C5.72921 12.9457 5.82556 12.9531 5.93427 12.9679C6.04297 12.9827 6.14921 13.0025 6.25297 13.0272L6.41603 12.0414C6.27274 12.0019 6.13191 11.9723 5.99356 11.9525C5.86015 11.9327 5.71438 11.9229 5.55627 11.9229C5.23509 11.9229 4.93862 11.9846 4.66685 12.1081C4.39509 12.2317 4.17768 12.4071 4.01462 12.6344C3.85156 12.8617 3.77003 13.131 3.77003 13.4423C3.77003 13.6893 3.81203 13.9092 3.89603 14.1019C3.98497 14.2897 4.10109 14.4478 4.24438 14.5763C4.34413 14.6627 4.44948 14.7357 4.56041 14.7953C4.5388 14.8135 4.51745 14.8319 4.49638 14.8505C4.19991 15.1124 3.97015 15.4138 3.80709 15.7547C3.64403 16.0907 3.5625 16.4613 3.5625 16.8665C3.5625 17.242 3.63662 17.5632 3.78485 17.83C3.93309 18.0969 4.13321 18.3143 4.38521 18.4823C4.63721 18.6552 4.91885 18.7812 5.23015 18.8603Z"
        fill="white" />
</svg>