<svg width="7" height="10" viewBox="0 0 7 10" fill="none" xmlns="http://www.w3.org/2000/svg">
<path d="M3.5 0C1.56712 0 0 1.67906 0 3.75C0 4.56547 0.249521 5.31375 0.664271 5.92656C0.671708 5.94125 0.672875 5.95766 0.681333 5.97172L3.01467 9.72172C3.12287 9.89563 3.30517 10 3.5 10C3.69483 10 3.87712 9.89563 3.98533 9.72172L6.31867 5.97172C6.32727 5.95766 6.32829 5.94125 6.33573 5.92656C6.75048 5.31375 7 4.56547 7 3.75C7 1.67906 5.43287 0 3.5 0ZM3.5 5C2.85571 5 2.33333 4.44031 2.33333 3.75C2.33333 3.05969 2.85571 2.5 3.5 2.5C4.14429 2.5 4.66667 3.05969 4.66667 3.75C4.66667 4.44031 4.14429 5 3.5 5Z" fill="url(#paint0_linear_2_9821)"/>
<defs>
<linearGradient id="paint0_linear_2_9821" x1="-0.6125" y1="2.32379e-07" x2="8.89111" y2="0.67361" gradientUnits="userSpaceOnUse">
<stop stop-color="#1C2F40"/>
<stop offset="1" stop-color="#20415E"/>
</linearGradient>
</defs>
</svg>
