<svg width="24" height="24" viewBox="0 0 24 24" fill="none" xmlns="http://www.w3.org/2000/svg">
<g clip-path="url(#clip0_3_4)">
<mask id="path-1-inside-1_3_4" fill="white">
<path d="M23.2594 16.2002L20.6594 6.82917C20.1042 4.82459 18.8945 3.06331 17.2227 1.82566C15.5509 0.588005 13.5132 -0.0549039 11.4339 -0.000744217C9.35453 0.0534155 7.35306 0.801531 5.74799 2.12454C4.14292 3.44754 3.02649 5.26941 2.5764 7.30017L0.565404 16.3502C0.468096 16.7886 0.47047 17.2433 0.572349 17.6807C0.674228 18.1181 0.873013 18.5271 1.15404 18.8774C1.43506 19.2277 1.79116 19.5105 2.19605 19.7048C2.60094 19.8991 3.04429 20.0001 3.4934 20.0002H7.1004C7.32992 21.1305 7.94313 22.1466 8.83615 22.8766C9.72916 23.6065 10.847 24.0052 12.0004 24.0052C13.1538 24.0052 14.2716 23.6065 15.1647 22.8766C16.0577 22.1466 16.6709 21.1305 16.9004 20.0002H20.3704C20.8325 20 21.2883 19.893 21.7023 19.6876C22.1163 19.4823 22.4772 19.184 22.7569 18.8162C23.0367 18.4484 23.2276 18.0209 23.315 17.5672C23.4023 17.1134 23.3826 16.6455 23.2594 16.2002ZM12.0004 22.0002C11.3821 21.9976 10.7798 21.8041 10.2757 21.4461C9.77164 21.0881 9.39049 20.5831 9.1844 20.0002H14.8164C14.6103 20.5831 14.2292 21.0881 13.7251 21.4461C13.221 21.8041 12.6187 21.9976 12.0004 22.0002ZM21.1654 17.6052C21.0721 17.7289 20.9512 17.829 20.8123 17.8976C20.6734 17.9662 20.5203 18.0013 20.3654 18.0002H3.4934C3.34367 18.0001 3.19584 17.9665 3.06085 17.9017C2.92586 17.8369 2.80714 17.7426 2.71346 17.6258C2.61978 17.509 2.55352 17.3726 2.51959 17.2268C2.48566 17.0809 2.48491 16.9293 2.5174 16.7832L4.5284 7.73317C4.88276 6.13938 5.75971 4.70978 7.01986 3.67162C8.28001 2.63347 9.85103 2.04634 11.4832 2.00359C13.1153 1.96083 14.7149 2.46489 16.0277 3.43564C17.3405 4.40639 18.2911 5.78812 18.7284 7.36117L21.3284 16.7322C21.3709 16.8804 21.3782 17.0364 21.3499 17.1879C21.3216 17.3394 21.2585 17.4823 21.1654 17.6052Z"/>
</mask>
<path d="M23.2594 16.2002L20.6594 6.82917C20.1042 4.82459 18.8945 3.06331 17.2227 1.82566C15.5509 0.588005 13.5132 -0.0549039 11.4339 -0.000744217C9.35453 0.0534155 7.35306 0.801531 5.74799 2.12454C4.14292 3.44754 3.02649 5.26941 2.5764 7.30017L0.565404 16.3502C0.468096 16.7886 0.47047 17.2433 0.572349 17.6807C0.674228 18.1181 0.873013 18.5271 1.15404 18.8774C1.43506 19.2277 1.79116 19.5105 2.19605 19.7048C2.60094 19.8991 3.04429 20.0001 3.4934 20.0002H7.1004C7.32992 21.1305 7.94313 22.1466 8.83615 22.8766C9.72916 23.6065 10.847 24.0052 12.0004 24.0052C13.1538 24.0052 14.2716 23.6065 15.1647 22.8766C16.0577 22.1466 16.6709 21.1305 16.9004 20.0002H20.3704C20.8325 20 21.2883 19.893 21.7023 19.6876C22.1163 19.4823 22.4772 19.184 22.7569 18.8162C23.0367 18.4484 23.2276 18.0209 23.315 17.5672C23.4023 17.1134 23.3826 16.6455 23.2594 16.2002ZM12.0004 22.0002C11.3821 21.9976 10.7798 21.8041 10.2757 21.4461C9.77164 21.0881 9.39049 20.5831 9.1844 20.0002H14.8164C14.6103 20.5831 14.2292 21.0881 13.7251 21.4461C13.221 21.8041 12.6187 21.9976 12.0004 22.0002ZM21.1654 17.6052C21.0721 17.7289 20.9512 17.829 20.8123 17.8976C20.6734 17.9662 20.5203 18.0013 20.3654 18.0002H3.4934C3.34367 18.0001 3.19584 17.9665 3.06085 17.9017C2.92586 17.8369 2.80714 17.7426 2.71346 17.6258C2.61978 17.509 2.55352 17.3726 2.51959 17.2268C2.48566 17.0809 2.48491 16.9293 2.5174 16.7832L4.5284 7.73317C4.88276 6.13938 5.75971 4.70978 7.01986 3.67162C8.28001 2.63347 9.85103 2.04634 11.4832 2.00359C13.1153 1.96083 14.7149 2.46489 16.0277 3.43564C17.3405 4.40639 18.2911 5.78812 18.7284 7.36117L21.3284 16.7322C21.3709 16.8804 21.3782 17.0364 21.3499 17.1879C21.3216 17.3394 21.2585 17.4823 21.1654 17.6052Z" fill="url(#paint0_linear_3_4)"/>
<path d="M23.2594 16.2002L43.8202 10.5113L43.8182 10.504L43.8162 10.4967L23.2594 16.2002ZM20.6594 6.82917L0.100046 12.5234L0.102628 12.5327L20.6594 6.82917ZM2.5764 7.30017L23.4018 11.9278L23.4043 11.9164L2.5764 7.30017ZM0.565404 16.3502L-20.26 11.7226L-20.2612 11.728L0.565404 16.3502ZM3.4934 20.0002L3.48816 41.3335H3.4934V20.0002ZM7.1004 20.0002L28.0071 15.7549L24.5372 -1.33316L7.1004 -1.33316V20.0002ZM16.9004 20.0002V-1.33316H-0.536386L-4.00626 15.7549L16.9004 20.0002ZM20.3704 20.0002L20.3704 41.3335L20.3801 41.3335L20.3704 20.0002ZM12.0004 22.0002L11.912 43.3333L12.0004 43.3337L12.0888 43.3333L12.0004 22.0002ZM9.1844 20.0002V-1.33316H-20.9852L-10.9289 27.1111L9.1844 20.0002ZM14.8164 20.0002L34.9297 27.1111L44.986 -1.33316L14.8164 -1.33316V20.0002ZM21.1654 17.6052L4.15894 4.72529L4.14638 4.74187L4.13386 4.75848L21.1654 17.6052ZM20.3654 18.0002L20.5208 -3.33259L20.4431 -3.33316H20.3654V18.0002ZM3.4934 18.0002L3.48974 39.3335H3.4934V18.0002ZM2.5174 16.7832L23.3424 21.4125L23.3428 21.4108L2.5174 16.7832ZM4.5284 7.73317L-16.2964 3.10312L-16.297 3.10557L4.5284 7.73317ZM18.7284 7.36117L39.2852 1.65766L39.2823 1.64712L18.7284 7.36117ZM21.3284 16.7322L0.771625 22.4357L0.7955 22.5217L0.820094 22.6076L21.3284 16.7322ZM43.8162 10.4967L41.2162 1.12566L0.102628 12.5327L2.70263 21.9037L43.8162 10.4967ZM41.2188 1.13496C39.3929 -5.45758 35.4143 -11.25 29.9163 -15.3203L4.52908 18.9716C2.3746 17.3766 0.815552 15.1068 0.100049 12.5234L41.2188 1.13496ZM29.9163 -15.3203C24.4183 -19.3906 17.7168 -21.505 10.8784 -21.3268L11.9893 21.3254C9.30962 21.3952 6.68355 20.5666 4.52908 18.9716L29.9163 -15.3203ZM10.8784 -21.3268C4.03999 -21.1487 -2.54235 -18.6884 -7.821 -14.3374L19.317 18.5864C17.2485 20.2914 14.6691 21.2556 11.9893 21.3254L10.8784 -21.3268ZM-7.821 -14.3374C-13.0997 -9.98634 -16.7713 -3.9947 -18.2515 2.68396L23.4043 11.9164C22.8243 14.5335 21.3855 16.8814 19.317 18.5864L-7.821 -14.3374ZM-18.249 2.67257L-20.26 11.7226L21.3908 20.9778L23.4018 11.9278L-18.249 2.67257ZM-20.2612 11.728C-21.0504 15.2842 -21.0312 18.9723 -20.2048 22.5201L21.3495 12.8413C21.9721 15.5143 21.9866 18.293 21.392 20.9724L-20.2612 11.728ZM-20.2048 22.5201C-19.3785 26.0679 -17.7661 29.385 -15.4867 32.2264L17.7948 5.52833C19.5121 7.66917 20.7269 10.1683 21.3495 12.8413L-20.2048 22.5201ZM-15.4867 32.2264C-13.2073 35.0679 -10.3189 37.3614 -7.03484 38.9376L11.4269 0.471957C13.9013 1.65952 16.0774 3.38747 17.7948 5.52833L-15.4867 32.2264ZM-7.03484 38.9376C-3.75075 40.5138 -0.154645 41.3326 3.48816 41.3335L3.49864 -1.33316C6.24323 -1.33249 8.95262 -0.7156 11.4269 0.471957L-7.03484 38.9376ZM3.4934 41.3335H7.1004V-1.33316H3.4934V41.3335ZM-13.8063 24.2455C-12.5975 30.1983 -9.36789 35.5502 -4.66469 39.3944L22.337 6.35873C25.2542 8.74307 27.2573 12.0626 28.0071 15.7549L-13.8063 24.2455ZM-4.66469 39.3944C0.0384981 43.2385 5.92605 45.3385 12.0004 45.3385V2.67185C15.768 2.67185 19.4198 3.97438 22.337 6.35873L-4.66469 39.3944ZM12.0004 45.3385C18.0748 45.3385 23.9623 43.2385 28.6655 39.3944L1.66382 6.35873C4.58099 3.97438 8.23276 2.67185 12.0004 2.67185V45.3385ZM28.6655 39.3944C33.3687 35.5502 36.5983 30.1983 37.8071 24.2455L-4.00626 15.7549C-3.25651 12.0626 -1.25334 8.74307 1.66382 6.35873L28.6655 39.3944ZM16.9004 41.3335H20.3704V-1.33316H16.9004V41.3335ZM20.3801 41.3335C24.1283 41.3318 27.8255 40.4642 31.1832 38.7985L12.2214 0.576812C14.7512 -0.678219 17.5367 -1.33187 20.3607 -1.33316L20.3801 41.3335ZM31.1832 38.7985C34.5409 37.1327 37.4684 34.7138 39.7374 31.7303L5.77643 5.90211C7.48594 3.65432 9.6916 1.83184 12.2214 0.576812L31.1832 38.7985ZM39.7374 31.7303C42.0064 28.7469 43.5555 25.2796 44.2639 21.599L2.3661 13.5353C2.89981 10.7622 4.06692 8.14991 5.77643 5.90211L39.7374 31.7303ZM44.2639 21.599C44.9782 17.8872 44.8113 14.0931 43.8202 10.5113L2.69858 21.8891C1.954 19.198 1.82639 16.3395 2.3661 13.5353L44.2639 21.599ZM12.0888 0.667024C15.8671 0.682686 19.5483 1.86533 22.6287 4.05311L-2.07726 38.8391C2.01129 41.7429 6.89717 43.3125 11.912 43.3333L12.0888 0.667024ZM22.6287 4.05311C25.7091 6.24091 28.0383 9.32702 29.2977 12.8892L-10.9289 27.1111C-9.25735 31.8391 -6.16581 35.9353 -2.07726 38.8391L22.6287 4.05311ZM9.1844 41.3335H14.8164V-1.33316H9.1844V41.3335ZM-5.29692 12.8892C-4.03752 9.32702 -1.70827 6.24091 1.37214 4.05311L26.0781 38.8391C30.1666 35.9353 33.2582 31.8391 34.9297 27.1111L-5.29692 12.8892ZM1.37214 4.05311C4.45255 1.86533 8.13369 0.682686 11.912 0.667024L12.0888 43.3333C17.1036 43.3125 21.9895 41.7429 26.0781 38.8391L1.37214 4.05311ZM4.13386 4.75848C6.04481 2.22503 8.52203 0.173822 11.3675 -1.23111L30.2571 37.0263C33.3803 35.4842 36.0994 33.2327 38.197 30.4519L4.13386 4.75848ZM11.3675 -1.23111C14.2129 -2.63605 17.3476 -3.35571 20.5208 -3.33259L20.21 39.3329C23.6931 39.3583 27.1338 38.5684 30.2571 37.0263L11.3675 -1.23111ZM20.3654 -3.33316H3.4934V39.3335H20.3654V-3.33316ZM3.49706 -3.33316C6.54181 -3.33264 9.54751 -2.64834 12.2923 -1.33086L-6.17061 37.1343C-3.15582 38.5813 0.145519 39.3329 3.48974 39.3335L3.49706 -3.33316ZM12.2923 -1.33086C15.0371 -0.0133923 17.4511 1.90369 19.356 4.27898L-13.9291 30.9726C-11.8368 33.5816 -9.18537 35.6872 -6.17061 37.1343L12.2923 -1.33086ZM19.356 4.27898C21.2608 6.65419 22.608 9.42686 23.2979 12.3923L-18.2587 22.0612C-17.5009 25.3184 -16.0213 28.3638 -13.9291 30.9726L19.356 4.27898ZM23.2979 12.3923C23.9879 15.3578 24.0031 18.4404 23.3424 21.4125L-18.3076 12.1538C-19.0333 15.4183 -19.0166 18.8041 -18.2587 22.0612L23.2979 12.3923ZM23.3428 21.4108L25.3538 12.3608L-16.297 3.10557L-18.308 12.1556L23.3428 21.4108ZM25.3532 12.3632C24.675 15.4137 22.9965 18.15 20.5846 20.137L-6.54489 -12.7938C-11.4771 -8.73043 -14.9095 -3.13497 -16.2964 3.10312L25.3532 12.3632ZM20.5846 20.137C18.1727 22.124 15.1658 23.2478 12.0419 23.3296L10.9245 -19.3224C4.53628 -19.1551 -1.61268 -16.8571 -6.54489 -12.7938L20.5846 20.137ZM12.0419 23.3296C8.91794 23.4114 5.85631 22.4467 3.34366 20.5887L28.7118 -13.7174C23.5736 -17.5169 17.3127 -19.4898 10.9245 -19.3224L12.0419 23.3296ZM3.34366 20.5887C0.831024 18.7307 -0.988424 16.086 -1.82544 13.0752L39.2823 1.64712C37.5706 -4.50981 33.8499 -9.91787 28.7118 -13.7174L3.34366 20.5887ZM-1.82837 13.0647L0.771625 22.4357L41.8852 11.0287L39.2852 1.65766L-1.82837 13.0647ZM0.820094 22.6076C-0.0494769 19.5723 -0.200515 16.3762 0.379011 13.2724L42.3209 21.1034C42.957 17.6965 42.7912 14.1884 41.8367 10.8568L0.820094 22.6076ZM0.379011 13.2724C0.958518 10.1686 2.25263 7.24237 4.15894 4.72529L38.1719 30.4851C40.2643 27.7222 41.6848 24.5102 42.3209 21.1034L0.379011 13.2724Z" fill="url(#paint1_linear_3_4)" mask="url(#path-1-inside-1_3_4)"/>
</g>
<defs>
<linearGradient id="paint0_linear_3_4" x1="-1.50741" y1="-0.00390569" x2="29.4171" y2="2.97947" gradientUnits="userSpaceOnUse">
<stop stop-color="#1C2F40"/>
<stop offset="1" stop-color="#20415E"/>
</linearGradient>
<linearGradient id="paint1_linear_3_4" x1="-1.50741" y1="-0.00390569" x2="29.4171" y2="2.97947" gradientUnits="userSpaceOnUse">
<stop stop-color="#1C2F40"/>
<stop offset="1" stop-color="#20415E"/>
</linearGradient>
<clipPath id="clip0_3_4">
<rect width="24" height="24" fill="white"/>
</clipPath>
</defs>
</svg>
