<svg xmlns="http://www.w3.org/2000/svg" viewBox="0 0 69 69" fill="none">
  <circle cx="34.5" cy="34.5" r="34.5" fill="url(#paint0_linear_3977_7854)"/>
  <path d="M40.0172 35.7877C38.6423 34.3108 36.9083 33.1725 34.9541 32.5156C33.7954 33.148 32.4654 33.507 31.0579 33.507C29.6462 33.507 28.3203 33.148 27.1616 32.5156C22.3148 34.1435 18.8184 38.7251 18.8184 44.1146V45.7465C18.8184 46.1953 19.1815 46.5625 19.6343 46.5625H36.5697C36.174 45.5507 35.9537 44.4491 35.9537 43.2986C35.9537 40.1612 37.5734 37.3951 40.0172 35.7877Z" fill="white"/>
  <path d="M31.059 31.8738C34.6642 31.8738 37.5867 28.9513 37.5867 25.3461C37.5867 21.7409 34.6642 18.8184 31.059 18.8184C27.4538 18.8184 24.5312 21.7409 24.5312 25.3461C24.5312 28.9513 27.4538 31.8738 31.059 31.8738Z" fill="white"/>
  <path fill-rule="evenodd" clip-rule="evenodd" d="M44.9296 35.9551C40.8784 35.9551 37.5859 39.2475 37.5859 43.2988C37.5859 47.346 40.8784 50.6425 44.9296 50.6425C48.9768 50.6425 52.2733 47.346 52.2733 43.2988C52.2733 39.2475 48.9768 35.9551 44.9296 35.9551ZM43.9097 37.6376L43.9271 37.772C43.9158 37.7287 43.9097 37.6839 43.9097 37.6376ZM40.8104 43.261C40.8104 42.9849 41.0342 42.761 41.3104 42.761H44.5266V39.5447C44.5266 39.2686 44.7505 39.0447 45.0266 39.0447C45.3028 39.0447 45.5266 39.2686 45.5266 39.5447V42.761H48.7447C49.0209 42.761 49.2447 42.9849 49.2447 43.261C49.2447 43.5372 49.0209 43.761 48.7447 43.761H45.5266V46.9791C45.5266 47.2553 45.3028 47.4791 45.0266 47.4791C44.7505 47.4791 44.5266 47.2553 44.5266 46.9791V43.761H41.3104C41.0342 43.761 40.8104 43.5372 40.8104 43.261Z" fill="white"/>
  <defs>
    <linearGradient id="paint0_linear_3977_7854" x1="-6.0375" y1="1.60341e-06" x2="87.156" y2="9.43643" gradientUnits="userSpaceOnUse">
      <stop stop-color="#1C2F40"/>
      <stop offset="0.0001" stop-color="#1C2F40"/>
      <stop offset="1" stop-color="#20415E"/>
    </linearGradient>
  </defs>
</svg>