<svg width="26" height="26" viewBox="0 0 26 26" fill="none" xmlns="http://www.w3.org/2000/svg">
<circle cx="13.3802" cy="13.4896" r="12.0032" fill="#1C2F40" stroke="white"/>
<path d="M17.7926 14.2351C17.7926 13.7481 17.3844 13.3389 16.8984 13.3389H14.3128V10.7477C14.3128 10.2411 13.8851 9.8125 13.3797 9.8125C12.8743 9.8125 12.4466 10.2411 12.4466 10.7477V13.3389H9.86104C9.37504 13.3389 8.9668 13.7481 8.9668 14.2351C8.9668 14.7222 9.37504 15.1314 9.86104 15.1314H12.4466V17.7031C12.4466 18.2097 12.8743 18.6383 13.3797 18.6383C13.8851 18.6383 14.3128 18.2097 14.3128 17.7031V15.1314H16.8984C17.3844 15.1314 17.7926 14.7222 17.7926 14.2351Z" fill="white"/>
</svg>
