<svg width="87" height="87" viewBox="0 0 87 87" fill="none" xmlns="http://www.w3.org/2000/svg">
    <circle cx="43.5" cy="43.5" r="43.5" fill="#EA0D0D"/>
    <path d="M43.5267 26C45.6107 26 46.8931 26.8882 46.7863 28.926L45.771 49.7213C45.7176 50.8708 45.0229 51.7068 43.5267 51.7068C41.9237 51.7068 41.229 50.8708 41.1756 49.7213L40.2137 28.926C40.1069 26.8882 41.3893 26 43.5267 26ZM43.5267 62C41.2824 62 40 60.9028 40 58.6038C40 56.2525 41.2824 55.1031 43.5267 55.1031C45.771 55.1031 47 56.2525 47 58.6038C47 60.9028 45.771 62 43.5267 62Z" fill="#FEFEFE"/>
    </svg>
    