<svg viewBox="0 0 15 15" fill="none" xmlns="http://www.w3.org/2000/svg">
<path d="M0 15L7.5 0L11.25 7.5L15 15H0Z" fill="#DFB77B"/>
<path d="M6.93333 6L7.01667 11.3488H7.98333L8.06667 6H6.93333ZM7.5 13.5C7.70556 13.5 7.88194 13.4358 8.02917 13.3074C8.17639 13.179 8.25 13.0252 8.25 12.8459C8.25 12.6667 8.17639 12.5128 8.02917 12.3844C7.88194 12.2561 7.70556 12.1919 7.5 12.1919C7.29444 12.1919 7.11806 12.2561 6.97083 12.3844C6.82361 12.5128 6.75 12.6667 6.75 12.8459C6.75 12.9646 6.78472 13.0736 6.85417 13.173C6.92083 13.2723 7.01111 13.3522 7.125 13.4128C7.23611 13.4709 7.36111 13.5 7.5 13.5Z" fill="#F8F8F8"/>
</svg>
