<svg width="19" height="24" viewBox="0 0 19 24" fill="none" xmlns="http://www.w3.org/2000/svg">
<path d="M6.67958 14.0609C7.56031 14.0609 8.42127 13.7998 9.15357 13.3105C9.88588 12.8211 10.4566 12.1257 10.7937 11.312C11.1307 10.4983 11.2189 9.60292 11.0471 8.73911C10.8753 7.8753 10.4511 7.08184 9.82838 6.45906C9.2056 5.83629 8.41214 5.41217 7.54833 5.24035C6.68452 5.06853 5.78915 5.15671 4.97546 5.49376C4.16176 5.8308 3.46629 6.40156 2.97698 7.13387C2.48767 7.86617 2.2265 8.72713 2.2265 9.60786C2.22768 10.7885 2.69722 11.9205 3.53208 12.7554C4.36694 13.5902 5.49891 14.0598 6.67958 14.0609ZM6.67958 6.63915C7.26673 6.63915 7.8407 6.81326 8.32891 7.13946C8.81711 7.46567 9.19762 7.92932 9.42231 8.47178C9.64701 9.01425 9.7058 9.61115 9.59125 10.187C9.4767 10.7629 9.19396 11.2919 8.77878 11.7071C8.36359 12.1222 7.83462 12.405 7.25874 12.5195C6.68287 12.6341 6.08596 12.5753 5.5435 12.3506C5.00103 12.1259 4.53739 11.7454 4.21118 11.2572C3.88497 10.769 3.71086 10.195 3.71086 9.60786C3.71086 8.82051 4.02363 8.0654 4.58038 7.50866C5.13712 6.95192 5.89222 6.63915 6.67958 6.63915Z" fill="black"/>
<path d="M6.67961 15.5459C4.90867 15.5479 3.21083 16.2522 1.95858 17.5045C0.706338 18.7567 0.00196444 20.4546 0 22.2255C0 22.4223 0.0781936 22.6111 0.217379 22.7503C0.356565 22.8895 0.545341 22.9677 0.742179 22.9677C0.939017 22.9677 1.12779 22.8895 1.26698 22.7503C1.40616 22.6111 1.48436 22.4223 1.48436 22.2255C1.48436 20.8476 2.03171 19.5262 3.00601 18.5519C3.98031 17.5776 5.30174 17.0303 6.67961 17.0303C8.05748 17.0303 9.37891 17.5776 10.3532 18.5519C11.3275 19.5262 11.8749 20.8476 11.8749 22.2255C11.8749 22.4223 11.9531 22.6111 12.0922 22.7503C12.2314 22.8895 12.4202 22.9677 12.617 22.9677C12.8139 22.9677 13.0027 22.8895 13.1418 22.7503C13.281 22.6111 13.3592 22.4223 13.3592 22.2255C13.3573 20.4546 12.6529 18.7567 11.4006 17.5045C10.1484 16.2522 8.45055 15.5479 6.67961 15.5459Z" fill="black"/>
<path d="M15.2148 11.1327H14.4726C14.0622 11.1327 13.7304 10.8009 13.7304 10.3905C13.7304 9.98008 14.0622 9.64833 14.4726 9.64833H15.2148C15.6252 9.64833 15.9569 9.98008 15.9569 10.3905C15.9569 10.8009 15.6252 11.1327 15.2148 11.1327ZM15.9569 13.3592C15.9569 12.9488 15.6252 12.617 15.2148 12.617H14.4726C14.0622 12.617 13.7304 12.9488 13.7304 13.3592C13.7304 13.7696 14.0622 14.1014 14.4726 14.1014H15.2148C15.6252 14.1014 15.9569 13.7696 15.9569 13.3592ZM12.9882 4.45307C12.9882 4.04265 12.6565 3.7109 12.246 3.7109H11.5039C11.0934 3.7109 10.7617 4.04265 10.7617 4.45307C10.7617 4.8635 11.0934 5.19525 11.5039 5.19525H12.246C12.6565 5.19525 12.9882 4.8635 12.9882 4.45307ZM15.9569 4.45307C15.9569 4.04265 15.6252 3.7109 15.2148 3.7109H14.4726C14.0622 3.7109 13.7304 4.04265 13.7304 4.45307C13.7304 4.8635 14.0622 5.19525 14.4726 5.19525H15.2148C15.6252 5.19525 15.9569 4.8635 15.9569 4.45307ZM15.9569 7.42179C15.9569 7.01137 15.6252 6.67961 15.2148 6.67961H14.4726C14.0622 6.67961 13.7304 7.01137 13.7304 7.42179C13.7304 7.83222 14.0622 8.16397 14.4726 8.16397H15.2148C15.6252 8.16397 15.9569 7.83222 15.9569 7.42179ZM18.9257 20.1954V3.7109C18.9257 1.66471 17.2609 0 15.2148 0H11.5039C9.45768 0 7.79297 1.66471 7.79297 3.7109C7.79297 4.12132 8.12472 4.45307 8.53515 4.45307C8.94557 4.45307 9.27733 4.12132 9.27733 3.7109C9.27733 2.48333 10.2763 1.48436 11.5039 1.48436H15.2148C16.4423 1.48436 17.4413 2.48333 17.4413 3.7109V20.1954C17.4413 21.423 17.37 22.4219 16.1425 22.4219H15.4003C14.9899 22.4219 14.6581 22.7537 14.6581 23.1641C14.6581 23.5745 14.9899 23.9063 15.4003 23.9063H16.1425C18.1887 23.9063 18.9257 22.2416 18.9257 20.1954Z" fill="black"/>
<path d="M15.2146 15.6562C15.625 15.6562 15.9568 15.988 15.9568 16.3984C15.9568 16.8089 15.625 17.1406 15.2146 17.1406H14.4724C14.062 17.1406 13.7302 16.8089 13.7302 16.3984C13.7302 15.988 14.062 15.6562 14.4724 15.6562H15.2146Z" fill="black"/>
<path d="M15.2146 18.7539C15.625 18.7539 15.9568 19.0857 15.9568 19.4961C15.9568 19.9065 15.625 20.2383 15.2146 20.2383H14.4724C14.062 20.2383 13.7302 19.9065 13.7302 19.4961C13.7302 19.0857 14.062 18.7539 14.4724 18.7539H15.2146Z" fill="black"/>
</svg>
