<svg width="24" height="16" viewBox="0 0 16 10" fill="none" xmlns="http://www.w3.org/2000/svg">
<path d="M6.88889 10C6.7 10 6.54167 9.93976 6.41389 9.81927C6.28611 9.69877 6.22222 9.54947 6.22222 9.37136C6.22222 9.19323 6.28611 9.04514 6.41389 8.92708C6.54167 8.80903 6.7 8.75 6.88889 8.75H9.11111C9.3 8.75 9.45833 8.81024 9.58611 8.93073C9.71389 9.05123 9.77778 9.20053 9.77778 9.37865C9.77778 9.55677 9.71389 9.70486 9.58611 9.82292C9.45833 9.94097 9.3 10 9.11111 10H6.88889ZM3.33333 5.625C3.14444 5.625 2.98611 5.56476 2.85833 5.44427C2.73056 5.32377 2.66667 5.17447 2.66667 4.99635C2.66667 4.81823 2.73056 4.67014 2.85833 4.55208C2.98611 4.43403 3.14444 4.375 3.33333 4.375H12.6667C12.8556 4.375 13.0139 4.43524 13.1417 4.55573C13.2694 4.67623 13.3333 4.82553 13.3333 5.00365C13.3333 5.18177 13.2694 5.32986 13.1417 5.44792C13.0139 5.56597 12.8556 5.625 12.6667 5.625H3.33333ZM0.666667 1.25C0.477778 1.25 0.319444 1.18976 0.191667 1.06927C0.0638889 0.948771 0 0.799466 0 0.621354C0 0.443229 0.0638889 0.295139 0.191667 0.177083C0.319444 0.0590278 0.477778 0 0.666667 0H15.3333C15.5222 0 15.6806 0.0602428 15.8083 0.180729C15.9361 0.301229 16 0.450534 16 0.628646C16 0.806771 15.9361 0.954861 15.8083 1.07292C15.6806 1.19097 15.5222 1.25 15.3333 1.25H0.666667Z" fill="white"/>
</svg>
