<svg viewBox="0 0 29 29" fill="none" xmlns="http://www.w3.org/2000/svg">
<path d="M22.9583 3.6264H15.0703C14.8843 3.6264 14.6958 3.5829 14.5302 3.49952L10.7203 1.59519C10.2189 1.34385 9.65821 1.21094 9.09633 1.21094H6.04167C2.71029 1.20973 0 3.92002 0 7.2514V21.7514C0 25.0828 2.71029 27.7931 6.04167 27.7931H9.66667C10.3337 27.7931 10.875 27.2529 10.875 26.5847C10.875 25.9165 10.3337 25.3764 9.66667 25.3764H6.04167C4.04308 25.3764 2.41667 23.75 2.41667 21.7514V10.8764H26.5833V21.7514C26.5833 23.75 24.9569 25.3764 22.9583 25.3764H19.3333C18.6663 25.3764 18.125 25.9165 18.125 26.5847C18.125 27.2529 18.6663 27.7931 19.3333 27.7931H22.9583C26.2897 27.7931 29 25.0828 29 21.7514V9.66806C29 6.33669 26.2897 3.6264 22.9583 3.6264ZM2.41667 7.2514C2.41667 5.25281 4.04308 3.6264 6.04167 3.6264H9.09633C9.28242 3.6264 9.4685 3.6699 9.63646 3.75448L13.45 5.66002C13.9514 5.91015 14.5109 6.04185 15.0703 6.04185H22.9583C24.5316 6.04185 25.8608 7.05565 26.361 8.45852H2.41667V7.2514ZM17.2707 19.2091L15.7083 17.6467V26.5847C15.7083 27.2529 15.167 27.7931 14.5 27.7931C13.833 27.7931 13.2917 27.2529 13.2917 26.5847V17.6467L11.7293 19.2091C11.4937 19.4447 11.1843 19.5631 10.875 19.5631C10.5657 19.5631 10.2563 19.4447 10.0207 19.2091C9.54825 18.7366 9.54825 17.9729 10.0207 17.5005L11.9698 15.5514C13.3207 14.1993 15.6781 14.1993 17.0303 15.5514L18.9793 17.5005C19.4517 17.9729 19.4517 18.7366 18.9793 19.2091C18.5068 19.6815 17.7432 19.6815 17.2707 19.2091Z" fill="url(#paint0_linear_3_18468)"/>
<defs>
<linearGradient id="paint0_linear_3_18468" x1="-2.5375" y1="1.21094" x2="36.5553" y2="5.52938" gradientUnits="userSpaceOnUse">
<stop stop-color="#1C2F40"/>
<stop offset="1" stop-color="#20415E"/>
</linearGradient>
</defs>
</svg>
