<svg width="34" height="38" viewBox="0 0 34 38" fill="none" xmlns="http://www.w3.org/2000/svg">
<path d="M23.5673 21.2251C23.5406 21.2516 23.5135 21.2779 23.4865 21.304C23.4478 21.3413 23.4088 21.3784 23.3695 21.4151C23.3419 21.4409 23.3142 21.4664 23.2863 21.4919C23.2462 21.5284 23.2056 21.5643 23.1649 21.6001C23.1371 21.6244 23.1094 21.6489 23.0814 21.673C23.0386 21.7097 22.9953 21.7456 22.9518 21.7815C22.9252 21.8035 22.8988 21.8257 22.872 21.8473C22.8227 21.8871 22.7728 21.926 22.7226 21.9647C22.701 21.9814 22.6797 21.9986 22.6579 22.0152C22.5856 22.0699 22.5127 22.1238 22.4389 22.1765C22.43 22.1829 22.4208 22.1889 22.4119 22.1952C22.3469 22.2412 22.2815 22.2865 22.2153 22.3308C22.1897 22.348 22.1635 22.3646 22.1377 22.3815C22.0877 22.4143 22.0376 22.4469 21.987 22.4787C21.9569 22.4975 21.9264 22.5159 21.8961 22.5345C21.8489 22.5634 21.8017 22.5921 21.754 22.62C21.7219 22.6388 21.6896 22.6573 21.6573 22.6757C21.6104 22.7024 21.5634 22.7288 21.516 22.7547C21.483 22.7728 21.4499 22.7906 21.4166 22.8084C21.369 22.8337 21.3211 22.8584 21.2731 22.8829C21.2399 22.8998 21.2066 22.9167 21.1732 22.9332C21.1234 22.9578 21.0733 22.9817 21.0231 23.0053C20.9911 23.0203 20.9593 23.0357 20.9271 23.0504C20.8715 23.0757 20.8154 23.1002 20.7593 23.1245C20.7322 23.1363 20.7051 23.1484 20.6779 23.16C20.5943 23.1951 20.5102 23.2293 20.4255 23.262C19.2047 23.7331 17.9235 23.9341 16.6178 23.8595C16.5549 23.8558 16.4916 23.8514 16.4281 23.8464C16.4245 23.8462 16.4209 23.846 16.4172 23.8457L21.6308 37.3561L23.6405 32.2059C23.6714 32.1267 23.733 32.0647 23.8109 32.0347C23.8887 32.0046 23.9759 32.0091 24.0521 32.0471L29.0003 34.512L23.7866 21.0013C23.7774 21.0111 23.7679 21.0204 23.7587 21.03C23.7337 21.0563 23.7083 21.0821 23.6831 21.1081C23.6448 21.1474 23.6063 21.1865 23.5673 21.2251Z" fill="#E8C07E"/>
<path d="M11.3194 21.2251C11.3461 21.2516 11.3732 21.2779 11.4003 21.304C11.4389 21.3413 11.478 21.3784 11.5173 21.4151C11.5448 21.4409 11.5726 21.4664 11.6005 21.4919C11.6406 21.5284 11.6811 21.5643 11.7218 21.6001C11.7496 21.6244 11.7773 21.6489 11.8054 21.673C11.8481 21.7097 11.8914 21.7456 11.9349 21.7815C11.9615 21.8035 11.9879 21.8257 12.0148 21.8473C12.064 21.8871 12.114 21.926 12.1641 21.9647C12.1858 21.9814 12.207 21.9986 12.2288 22.0152C12.3011 22.0699 12.374 22.1238 12.4478 22.1765C12.4567 22.1829 12.4659 22.1889 12.4748 22.1952C12.5398 22.2412 12.6052 22.2865 12.6714 22.3308C12.6971 22.348 12.7232 22.3646 12.749 22.3815C12.799 22.4143 12.8491 22.4469 12.8997 22.4787C12.9298 22.4975 12.9603 22.5159 12.9906 22.5345C13.0378 22.5634 13.0851 22.5921 13.1328 22.62C13.1648 22.6388 13.1971 22.6573 13.2294 22.6757C13.2763 22.7024 13.3234 22.7288 13.3707 22.7547C13.4037 22.7728 13.4369 22.7906 13.4701 22.8084C13.5177 22.8337 13.5656 22.8584 13.6137 22.8829C13.6469 22.8998 13.6801 22.9167 13.7135 22.9332C13.7633 22.9578 13.8134 22.9817 13.8636 23.0053C13.8956 23.0203 13.9275 23.0357 13.9596 23.0504C14.0152 23.0757 14.0713 23.1002 14.1275 23.1245C14.1546 23.1363 14.1816 23.1484 14.2088 23.16C14.2924 23.1951 14.3765 23.2293 14.4612 23.262C15.682 23.7331 16.9632 23.9341 18.269 23.8595C18.3319 23.8558 18.3952 23.8514 18.4586 23.8464C18.4623 23.8462 18.4659 23.846 18.4695 23.8457L13.2559 37.3561L11.2462 32.2059C11.2153 32.1267 11.1537 32.0647 11.0759 32.0347C10.998 32.0046 10.9108 32.0091 10.8346 32.0471L5.8864 34.512L11.1001 21.0013C11.1093 21.0111 11.1188 21.0204 11.128 21.03C11.153 21.0563 11.1784 21.0821 11.2037 21.1081C11.242 21.1474 11.2804 21.1865 11.3194 21.2251Z" fill="#E8C07E"/>
<g filter="url(#filter0_d_2_9839)">
<path d="M24.2572 9.9319C23.8606 8.99361 23.2924 8.15144 22.5688 7.42786C21.8452 6.70428 21.0025 6.13612 20.0648 5.73951C19.0937 5.3285 18.0621 5.12012 16.9983 5.12012C15.9346 5.12012 14.903 5.32792 13.9319 5.73951C12.9936 6.13612 12.1514 6.70428 11.4279 7.42786C10.7043 8.15144 10.1361 8.99418 9.73951 9.9319C9.3285 10.903 9.12012 11.9346 9.12012 12.9983C9.12012 14.0621 9.32792 15.0937 9.73951 16.0648C10.1361 17.0031 10.7043 17.8452 11.4279 18.5688C12.1514 19.2924 12.9942 19.8606 13.9319 20.2572C14.903 20.6682 15.9346 20.8766 16.9983 20.8766C18.0621 20.8766 19.0937 20.6688 20.0648 20.2572C21.0031 19.8606 21.8452 19.2924 22.5688 18.5688C23.2924 17.8452 23.8606 17.0025 24.2572 16.0648C24.6682 15.0937 24.8766 14.0621 24.8766 12.9983C24.8766 11.9346 24.6682 10.903 24.2572 9.9319ZM15.9979 17.8239L13.9054 16.0279L11.8901 14.2981L13.6809 12.2114L15.5333 13.8014L19.8875 8.17274L22.1072 9.79548L15.9979 17.8239Z" fill="#E8C07E"/>
<path d="M30 13.006L28.5482 10.7087L29.0133 8.03135L26.7954 6.46215L26.1962 3.81247L23.5459 3.21438L21.9807 0.992982L19.3029 1.45119L17.006 0L14.7087 1.45177L12.0314 0.98665L10.4622 3.2046L7.81247 3.80384L7.21438 6.45409L4.99298 8.01926L5.45119 10.6971L4 12.994L5.45177 15.2913L4.98665 17.9686L7.2046 19.5378L7.80384 22.1875L10.4541 22.7856L12.0193 25.007L14.6971 24.5488L16.994 26L19.2913 24.5482L21.9686 25.0133L23.5378 22.7954L26.1875 22.1962L26.7856 19.5459L29.007 17.9807L28.5488 15.3029L30 13.006ZM16.9997 22.2439C11.8943 22.2439 7.75606 18.1051 7.75606 13.0003C7.75606 7.8955 11.8949 3.75664 16.9997 3.75664C22.1045 3.75664 26.2434 7.8955 26.2434 13.0003C26.2434 18.1051 22.1051 22.2439 16.9997 22.2439Z" fill="#E8C07E"/>
</g>
<defs>
<filter id="filter0_d_2_9839" x="0" y="0" width="34" height="34" filterUnits="userSpaceOnUse" color-interpolation-filters="sRGB">
<feFlood flood-opacity="0" result="BackgroundImageFix"/>
<feColorMatrix in="SourceAlpha" type="matrix" values="0 0 0 0 0 0 0 0 0 0 0 0 0 0 0 0 0 0 127 0" result="hardAlpha"/>
<feOffset dy="4"/>
<feGaussianBlur stdDeviation="2"/>
<feComposite in2="hardAlpha" operator="out"/>
<feColorMatrix type="matrix" values="0 0 0 0 0 0 0 0 0 0 0 0 0 0 0 0 0 0 0.05 0"/>
<feBlend mode="normal" in2="BackgroundImageFix" result="effect1_dropShadow_2_9839"/>
<feBlend mode="normal" in="SourceGraphic" in2="effect1_dropShadow_2_9839" result="shape"/>
</filter>
</defs>
</svg>
