<svg width="32" height="32" viewBox="0 0 32 32" fill="none" xmlns="http://www.w3.org/2000/svg">
<mask id="mask0_125_6347" style="mask-type:alpha" maskUnits="userSpaceOnUse" x="0" y="0" width="32" height="32">
<rect width="32" height="32" fill="#D9D9D9"/>
</mask>
<g mask="url(#mask0_125_6347)">
<mask id="mask1_125_6347" style="mask-type:alpha" maskUnits="userSpaceOnUse" x="7" y="0" width="19" height="32">
<rect x="7" width="18.4789" height="32" fill="#D9D9D9"/>
</mask>
<g mask="url(#mask1_125_6347)">
<mask id="mask2_125_6347" style="mask-type:alpha" maskUnits="userSpaceOnUse" x="-38" y="0" width="64" height="32">
<rect x="-37.8457" width="63.3239" height="31.9988" fill="#D9D9D9"/>
</mask>
<g mask="url(#mask2_125_6347)">
<mask id="mask3_125_6347" style="mask-type:luminance" maskUnits="userSpaceOnUse" x="-57" y="-22" width="115" height="115">
<path d="M10.6628 -21.4946L-56.166 45.3531L-8.89963 92.6061L57.9291 25.7585L10.6628 -21.4946Z" fill="white"/>
</mask>
<g mask="url(#mask3_125_6347)">
<path d="M21.2841 16.0811L19.583 17.7827L20.5009 18.7004L22.202 16.9988L21.2841 16.0811Z" fill="#9E7C4F"/>
</g>
<mask id="mask4_125_6347" style="mask-type:luminance" maskUnits="userSpaceOnUse" x="-54" y="-18" width="96" height="68">
<path d="M41.1406 -17.3471H-53.3838V49.4888H41.1406V-17.3471Z" fill="white"/>
</mask>
<g mask="url(#mask4_125_6347)">
<path d="M17.9131 12.7184L16.2109 11.0174V11.0162L17.1294 10.0989L18.8304 11.8011L17.9131 12.7184Z" fill="#1C374D"/>
</g>
<mask id="mask5_125_6347" style="mask-type:luminance" maskUnits="userSpaceOnUse" x="-58" y="-29" width="116" height="115">
<path d="M9.78482 -28.8552L-57.0439 37.9925L-9.77756 85.2455L57.0512 18.3979L9.78482 -28.8552Z" fill="white"/>
</mask>
<g mask="url(#mask5_125_6347)">
<path d="M11.9619 13.4622L10.2607 15.1638L11.1786 16.0815L12.8797 14.3799L11.9619 13.4622Z" fill="#9E7C4F"/>
</g>
<mask id="mask6_125_6347" style="mask-type:luminance" maskUnits="userSpaceOnUse" x="-54" y="-18" width="96" height="68">
<path d="M41.1406 -17.3471H-53.3838V49.4888H41.1406V-17.3471Z" fill="white"/>
</mask>
<g mask="url(#mask6_125_6347)">
<path d="M14.5102 19.4224L16.2112 21.1245L15.2939 22.0429L13.5918 20.3408L14.5102 19.4224Z" fill="#1C374D"/>
</g>
<mask id="mask7_125_6347" style="mask-type:luminance" maskUnits="userSpaceOnUse" x="-54" y="-18" width="96" height="68">
<path d="M41.1406 -17.3471H-53.3838V49.4888H41.1406V-17.3471Z" fill="white"/>
</mask>
<g mask="url(#mask7_125_6347)">
<mask id="mask8_125_6347" style="mask-type:luminance" maskUnits="userSpaceOnUse" x="-54" y="-18" width="96" height="68">
<path d="M41.1397 -17.3471H-53.3848V49.4888H41.1397V-17.3471Z" fill="white"/>
</mask>
<g mask="url(#mask8_125_6347)">
<path d="M17.9123 19.4224L14.2262 23.1084C14.0814 23.0725 13.9242 23.0242 13.7569 22.9658C13.5897 22.9075 13.4257 22.839 13.2674 22.7615C13.1079 22.6852 12.9564 22.6009 12.8116 22.51C12.6667 22.4191 12.5421 22.3214 12.4377 22.217C12.2794 22.0586 12.1794 21.9037 12.139 21.7544C12.0986 21.6051 12.0941 21.4613 12.1255 21.3255C12.157 21.1896 12.2187 21.0594 12.3097 20.9381C12.4006 20.8157 12.4995 20.7001 12.6084 20.5912L15.8452 17.3543L14.9269 16.4358L11.5473 19.8165C11.4474 19.9164 11.3565 20.0208 11.2756 20.1286C11.1308 20.0927 10.9736 20.0444 10.8029 19.9827C10.6334 19.922 10.4661 19.8524 10.3033 19.7749C10.1394 19.6975 9.98334 19.6144 9.83401 19.5234C9.68468 19.4325 9.5578 19.3348 9.45338 19.2304C9.29507 19.0721 9.19513 18.9172 9.15471 18.7678C9.11429 18.6185 9.10978 18.4748 9.14122 18.3389C9.17266 18.2031 9.23442 18.0728 9.32537 17.9516C9.41631 17.8303 9.51513 17.7135 9.62404 17.6046L10.2416 16.9871L9.32312 16.0687L8.56301 16.8299C8.33172 17.0612 8.16333 17.2936 8.05667 17.5272C7.95 17.7607 7.89497 17.992 7.89384 18.221C7.8916 18.4501 7.93991 18.6701 8.03984 18.8835C8.13976 19.0968 8.2823 19.2966 8.46756 19.4819C8.63148 19.6458 8.81786 19.7873 9.02894 19.9074C9.24002 20.0276 9.45227 20.1297 9.66785 20.2139C9.88342 20.297 10.0933 20.3666 10.2965 20.4217C10.5009 20.4756 10.6794 20.5216 10.8333 20.5575L11.0107 20.5979C10.8703 20.9381 10.8422 21.2671 10.9253 21.5871C11.0095 21.9071 11.1847 22.2001 11.4519 22.4673C11.6158 22.6313 11.8022 22.7727 12.0133 22.8929C12.2243 23.013 12.4365 23.114 12.6521 23.1983C12.8677 23.2825 13.0776 23.3521 13.2809 23.406C13.4841 23.4599 13.6638 23.5048 13.8176 23.5418L7.18652 30.1459V31.9816L18.8307 20.3386L17.9123 19.4224Z" fill="#9E7C4F"/>
</g>
<mask id="mask9_125_6347" style="mask-type:luminance" maskUnits="userSpaceOnUse" x="-54" y="-18" width="96" height="68">
<path d="M41.1397 -17.3471H-53.3848V49.4888H41.1397V-17.3471Z" fill="white"/>
</mask>
<g mask="url(#mask9_125_6347)">
<path d="M20.48 13.4515L19.5628 14.3699L23.2488 18.056C23.2129 18.2008 23.1646 18.358 23.1062 18.5253C23.0478 18.6926 22.9793 18.8554 22.9018 19.0148C22.8244 19.1731 22.7413 19.3247 22.6504 19.4706C22.5594 19.6155 22.4628 19.7401 22.3573 19.8445C22.199 20.0028 22.0441 20.1028 21.8947 20.1432C21.7454 20.1836 21.6017 20.1881 21.4658 20.1567C21.33 20.1252 21.2009 20.0635 21.0785 19.9736C20.9561 19.8827 20.8404 19.7839 20.7315 19.675L12.4635 11.4069C12.3636 11.307 12.2592 11.2161 12.1503 11.1352C12.1862 10.9904 12.2344 10.8332 12.2962 10.6626C12.3568 10.493 12.4265 10.3257 12.5039 10.1629C12.5814 10.0001 12.6645 9.84294 12.7554 9.69361C12.8464 9.54316 12.944 9.41741 13.0473 9.31299C13.2056 9.15356 13.3606 9.05476 13.5099 9.01321C13.6592 8.97279 13.8029 8.9683 13.9388 8.99974C14.0746 9.03118 14.2049 9.09181 14.3273 9.18275C14.4497 9.2737 14.5653 9.37362 14.6742 9.48141L15.2918 10.0989L16.2101 9.18163L15.4489 8.42039C15.2176 8.18911 14.9852 8.02069 14.7517 7.91403C14.5182 7.80737 14.2869 7.75235 14.0578 7.7501C13.8288 7.74786 13.6076 7.79726 13.3954 7.89606C13.1821 7.99599 12.9822 8.13858 12.7969 8.32496C12.633 8.48888 12.4916 8.67526 12.3714 8.88634C12.2513 9.09742 12.1491 9.30962 12.0661 9.52519C11.9818 9.74077 11.9122 9.95072 11.8583 10.1551C11.8044 10.3583 11.7584 10.5379 11.7225 10.6917L11.6809 10.868C11.3407 10.7277 11.0106 10.6996 10.6918 10.7827C10.3718 10.8669 10.0788 11.0421 9.81153 11.3093C9.64761 11.4721 9.50614 11.6596 9.386 11.8707C9.26587 12.0817 9.16479 12.2939 9.08059 12.5095C8.99638 12.7251 8.92793 12.935 8.87292 13.1383C8.8179 13.3426 8.773 13.5211 8.73707 13.6761L7.95448 13.1652L7.18652 13.9343L11.9414 18.6892L12.8598 17.7708L9.17378 14.0847C9.21084 13.9399 9.25799 13.7827 9.31638 13.6154C9.37476 13.4481 9.44329 13.2853 9.52076 13.1259C9.59823 12.9676 9.68128 12.816 9.77223 12.6701C9.86317 12.5252 9.95971 12.4006 10.0653 12.2962C10.2236 12.1379 10.3785 12.0379 10.5278 11.9975C10.6772 11.9571 10.8209 11.9526 10.9568 11.984C11.0926 12.0155 11.2217 12.0772 11.3452 12.1671C11.4676 12.258 11.5833 12.3568 11.6922 12.4657L19.9602 20.7338C20.0601 20.8337 20.1645 20.9246 20.2723 21.0055C20.2364 21.1503 20.1881 21.3075 20.1264 21.4782C20.0658 21.6477 19.9961 21.815 19.9187 21.9778C19.8412 22.1406 19.7581 22.2978 19.6671 22.4471C19.5762 22.5975 19.4786 22.7233 19.3753 22.8277C19.217 22.986 19.062 23.0859 18.9127 23.1275C18.7633 23.1679 18.6196 23.1724 18.4837 23.141C18.3479 23.1095 18.2177 23.0489 18.0964 22.958C17.974 22.867 17.8584 22.7671 17.7495 22.6593L17.132 22.0418L16.2135 22.9602L16.9737 23.7214C17.2049 23.9527 17.4374 24.1211 17.6709 24.2278C17.9044 24.3345 18.1357 24.3895 18.3648 24.3917C18.5938 24.394 18.815 24.3457 19.0283 24.2458C19.2416 24.1458 19.4404 24.0033 19.6267 23.8169C19.7907 23.6529 19.9321 23.4666 20.0523 23.2555C20.1724 23.0444 20.2746 22.8322 20.3577 22.6166C20.4419 22.4011 20.5115 22.1911 20.5654 21.9868C20.6204 21.7835 20.6653 21.6039 20.7012 21.4501L20.7428 21.2738C21.083 21.4142 21.4131 21.4422 21.7319 21.3591C22.0519 21.2749 22.3449 21.0998 22.6122 20.8326C22.7761 20.6698 22.9175 20.4823 23.0377 20.2712C23.1578 20.0601 23.2589 19.8479 23.3431 19.6323C23.4273 19.4168 23.4958 19.2068 23.5508 19.0036C23.6047 18.7992 23.6507 18.6207 23.6867 18.4658L24.4692 18.9766L25.2372 18.2075L20.48 13.4515Z" fill="#1C374D"/>
</g>
<mask id="mask10_125_6347" style="mask-type:luminance" maskUnits="userSpaceOnUse" x="-54" y="-18" width="96" height="68">
<path d="M41.1397 -17.3471H-53.3848V49.4888H41.1397V-17.3471Z" fill="white"/>
</mask>
<g mask="url(#mask10_125_6347)">
<path d="M25.235 0.157974L13.5908 11.801L14.5092 12.7183L18.1953 9.03231C18.3401 9.06824 18.4973 9.11539 18.6646 9.1749C18.8319 9.23328 18.9958 9.30177 19.1541 9.37924C19.3135 9.45559 19.4651 9.5398 19.6099 9.63074C19.7548 9.72169 19.8794 9.81937 19.9838 9.92378C20.1421 10.0821 20.2421 10.2359 20.2836 10.3864C20.324 10.5357 20.3285 10.6794 20.2971 10.8153C20.2657 10.9511 20.2039 11.0814 20.1129 11.2037C20.022 11.3261 19.9232 11.4418 19.8143 11.5507L16.5773 14.7876L17.4958 15.7049L20.8764 12.3243C20.9763 12.2243 21.0673 12.1199 21.1493 12.0121C21.2941 12.0481 21.4513 12.0963 21.6219 12.1581C21.7915 12.2198 21.9588 12.2883 22.1216 12.3658C22.2855 12.4433 22.4415 12.5264 22.5909 12.6173C22.7402 12.7082 22.8671 12.8048 22.9727 12.9103C23.131 13.0686 23.2308 13.2236 23.2713 13.3729C23.3117 13.5222 23.3162 13.6648 23.2848 13.8018C23.2533 13.9377 23.1916 14.0679 23.1006 14.1892C23.0097 14.3116 22.9109 14.4272 22.802 14.5361L22.1845 15.1536L23.1029 16.0709L23.863 15.3097C24.0943 15.0784 24.2627 14.846 24.3705 14.6124C24.4771 14.3789 24.531 14.1476 24.5333 13.9186C24.5355 13.6895 24.4872 13.4695 24.3873 13.2562C24.2874 13.0428 24.1448 12.843 23.9595 12.6577C23.7967 12.4938 23.6092 12.3523 23.3981 12.2322C23.187 12.1121 22.9737 12.0099 22.7593 11.9257C22.5437 11.8415 22.3338 11.773 22.1306 11.718C21.9262 11.6629 21.7466 11.618 21.5939 11.5821L21.4165 11.5417C21.5568 11.2015 21.5849 10.8725 21.5018 10.5525C21.4176 10.2325 21.2425 9.93838 20.9752 9.67116C20.8113 9.50724 20.6249 9.36577 20.4139 9.24564C20.2028 9.1255 19.9905 9.02445 19.775 8.94024C19.5594 8.85604 19.3495 8.78755 19.1463 8.73253C18.943 8.67864 18.7634 8.63373 18.6095 8.59668L25.2406 1.99257V0.157974H25.235Z" fill="#9E7C4F"/>
</g>
</g>
</g>
</g>
</g>
</svg>
